SplineFontDB: 3.0
FontName: EulerOTF
FullName: Euler OTF
FamilyName: EulerOTF
Weight: Medium
Copyright: Copyright (C) 1997 American Mathematical Society. All Rights Reserved
Version: 0.01
ItalicAngle: 0
UnderlinePosition: 0
UnderlineWidth: 0
Ascent: 800
Descent: 200
LayerCount: 2
Layer: 0 0 "Back"  1
Layer: 1 0 "Fore"  0
NeedsXUIDChange: 1
UniqueID: 5031984
FSType: 8
OS2Version: 0
OS2_WeightWidthSlopeOnly: 0
OS2_UseTypoMetrics: 0
CreationTime: 1245375532
ModificationTime: 1245627194
PfmFamily: 17
TTFWeight: 500
TTFWidth: 5
LineGap: 90
VLineGap: 0
OS2TypoAscent: 800
OS2TypoAOffset: 0
OS2TypoDescent: -200
OS2TypoDOffset: 0
OS2TypoLinegap: 90
OS2WinAscent: 722
OS2WinAOffset: 0
OS2WinDescent: 203
OS2WinDOffset: 0
HheadAscent: 722
HheadAOffset: 0
HheadDescent: -203
HheadDOffset: 0
OS2Vendor: 'PfEd'
Lookup: 1 0 0 "'onum' Oldstyle Figures lookup 0"  {"'onum' Oldstyle Figures lookup 0-1" ("onum" ) } ['onum' ('DFLT' <'dflt' > 'grek' <'dflt' > 'latn' <'dflt' > 'math' <'dflt' > ) ]
DEI: 91125
LangName: 1033 
MATH:ScriptPercentScaleDown: 80
MATH:ScriptScriptPercentScaleDown: 60
MATH:DelimitedSubFormulaMinHeight: 1500
MATH:DisplayOperatorMinHeight: 0
MATH:MathLeading: 0 
MATH:AxisHeight: 0 
MATH:AccentBaseHeight: 464 
MATH:FlattenedAccentBaseHeight: 683 
MATH:SubscriptShiftDown: 0 
MATH:SubscriptTopMax: 464 
MATH:SubscriptBaselineDropMin: 0 
MATH:SuperscriptShiftUp: 0 
MATH:SuperscriptShiftUpCramped: 0 
MATH:SuperscriptBottomMin: 464 
MATH:SuperscriptBaselineDropMax: 0 
MATH:SubSuperscriptGapMin: 0 
MATH:SuperscriptBottomMaxWithSubscript: 464 
MATH:SpaceAfterScript: 41 
MATH:UpperLimitGapMin: 0 
MATH:UpperLimitBaselineRiseMin: 0 
MATH:LowerLimitGapMin: 0 
MATH:LowerLimitBaselineDropMin: 0 
MATH:StackTopShiftUp: 0 
MATH:StackTopDisplayStyleShiftUp: 0 
MATH:StackBottomShiftDown: 0 
MATH:StackBottomDisplayStyleShiftDown: 0 
MATH:StackGapMin: 0 
MATH:StackDisplayStyleGapMin: 0 
MATH:StretchStackTopShiftUp: 0 
MATH:StretchStackBottomShiftDown: 0 
MATH:StretchStackGapAboveMin: 0 

StartChar: Gamma
Encoding: 915 915 0
Width: 428
Flags: MW
HStem: -7 21<119 119> 650 43
VStem: 116 80 480 28
LayerCount: 2
Fore
SplineSet
496 697 m 1
 509 521 l 1
 484 522 l 1
 459 604 l 2
 452 629 426 639 402 643 c 0
 345 653 287 653 229 650 c 0
 211 649 198 633 196 615 c 1
 192 594 189 572 189 549 c 0
 189 372 193 194 196 16 c 1
 119 -7 l 1
 109 4 l 1
 112 187 116 461 116 553 c 0
 116 573 116 594 114 615 c 0
 113 628 110 642 100 651 c 2
 74 673 l 1
 77 693 l 1
 156 693 235 693 314 693 c 0
 375 693 436 694 496 697 c 1
EndSplineSet
EndChar

StartChar: Delta
Encoding: 916 916 1
Width: 713
Flags: MW
HStem: -4 56 676 20<421 421>
VStem: 30 659<44 45>
LayerCount: 2
Fore
SplineSet
363 671 m 1
 421 696 l 1
 465 564 511 433 563 305 c 0
 600 215 639 127 689 44 c 1
 688 28 l 1
 627 -4 l 1
 429 9 230 17 32 3 c 1
 30 45 l 1
 144 252 251 462 363 671 c 1
562 50 m 1
 568 59 l 1
 498 220 438 384 370 546 c 0
 370 547 365 559 362 565 c 1
 266 399 179 230 98 59 c 1
 107 52 l 1
 259 55 410 50 562 50 c 1
EndSplineSet
EndChar

StartChar: Theta
Encoding: 920 920 2
Width: 757
Flags: MW
HStem: -12 43<349 389> 326 60 663 38<368.5 403>
VStem: 29 93<298 370.5 298 379.5> 207 28 518 31<291.5 306> 632 93
LayerCount: 2
Fore
SplineSet
208 349 m 1
 205 457 l 1
 230 457 l 1
 230 438 234 419 234 400 c 0
 234 389 248 388 256 387 c 0
 300 384 353 384 401 384 c 0
 436 384 474 384 506 386 c 0
 517 387 523 397 523 406 c 2
 521 457 l 1
 551 457 l 1
 549 351 l 1
 549 243 l 1
 519 244 l 1
 521 263 518 282 518 301 c 0
 518 311 512 322 501 322 c 0
 466 323 432 326 397 326 c 0
 357 326 306 324 260 322 c 0
 250 322 235 320 235 306 c 0
 235 284 235 262 235 240 c 1
 206 241 l 1
 208 349 l 1
336 -12 m 0
 260 -12 181 5 126 59 c 1
 55 131 29 232 29 331 c 0
 29 428 58 525 127 594 c 0
 204 672 314 701 423 701 c 0
 503 701 585 681 643 624 c 1
 706 560 726 469 726 381 c 0
 726 323 719 265 701 211 c 0
 686 165 663 122 629 88 c 0
 553 12 442 -12 336 -12 c 0
379 31 m 0
 449 31 517 58 567 108 c 0
 594 135 607 172 615 209 c 1
 629 264 632 320 632 377 c 0
 632 457 612 539 555 596 c 0
 506 645 437 663 369 663 c 0
 302 663 237 640 189 592 c 0
 163 566 149 531 139 495 c 0
 126 447 122 396 122 345 c 0
 122 251 149 157 216 90 c 0
 259 47 319 31 379 31 c 0
EndSplineSet
EndChar

StartChar: Lambda
Encoding: 923 923 3
Width: 770
Flags: MW
HStem: -7 59 678 20<459 459>
VStem: 28 743<4 55>
LayerCount: 2
Fore
SplineSet
393 673 m 1
 459 698 l 1
 513 483 577 271 672 71 c 0
 678 59 691 52 704 52 c 2
 771 55 l 1
 770 33 l 1
 718 17 666 3 613 -7 c 1
 590 1 l 1
 520 192 460 387 395 580 c 1
 301 393 148 85 119 17 c 1
 94 7 68 -2 41 -6 c 1
 28 4 l 1
 155 224 278 446 393 673 c 1
EndSplineSet
EndChar

StartChar: Xi
Encoding: 926 926 4
Width: 596
Flags: MW
HStem: -4 19 133 20<53 53> 330 69 523 21<27 27> 618 77
VStem: 27 542<147 152 147 523>
LayerCount: 2
Fore
SplineSet
548 686 m 2
 569 525 l 1
 535 524 l 1
 519 585 l 2
 518 591 515 597 511 602 c 0
 501 612 487 618 474 618 c 2
 128 618 l 2
 118 618 107 616 98 611 c 0
 89 606 81 599 77 589 c 2
 54 525 l 1
 27 523 l 1
 34 580 35 638 40 695 c 1
 128 690 216 686 304 686 c 0
 385 686 547 686 548 686 c 2
122 329 m 1
 139 399 l 1
 240 395 340 397 441 402 c 1
 426 330 l 1
 325 332 223 334 122 329 c 1
569 147 m 1
 554 -6 l 2
 553 -6 210 -2 38 0 c 0
 38 1 31 101 27 152 c 1
 53 153 l 1
 69 96 l 2
 70 92 77 84 82 79 c 0
 88 74 96 72 104 72 c 2
 405 72 l 1
 505 72 l 2
 517 72 525 81 528 92 c 0
 528 93 539 129 544 147 c 1
 569 147 l 1
EndSplineSet
EndChar

StartChar: Pi
Encoding: 928 928 5
Width: 722
Flags: MW
HStem: -14 21<529 529> 640 48
VStem: 111 84 518 82
LayerCount: 2
Fore
SplineSet
693 658 m 1
 617 641 l 2
 612 640 608 638 604 635 c 1
 601 631 600 621 600 614 c 0
 597 584 597 480 597 412 c 0
 597 277 599 143 609 8 c 1
 529 -14 l 1
 515 -3 l 1
 518 95 518 192 518 290 c 0
 518 398 517 505 516 613 c 0
 516 614 512 625 510 631 c 1
 506 634 499 640 498 640 c 2
 214 640 l 2
 213 640 207 639 204 639 c 1
 203 634 200 627 200 626 c 0
 193 525 193 424 193 322 c 0
 193 240 196 118 198 15 c 1
 113 -4 l 1
 106 2 l 1
 111 106 114 210 114 314 c 0
 114 387 115 461 114 534 c 0
 114 560 113 585 108 611 c 0
 107 618 105 628 101 632 c 0
 97 636 90 639 84 642 c 0
 82 642 46 654 26 660 c 1
 26 690 l 1
 101 685 176 681 251 681 c 2
 449 681 l 2
 493 681 612 684 693 686 c 1
 693 658 l 1
EndSplineSet
EndChar

StartChar: Sigma
Encoding: 931 931 6
Width: 646
Flags: MW
HStem: 4 90 633 62
VStem: 49 551<2 94>
LayerCount: 2
Fore
SplineSet
340 362 m 2
 158 96 l 1
 251 94 343 94 436 94 c 0
 490 94 544 96 597 104 c 1
 600 94 l 1
 585 5 l 1
 496 8 408 9 319 9 c 0
 229 9 139 2 49 2 c 1
 49 3 54 30 58 49 c 1
 223 265 l 2
 242 291 267 323 267 349 c 0
 267 374 253 396 239 416 c 2
 87 641 l 1
 155 688 l 1
 293 685 431 688 569 695 c 1
 573 684 l 1
 551 631 l 1
 213 635 l 1
 212 618 l 1
 346 400 l 2
 349 395 351 390 351 384 c 0
 351 378 344 369 340 362 c 2
EndSplineSet
EndChar

StartChar: Upsilon
Encoding: 933 933 7
Width: 716
Flags: MW
HStem: -11 21<318 318> 626 76
VStem: 20 23 302 83 662 23
LayerCount: 2
Fore
SplineSet
685 546 m 1
 663 543 l 1
 659 569 650 594 632 613 c 1
 620 624 603 626 587 626 c 0
 559 626 535 609 515 589 c 0
 451 525 412 440 395 351 c 0
 385 299 385 134 385 25 c 1
 318 -11 l 1
 301 -4 l 1
 305 71 305 146 305 221 c 0
 305 297 298 373 278 446 c 0
 263 499 241 552 202 591 c 0
 181 612 155 628 125 628 c 0
 107 628 88 624 75 610 c 0
 58 593 46 571 39 548 c 1
 20 555 l 1
 28 599 39 644 71 676 c 0
 93 698 125 705 155 705 c 0
 193 705 228 689 254 663 c 0
 283 634 299 595 311 556 c 0
 330 497 340 436 346 375 c 1
 355 373 l 1
 365 431 379 488 401 543 c 0
 417 584 438 623 470 654 c 1
 498 683 538 697 579 697 c 0
 605 697 632 688 651 669 c 0
 664 656 671 639 676 621 c 0
 683 597 685 572 685 546 c 1
EndSplineSet
EndChar

StartChar: Phi
Encoding: 934 934 8
Width: 833
Flags: MW
HStem: 2 26 86 28<342.5 365 342.5 365 451 473> 573 28<338 365 451 475.5> 655 31
VStem: 73 92<311.5 364.5> 365 86<80.5 86 114 573 601 620 620 621> 656 92<335.5 368.5>
LayerCount: 2
Fore
SplineSet
279 684 m 1
 538 686 l 1
 538 661 l 1
 475 651 l 2
 460 649 451 635 451 621 c 0
 451 614 451 608 451 601 c 1
 500 601 549 596 597 582 c 0
 633 571 669 554 696 527 c 0
 736 487 748 429 748 373 c 0
 748 298 728 221 675 168 c 0
 649 142 616 124 581 113 c 0
 538 99 495 86 451 86 c 1
 451 64 465 43 488 38 c 2
 547 26 l 1
 547 2 l 1
 279 2 l 1
 279 9 279 22 279 23 c 0
 282 27 288 29 294 30 c 0
 309 34 325 36 341 38 c 0
 349 40 354 47 358 54 c 0
 363 64 365 75 365 86 c 1
 281 86 194 105 134 166 c 1
 90 209 73 271 73 332 c 0
 73 397 90 464 137 512 c 0
 197 572 280 601 365 601 c 1
 365 620 l 2
 365 634 355 646 342 648 c 2
 279 657 l 1
 279 684 l 1
451 573 m 1
 451 114 l 1
 504 114 557 132 595 170 c 0
 643 218 656 286 656 352 c 0
 656 385 654 419 645 451 c 0
 639 474 630 497 613 514 c 0
 570 557 510 573 451 573 c 1
365 114 m 1
 365 573 l 1
 311 573 260 549 222 511 c 0
 179 468 165 407 165 347 c 0
 165 276 192 208 242 158 c 0
 274 126 320 114 365 114 c 1
EndSplineSet
EndChar

StartChar: Psi
Encoding: 936 936 9
Width: 703
Flags: MW
HStem: -1 31 248 27<313 332> 634 60
VStem: 83 75 335 75 579 75
LayerCount: 2
Fore
SplineSet
409 251 m 1
 411 86 l 2
 412 65 421 42 444 38 c 2
 502 26 l 1
 501 -1 l 1
 235 -1 l 1
 235 26 l 1
 303 38 l 2
 314 40 321 50 323 61 c 0
 325 76 332 89 332 104 c 0
 332 152 332 200 332 248 c 1
 294 248 257 251 221 261 c 0
 194 269 168 279 149 299 c 1
 129 318 120 345 113 372 c 0
 101 413 95 456 92 499 c 0
 89 532 84 587 82 598 c 0
 80 611 78 624 69 633 c 0
 62 640 52 645 42 644 c 2
 -21 634 l 1
 -28 656 l 1
 80 692 l 2
 83 694 103 694 115 694 c 0
 127 694 137 685 146 676 c 0
 158 664 158 623 158 595 c 0
 158 537 162 479 175 422 c 1
 185 384 198 346 226 318 c 0
 254 290 292 275 332 275 c 1
 332 305 332 335 332 365 c 0
 332 465 332 585 326 667 c 1
 412 690 l 1
 416 682 l 1
 409 607 403 533 403 458 c 0
 403 397 404 336 406 276 c 1
 446 276 482 297 510 325 c 0
 528 343 536 369 544 394 c 0
 558 436 566 479 572 523 c 0
 579 567 579 612 591 655 c 1
 625 667 660 675 695 679 c 1
 698 661 l 1
 674 646 663 617 656 590 c 0
 651 572 643 522 637 488 c 0
 631 448 623 408 609 370 c 0
 601 346 592 322 574 304 c 0
 531 261 469 251 409 251 c 1
EndSplineSet
EndChar

StartChar: Omega
Encoding: 937 937 10
Width: 875
Flags: MW
HStem: -2 67 651 38
VStem: 98 88<316.5 355 288.5 385.5> 679 90<344 410>
LayerCount: 2
Fore
SplineSet
835 60 m 1
 844 51 l 1
 819 -2 l 1
 704 7 588 7 473 -1 c 1
 482 57 l 1
 529 68 572 93 606 127 c 0
 633 153 649 188 660 224 c 0
 674 271 679 320 679 368 c 0
 679 452 657 537 597 597 c 0
 557 637 500 654 444 654 c 0
 382 654 318 637 274 592 c 1
 243 562 223 523 209 482 c 0
 193 433 186 381 186 329 c 0
 186 248 207 165 265 106 c 0
 294 77 334 61 375 53 c 1
 354 -2 l 1
 244 8 135 12 25 4 c 1
 42 65 l 1
 113 62 203 58 256 52 c 1
 260 58 l 1
 226 74 194 93 167 120 c 0
 143 145 127 176 116 210 c 0
 103 251 98 295 98 338 c 0
 98 433 126 528 194 595 c 1
 264 666 365 689 463 689 c 0
 507 689 552 684 594 670 c 0
 629 658 662 641 688 615 c 0
 748 555 769 469 769 385 c 0
 769 292 746 196 679 129 c 0
 648 99 614 71 573 59 c 1
 572 50 l 1
 660 55 762 60 835 60 c 1
EndSplineSet
EndChar

StartChar: alpha
Encoding: 945 945 11
Width: 658
Flags: MW
HStem: -16 66 411 57<254 330>
VStem: 84 66<191.5 211.5>
LayerCount: 2
Fore
SplineSet
401 218 m 1
 384 274 359 354 334 379 c 0
 316 398 292 411 266 411 c 0
 242 411 219 400 202 383 c 0
 183 364 171 340 163 315 c 0
 153 283 150 249 150 216 c 0
 150 167 157 116 192 81 c 0
 204 69 220 62 236 62 c 0
 249 62 261 68 273 74 c 0
 289 83 302 95 315 108 c 0
 340 133 374 180 401 218 c 1
558 468 m 1
 609 445 l 1
 563 376 471 238 471 237 c 0
 481 199 493 161 508 125 c 1
 518 104 527 81 544 64 c 0
 551 57 559 50 569 50 c 0
 597 50 635 80 663 102 c 1
 673 76 l 1
 639 49 590 12 570 -1 c 0
 555 -10 540 -20 522 -20 c 0
 509 -20 496 -15 486 -5 c 0
 478 3 471 12 468 24 c 1
 418 169 l 1
 394 140 370 111 346 82 c 0
 340 75 335 68 328 62 c 0
 307 41 283 21 257 7 c 0
 236 -4 214 -12 190 -12 c 0
 169 -12 150 -3 136 12 c 0
 95 53 84 112 84 169 c 0
 84 254 107 340 168 401 c 0
 208 441 260 468 316 468 c 0
 344 468 370 458 389 439 c 0
 405 423 417 403 426 383 c 0
 440 355 450 326 457 296 c 1
 458 296 l 1
 459 297 525 411 558 468 c 1
EndSplineSet
EndChar

StartChar: beta
Encoding: 946 946 12
Width: 662
Flags: MW
HStem: -202 21<125 125> -15 36<354 358> 350 36<256 283> 649 49<340.5 356>
VStem: 113 80 484 85<174 215.5>
LayerCount: 2
Fore
SplineSet
365 386 m 1
 363 380 l 1
 418 380 476 370 515 331 c 0
 549 296 569 250 569 202 c 0
 569 146 548 91 508 51 c 0
 460 3 392 -15 324 -15 c 0
 294 -15 265 -6 244 15 c 0
 238 21 234 27 230 34 c 1
 279 103 l 1
 292 97 l 1
 290 77 297 58 311 44 c 0
 325 30 344 21 364 21 c 0
 393 21 418 37 437 56 c 0
 473 92 484 144 484 194 c 0
 484 237 471 281 441 312 c 0
 409 344 363 352 319 352 c 0
 298 352 277 352 256 350 c 1
 258 386 l 1
 308 386 357 401 392 436 c 0
 420 463 427 502 427 540 c 0
 427 596 386 649 326 649 c 0
 297 649 266 642 245 621 c 0
 224 600 215 572 208 545 c 0
 198 503 194 460 193 416 c 0
 192 385 192 278 192 208 c 0
 192 82 194 -44 201 -169 c 1
 125 -202 l 1
 113 -187 l 1
 118 3 113 194 124 384 c 0
 126 435 134 487 152 536 c 1
 165 575 185 612 215 642 c 0
 255 682 312 698 369 698 c 0
 444 698 505 638 505 563 c 0
 505 516 484 473 451 440 c 0
 427 415 398 395 365 386 c 1
EndSplineSet
EndChar

StartChar: gamma
Encoding: 947 947 13
Width: 608
Flags: MW
HStem: -198 21<278 278> 411 58<90 159.5>
VStem: -25 607<358 443>
LayerCount: 2
Fore
SplineSet
522 470 m 1
 582 443 l 1
 496 302 398 169 320 24 c 1
 321 -41 318 -107 312 -172 c 1
 278 -198 l 1
 257 -191 239 -179 222 -165 c 1
 239 -105 269 4 272 14 c 0
 274 19 275 24 276 29 c 0
 276 32 277 35 276 38 c 0
 256 158 226 329 174 382 c 0
 155 400 130 411 104 411 c 0
 76 411 48 402 29 382 c 1
 16 370 3 359 -9 346 c 1
 -25 358 l 1
 -10 381 5 405 23 423 c 0
 55 455 99 469 144 469 c 0
 175 469 206 457 229 434 c 0
 263 400 281 353 294 306 c 0
 311 241 317 172 317 104 c 1
 325 103 l 1
 390 222 472 370 509 465 c 1
 522 470 l 1
EndSplineSet
EndChar

StartChar: delta
Encoding: 948 948 14
Width: 501
Flags: MW
HStem: -9 53<187 269> 646 48<217 318 289.5 318 289.5 372>
VStem: 56 77<134 253> 374 64<216 226>
LayerCount: 2
Fore
SplineSet
388 688 m 1
 372 646 l 1
 325 646 277 646 230 646 c 0
 204 646 170 637 170 605 c 0
 170 591 180 579 189 569 c 0
 193 564 246 514 275 486 c 0
 307 456 339 425 370 395 c 1
 408 356 438 306 438 251 c 0
 438 181 411 113 361 63 c 0
 319 20 264 -9 204 -9 c 0
 170 -9 135 -3 111 21 c 0
 74 58 56 108 56 160 c 0
 56 207 74 252 97 293 c 0
 128 348 169 397 214 442 c 1
 189 465 166 488 146 514 c 1
 135 530 122 546 122 565 c 0
 122 578 127 590 133 602 c 0
 141 618 152 633 164 646 c 0
 179 664 199 674 220 681 c 0
 247 690 275 694 304 694 c 0
 332 694 360 689 388 688 c 1
243 418 m 1
 182 365 133 294 133 212 c 0
 133 159 150 107 187 69 c 1
 205 52 229 44 254 44 c 0
 284 44 308 64 329 85 c 0
 361 117 374 164 374 209 c 0
 374 243 357 273 339 301 c 0
 313 344 279 382 243 418 c 1
EndSplineSet
EndChar

StartChar: epsilon.alt
Encoding: 1114112 -1 15
Width: 550
Flags: MW
HStem: -11 58<265 355.5> 217 39<242.5 279> 428 43<305.5 320>
VStem: 88 82
LayerCount: 2
Fore
SplineSet
279 256 m 2
 398 258 l 1
 384 216 l 1
 354 217 290 217 243 217 c 0
 242 217 194 215 169 214 c 1
 169 163 188 112 224 76 c 0
 235 65 250 59 265 55 c 0
 286 49 307 47 329 47 c 0
 382 47 435 64 475 100 c 1
 490 75 l 1
 458 50 423 27 385 11 c 0
 355 -1 324 -11 291 -11 c 0
 239 -11 185 1 147 38 c 1
 104 82 88 143 88 203 c 0
 88 278 116 350 169 402 c 0
 214 447 274 471 337 471 c 0
 389 471 438 449 475 412 c 1
 438 359 l 1
 425 357 l 1
 415 371 401 391 393 398 c 0
 370 421 336 428 304 428 c 0
 270 428 238 415 214 391 c 0
 179 356 171 305 171 257 c 1
 207 257 278 256 279 256 c 2
EndSplineSet
EndChar

StartChar: zeta
Encoding: 950 950 16
Width: 512
Flags: MW
HStem: -136 21<419 419> 1 46 620 27<341 358> 675 20<224 224>
VStem: 84 77<186 207> 432 59<-52 11.5>
LayerCount: 2
Fore
SplineSet
419 -136 m 1
 398 -124 l 1
 413 -97 432 -65 432 -39 c 0
 432 -28 425 -18 417 -11 c 1
 408 -1 394 1 381 1 c 0
 363 1 345 1 327 -1 c 0
 300 -5 256 -10 246 -10 c 0
 206 -10 164 -4 135 25 c 0
 96 64 84 120 84 174 c 0
 84 240 108 303 139 362 c 0
 180 438 235 505 296 566 c 0
 316 585 336 603 358 620 c 1
 324 620 290 621 256 628 c 0
 232 632 209 638 189 651 c 1
 224 695 l 1
 266 666 314 647 365 647 c 0
 398 647 431 650 464 655 c 1
 464 636 l 1
 410 619 361 587 321 546 c 1
 230 456 161 340 161 210 c 0
 161 162 177 114 211 79 c 0
 237 53 274 47 310 47 c 0
 328 47 348 47 363 49 c 1
 379 50 402 53 411 53 c 0
 425 53 439 52 452 49 c 0
 462 46 471 43 478 36 c 0
 486 28 491 17 491 6 c 0
 491 -16 482 -37 472 -56 c 0
 458 -85 439 -111 419 -136 c 1
EndSplineSet
EndChar

StartChar: eta
Encoding: 951 951 17
Width: 560
Flags: MW
HStem: -199 21<397 397> -11 21<101 101> 402 61
VStem: 92 75<-1 393 278 393> 397 67
LayerCount: 2
Fore
SplineSet
397 -199 m 1
 388 -188 l 1
 389 -161 389 20 389 125 c 0
 389 188 389 283 386 315 c 0
 384 340 381 366 363 384 c 0
 347 399 325 402 304 402 c 0
 282 402 262 396 242 387 c 0
 216 376 192 361 168 344 c 1
 166 320 166 237 166 184 c 0
 166 138 170 71 173 14 c 1
 101 -11 l 1
 92 -1 l 1
 92 17 92 222 92 334 c 0
 92 356 92 384 78 398 c 0
 71 405 62 408 53 408 c 0
 34 408 6 389 -16 375 c 1
 -32 393 l 1
 -9 412 15 430 42 445 c 0
 59 454 78 463 98 463 c 0
 117 463 137 458 151 444 c 0
 164 431 166 412 167 393 c 1
 178 391 l 1
 211 413 246 432 283 447 c 0
 311 458 340 466 369 466 c 0
 394 466 419 460 436 442 c 1
 453 426 456 401 459 378 c 0
 462 345 462 262 462 204 c 0
 462 81 464 -42 479 -164 c 1
 397 -199 l 1
EndSplineSet
EndChar

StartChar: theta
Encoding: 952 952 18
Width: 554
Flags: MW
HStem: -11 58<213 301.5> 328 42<136 402 134 406 136 136> 648 47<286.5 287>
VStem: 59 77<302.5 328 302.5 355> 406 80<301.5 398>
LayerCount: 2
Fore
SplineSet
231 -11 m 0
 195 -11 160 2 135 27 c 0
 104 58 89 99 79 141 c 1
 63 201 59 263 59 325 c 0
 59 385 66 445 84 503 c 0
 99 549 121 593 156 628 c 0
 199 671 256 695 317 695 c 0
 354 695 390 681 416 655 c 0
 445 626 458 586 468 547 c 0
 482 488 486 428 486 368 c 0
 486 308 480 248 463 191 c 0
 449 147 429 104 396 71 c 0
 351 26 295 -11 231 -11 c 0
134 370 m 1
 402 370 l 1
 398 427 394 483 381 538 c 1
 375 568 368 600 346 622 c 0
 327 641 300 648 274 648 c 0
 245 648 217 635 197 615 c 0
 170 588 155 552 145 516 c 0
 133 468 131 419 134 370 c 1
406 328 m 1
 136 328 l 1
 136 277 140 227 154 179 c 1
 163 144 177 109 203 84 c 0
 226 61 256 47 288 47 c 0
 315 47 337 64 355 83 c 0
 378 106 386 139 393 171 c 0
 404 222 406 275 406 328 c 1
EndSplineSet
EndChar

StartChar: iota
Encoding: 953 953 19
Width: 334
Flags: MW
HStem: -9 73<170.5 242> 454 20<182 182>
VStem: 101 75<182 240 182 449>
LayerCount: 2
Fore
SplineSet
315 113 m 1
 332 95 l 1
 309 66 283 39 253 18 c 0
 232 4 208 -9 182 -9 c 0
 159 -9 138 5 125 24 c 1
 108 46 101 74 101 102 c 0
 101 217 101 333 101 449 c 1
 182 474 l 1
 193 464 l 1
 178 375 176 285 176 195 c 0
 176 169 178 143 183 117 c 0
 187 101 191 85 203 73 c 0
 211 65 224 64 235 64 c 0
 249 64 261 70 273 77 c 0
 289 87 302 99 315 113 c 1
EndSplineSet
EndChar

StartChar: kappa
Encoding: 954 954 20
Width: 555
Flags: MW
HStem: -4 21<131 131> 452 20<453 453>
VStem: 116 75
LayerCount: 2
Fore
SplineSet
504 441 m 1
 503 426 l 1
 414 388 335 331 258 272 c 0
 257 270 256 267 256 266 c 0
 256 265 260 259 261 255 c 1
 341 180 427 112 516 48 c 1
 515 34 l 1
 448 -2 l 1
 363 70 273 146 197 216 c 1
 188 212 l 1
 188 151 191 85 194 22 c 1
 131 -4 l 1
 115 1 l 1
 117 147 118 293 112 439 c 1
 191 465 l 1
 196 459 l 1
 194 391 189 256 189 255 c 1
 266 340 356 410 453 472 c 1
 504 441 l 1
EndSplineSet
EndChar

StartChar: lambda
Encoding: 955 955 21
Width: 541
Flags: MW
HStem: -11 21<436 436> 644 45
VStem: 21 489<7 26>
LayerCount: 2
Fore
SplineSet
422 -4 m 1
 276 380 l 2
 275 383 272 386 268 386 c 0
 264 385 262 382 261 379 c 0
 219 290 135 111 135 110 c 0
 123 85 109 44 98 11 c 1
 39 -6 l 1
 21 7 l 1
 239 416 l 2
 247 431 245 449 241 465 c 0
 231 498 220 532 205 564 c 0
 195 585 184 606 167 623 c 0
 155 636 140 646 122 646 c 0
 107 646 75 639 52 634 c 1
 44 659 l 1
 88 675 134 689 181 689 c 0
 202 689 224 686 239 671 c 0
 321 589 321 463 362 356 c 1
 407 244 456 134 510 26 c 1
 509 15 l 1
 436 -11 l 1
 422 -4 l 1
EndSplineSet
EndChar

StartChar: mu
Encoding: 956 956 22
Width: 617
Flags: MW
HStem: -199 21<124 124> -6 63<208.5 291.5> 446 17
VStem: 116 72<165.5 231 231 272 240.5 272> 412 76
LayerCount: 2
Fore
SplineSet
485 466 m 1
 493 455 l 1
 490 414 487 363 487 332 c 0
 487 276 487 220 487 165 c 0
 487 147 489 129 493 111 c 1
 497 99 501 86 511 77 c 0
 518 70 529 66 539 66 c 0
 564 66 595 86 621 102 c 1
 635 83 l 1
 610 60 583 37 552 21 c 1
 531 9 508 -1 483 -1 c 0
 466 -1 447 0 435 12 c 0
 422 25 418 45 415 64 c 1
 413 66 412 68 409 69 c 0
 407 70 405 72 403 71 c 0
 345 38 266 -6 221 -6 c 0
 196 -6 175 9 160 28 c 1
 160 -41 160 -113 174 -179 c 1
 124 -199 l 1
 112 -193 l 1
 114 -101 116 -9 116 83 c 0
 116 146 116 209 116 272 c 1
 110 327 96 435 96 436 c 2
 179 462 l 1
 188 455 l 1
 188 366 188 276 188 186 c 0
 188 145 193 102 223 72 c 0
 238 57 261 57 281 57 c 0
 302 57 323 64 341 74 c 1
 366 86 388 102 409 120 c 1
 410 168 412 241 412 262 c 0
 412 320 410 377 408 434 c 1
 485 466 l 1
EndSplineSet
EndChar

StartChar: nu
Encoding: 957 957 23
Width: 599
Flags: MW
HStem: -8 21<303 303> 409 59
VStem: -31 592<357 444>
LayerCount: 2
Fore
SplineSet
561 444 m 1
 425 170 l 2
 401 122 379 74 359 24 c 1
 303 -8 l 1
 296 -1 l 1
 284 80 268 161 241 238 c 0
 223 290 202 342 163 381 c 0
 147 396 127 410 105 410 c 0
 73 410 44 394 22 372 c 0
 12 362 3 351 -6 339 c 1
 -31 357 l 1
 -18 376 1 404 10 413 c 0
 47 450 98 469 150 469 c 0
 180 469 209 460 230 439 c 0
 285 384 322 220 348 101 c 1
 374 153 399 206 420 260 c 0
 444 321 461 391 478 458 c 1
 501 468 l 1
 558 452 l 1
 561 444 l 1
EndSplineSet
EndChar

StartChar: xi
Encoding: 958 958 24
Width: 553
Flags: MW
HStem: -137 21<471 471> 8 48 335 24 620 29<305 306> 674 20<182 190 190 190>
VStem: 74 86 484 61<-55 12>
LayerCount: 2
Fore
SplineSet
471 -137 m 1
 450 -122 l 1
 465 -97 484 -67 484 -43 c 0
 484 -30 477 -18 468 -9 c 0
 452 7 427 8 405 8 c 0
 383 8 350 5 323 2 c 0
 288 -2 225 -8 219 -8 c 0
 182 -8 143 -1 116 26 c 0
 89 53 74 89 74 126 c 0
 74 180 98 230 135 267 c 0
 173 305 221 330 270 343 c 1
 270 344 l 1
 236 351 199 362 172 388 c 0
 156 404 151 428 151 451 c 0
 151 486 163 522 189 547 c 1
 222 581 263 606 306 619 c 1
 306 620 l 1
 256 620 201 623 154 648 c 1
 182 694 l 1
 190 694 l 1
 229 662 280 649 330 649 c 0
 361 649 396 654 428 660 c 1
 428 632 l 1
 368 625 305 610 262 566 c 0
 239 543 229 510 229 478 c 0
 229 452 235 425 254 406 c 0
 269 392 288 382 308 375 c 0
 334 366 361 361 389 358 c 1
 389 335 l 1
 322 335 252 320 204 272 c 0
 173 241 159 198 159 155 c 0
 159 125 170 97 191 76 c 0
 218 49 258 46 295 48 c 0
 350 52 422 58 458 58 c 0
 485 58 514 54 534 34 c 0
 542 27 545 17 545 7 c 0
 545 -14 536 -34 526 -53 c 0
 511 -83 491 -110 471 -137 c 1
EndSplineSet
EndChar

StartChar: pi
Encoding: 960 960 25
Width: 609
Flags: MW
HStem: -5 71 394 66<145.5 509 186 233 269 420 269 269 478 498> 480 8
VStem: 402 71
LayerCount: 2
Fore
SplineSet
186 460 m 2
 509 460 l 2
 548 460 586 470 620 488 c 1
 628 481 l 1
 593 422 l 1
 557 405 518 394 478 394 c 1
 475 356 471 318 471 282 c 0
 471 209 471 106 505 73 c 0
 512 66 524 66 534 66 c 0
 553 66 570 74 585 85 c 1
 599 60 l 1
 580 43 560 27 537 15 c 0
 521 7 504 0 486 0 c 0
 467 0 445 0 433 12 c 0
 419 25 414 44 410 62 c 0
 403 90 402 119 402 147 c 0
 402 230 409 312 420 394 c 1
 269 394 l 1
 242 264 197 133 153 5 c 1
 142 -5 l 1
 87 10 l 1
 86 23 l 1
 153 139 200 264 233 394 c 1
 208 394 183 394 158 394 c 0
 133 394 107 394 89 376 c 0
 75 362 67 343 60 325 c 2
 42 279 l 1
 21 288 l 1
 49 401 l 2
 53 414 60 427 70 436 c 0
 81 447 96 451 111 454 c 0
 136 459 161 460 186 460 c 2
EndSplineSet
EndChar

StartChar: rho
Encoding: 961 961 26
Width: 548
Flags: MW
HStem: -189 21<123 123> 0 44<278.5 283.5 253.5 324> 435 39
VStem: 94 67<80.5 248> 411 88<215.5 252>
LayerCount: 2
Fore
SplineSet
123 -189 m 1
 106 -181 l 1
 100 -77 94 28 94 133 c 0
 94 194 98 255 113 314 c 0
 123 354 138 395 167 425 c 1
 206 463 261 477 315 477 c 0
 365 477 414 459 450 423 c 0
 469 405 479 380 486 355 c 0
 496 321 499 286 499 251 c 0
 499 180 475 110 424 60 c 1
 391 26 348 0 300 0 c 0
 257 0 217 20 186 51 c 0
 177 60 169 71 162 83 c 1
 155 82 l 1
 158 2 166 -78 186 -156 c 0
 186 -157 182 -165 180 -169 c 1
 123 -189 l 1
161 231 m 0
 161 199 163 167 172 136 c 0
 178 114 186 92 202 76 c 0
 220 59 241 44 266 44 c 0
 301 44 334 59 359 84 c 0
 398 123 411 179 411 234 c 0
 411 270 408 307 399 342 c 1
 394 366 386 390 368 407 c 1
 351 425 328 437 303 437 c 0
 271 437 238 427 215 404 c 0
 195 385 183 359 175 333 c 0
 165 300 161 265 161 231 c 0
EndSplineSet
EndChar

StartChar: sigma
Encoding: 963 963 27
Width: 605
Flags: MW
HStem: -10 51<279 286.5> 424 39<274 274 274 297>
VStem: 82 83<235.5 252> 410 79<202 234>
LayerCount: 2
Fore
SplineSet
274 463 m 2
 605 476 l 1
 608 466 l 1
 592 402 l 1
 527 416 456 424 388 432 c 1
 386 418 l 1
 403 410 420 401 433 388 c 0
 475 346 489 287 489 228 c 0
 489 169 475 108 432 65 c 0
 385 18 320 -10 253 -10 c 0
 208 -10 168 15 136 47 c 0
 117 67 104 92 96 118 c 0
 86 151 82 186 82 221 c 0
 82 283 94 348 138 393 c 0
 175 430 221 461 274 463 c 2
283 424 m 0
 255 424 230 413 210 394 c 1
 174 357 165 304 165 253 c 0
 165 218 168 184 179 150 c 0
 187 124 199 99 218 80 c 0
 239 59 264 41 294 41 c 0
 325 41 351 57 372 78 c 0
 387 93 395 112 400 132 c 0
 407 160 410 188 410 216 c 0
 410 252 407 289 397 324 c 0
 390 349 379 375 360 394 c 0
 340 414 311 424 283 424 c 0
EndSplineSet
EndChar

StartChar: tau
Encoding: 964 964 28
Width: 513
Flags: MW
HStem: -9 66<301 376.5> 398 63<151 179.5 165 251 308 393 308 322.5> 477 7
VStem: 235 70<128 254>
LayerCount: 2
Fore
SplineSet
142 461 m 2
 396 461 l 2
 434 461 472 468 506 484 c 1
 519 475 l 1
 476 408 l 1
 449 402 421 398 393 398 c 0
 365 398 337 398 308 398 c 1
 305 369 305 283 305 225 c 0
 305 192 306 159 313 126 c 1
 316 107 320 86 334 72 c 0
 343 64 354 57 366 57 c 0
 387 57 406 69 423 79 c 1
 431 54 l 1
 411 36 390 20 367 8 c 0
 349 -2 330 -9 310 -9 c 0
 292 -9 276 0 263 13 c 0
 251 25 246 43 243 60 c 0
 237 87 235 114 235 142 c 0
 235 227 243 313 251 398 c 1
 222 398 194 398 165 398 c 0
 137 398 107 396 87 376 c 0
 74 362 56 311 43 277 c 1
 15 281 l 1
 25 335 38 410 63 436 c 1
 84 456 113 461 142 461 c 2
EndSplineSet
EndChar

StartChar: upsilon
Encoding: 965 965 29
Width: 587
Flags: MW
HStem: -12 63<207.5 301.5> 414 58<62 133.5>
VStem: 113 76 444 75<255.5 280>
LayerCount: 2
Fore
SplineSet
387 398 m 1
 383 416 l 1
 425 467 l 1
 445 471 l 1
 490 423 519 362 519 296 c 0
 519 215 483 139 426 82 c 0
 371 27 300 -12 221 -12 c 0
 194 -12 166 -5 147 15 c 0
 120 42 113 81 113 119 c 2
 113 330 l 2
 113 353 113 386 101 398 c 0
 93 405 85 414 75 414 c 0
 49 414 25 396 4 379 c 1
 -12 401 l 1
 11 422 35 440 62 454 c 0
 81 464 102 472 125 472 c 0
 142 472 159 466 171 454 c 0
 179 446 183 435 186 424 c 0
 190 408 191 392 191 376 c 0
 191 339 188 302 187 266 c 0
 186 240 186 209 186 181 c 0
 186 160 188 139 193 119 c 0
 197 104 203 90 214 79 c 0
 231 62 255 51 280 51 c 0
 323 51 362 73 392 104 c 0
 431 143 444 199 444 253 c 0
 444 307 426 360 387 398 c 1
EndSplineSet
EndChar

StartChar: phi
Encoding: 966 966 30
Width: 727
Flags: MW
HStem: -192 21<335 335> -2 33 439 32 674 20<395 395>
VStem: 66 83<211 248> 323 68 577 82<231 286.5>
LayerCount: 2
Fore
SplineSet
403 -156 m 1
 335 -192 l 1
 318 -182 l 1
 319 -123 323 -63 323 -4 c 1
 282 -4 240 0 200 13 c 1
 169 22 139 37 115 60 c 1
 76 100 66 158 66 212 c 0
 66 284 90 354 140 405 c 0
 161 426 187 439 214 449 c 0
 249 462 286 469 323 473 c 1
 323 533 321 593 317 652 c 1
 395 694 l 1
 402 686 l 1
 397 616 394 544 394 473 c 1
 438 470 482 465 525 453 c 0
 552 446 579 438 599 418 c 0
 641 376 659 318 659 259 c 0
 659 192 638 124 590 75 c 0
 538 23 465 2 392 2 c 1
 392 -51 396 -104 403 -156 c 1
392 33 m 1
 442 33 486 60 520 95 c 0
 564 139 577 201 577 261 c 0
 577 312 566 364 530 401 c 0
 494 437 442 443 392 443 c 1
 392 306 392 170 392 33 c 1
323 443 m 1
 279 443 234 430 202 398 c 0
 161 357 149 298 149 242 c 0
 149 180 165 118 209 75 c 0
 240 44 280 26 323 26 c 1
 323 165 323 304 323 443 c 1
EndSplineSet
EndChar

StartChar: chi
Encoding: 967 967 31
Width: 576
Flags: MW
HStem: -197 65<417 499> 411 53
VStem: -10 574<-140 401>
LayerCount: 2
Fore
SplineSet
282 198 m 2
 475 456 l 1
 495 460 l 1
 528 428 l 1
 529 421 l 1
 469 352 409 284 350 215 c 0
 334 196 317 177 302 156 c 1
 345 61 403 -71 451 -118 c 0
 460 -128 474 -132 487 -132 c 0
 511 -132 535 -128 556 -117 c 1
 564 -140 l 1
 537 -156 510 -171 481 -182 c 1
 463 -190 445 -197 426 -197 c 0
 408 -197 394 -185 381 -173 c 1
 360 -151 347 -124 334 -97 c 0
 313 -54 279 28 252 92 c 1
 217 39 183 -15 151 -69 c 0
 129 -107 108 -145 92 -185 c 1
 75 -191 l 1
 25 -161 l 1
 93 -61 162 38 236 134 c 0
 236 135 164 277 128 349 c 0
 120 366 111 383 98 396 c 0
 90 404 80 411 69 411 c 0
 44 411 24 395 5 380 c 1
 -10 401 l 1
 45 443 l 2
 64 458 89 466 114 466 c 0
 129 466 144 460 154 449 c 0
 169 434 179 417 188 398 c 0
 219 331 282 199 282 198 c 2
EndSplineSet
EndChar

StartChar: psi
Encoding: 968 968 32
Width: 754
Flags: MW
HStem: -189 21<365 365> 2 33<359 359 428 428> 413 57 675 20<423 423>
VStem: 118 76 359 69<-24 2 35 357 303.5 396> 613 71<250 294>
LayerCount: 2
Fore
SplineSet
355 -182 m 1
 359 2 l 1
 316 2 274 4 233 13 c 0
 207 18 181 25 162 43 c 1
 129 77 118 125 118 172 c 2
 118 325 l 2
 118 341 116 358 112 374 c 0
 109 385 105 397 97 405 c 0
 91 411 83 415 74 415 c 0
 55 415 30 398 10 385 c 1
 -10 404 l 1
 14 423 39 441 66 454 c 0
 86 464 106 472 128 472 c 0
 144 472 161 468 173 456 c 0
 198 431 194 339 191 277 c 0
 189 236 190 195 199 156 c 0
 206 128 216 99 236 79 c 0
 249 66 266 58 284 52 c 0
 308 43 333 38 359 35 c 1
 359 142 359 250 359 357 c 0
 359 453 353 561 347 662 c 1
 423 695 l 1
 430 688 l 1
 428 658 428 494 428 396 c 0
 428 276 428 155 428 35 c 1
 451 35 472 43 491 54 c 0
 518 69 541 89 563 111 c 0
 603 152 613 211 613 267 c 0
 613 321 586 370 550 409 c 1
 553 422 l 1
 597 470 l 1
 618 467 l 1
 659 416 684 352 684 286 c 0
 684 214 654 146 603 95 c 0
 555 47 493 19 428 2 c 1
 428 -50 430 -102 437 -154 c 1
 365 -189 l 1
 355 -182 l 1
EndSplineSet
EndChar

StartChar: omega
Encoding: 969 969 33
Width: 851
Flags: MW
HStem: -3 66 452 17
VStem: 67 82<217.5 220> 395 72<249 296.5 245.5 438> 714 67<261 274.5>
LayerCount: 2
Fore
SplineSet
649 421 m 1
 691 469 l 1
 705 472 l 1
 756 432 781 370 781 306 c 0
 781 216 745 129 681 65 c 0
 640 25 588 -4 530 -4 c 0
 499 -4 468 2 446 24 c 0
 431 39 417 71 405 96 c 1
 375 66 343 37 306 15 c 0
 281 0 254 -13 225 -13 c 0
 188 -13 152 -1 126 25 c 0
 86 64 67 120 67 176 c 0
 67 264 90 354 154 418 c 0
 177 441 209 455 241 466 c 1
 257 452 l 1
 244 442 229 431 218 420 c 0
 169 371 149 301 149 232 c 0
 149 203 152 173 160 145 c 0
 167 123 176 101 193 85 c 0
 213 65 240 50 269 50 c 0
 303 50 334 68 358 92 c 0
 374 108 380 129 385 151 c 0
 393 183 395 216 395 249 c 0
 395 312 395 375 395 438 c 1
 470 466 l 1
 476 459 l 1
 467 400 467 329 467 264 c 0
 467 227 470 189 480 154 c 0
 487 128 496 102 515 84 c 0
 531 68 553 63 575 63 c 0
 611 63 642 83 667 108 c 0
 703 143 714 194 714 244 c 0
 714 305 694 368 646 409 c 1
 649 421 l 1
EndSplineSet
EndChar

StartChar: epsilon
Encoding: 949 949 34
Width: 486
Flags: MW
HStem: -15 53<263 265.5> 232 44<244.5 249> 430 41<264.5 268.5>
VStem: 82 66<93.5 160>
LayerCount: 2
Fore
SplineSet
392 430 m 1
 362 365 l 1
 351 366 l 1
 346 380 338 392 328 402 c 0
 308 421 282 430 255 430 c 0
 229 430 204 419 185 400 c 0
 173 388 165 371 165 353 c 0
 165 332 170 311 185 295 c 1
 204 277 232 276 257 276 c 0
 258 276 291 275 308 274 c 1
 287 227 l 1
 272 231 257 232 241 232 c 0
 213 232 186 222 166 202 c 0
 152 189 148 169 148 151 c 0
 148 118 164 89 186 66 c 1
 211 42 246 38 280 38 c 0
 302 38 323 45 344 54 c 0
 370 66 394 83 417 101 c 1
 430 82 l 1
 377 25 305 -15 226 -15 c 0
 186 -15 145 -4 116 25 c 0
 93 48 82 78 82 109 c 0
 82 142 89 176 112 199 c 0
 129 215 148 229 169 238 c 1
 144 259 126 289 126 322 c 0
 126 360 138 398 165 425 c 0
 197 457 242 471 287 471 c 0
 326 471 361 452 392 430 c 1
EndSplineSet
EndChar

StartChar: theta1
Encoding: 977 977 35
Width: 552
Flags: MW
HStem: -14 48<239 242> 312 60<55 133.5> 659 39<259 260>
VStem: 110 67<137.5 147 147 228 228 240.5> 395 65<365 391.5>
LayerCount: 2
Fore
SplineSet
395 365 m 1
 395 418 389 471 373 521 c 0
 360 562 341 601 310 631 c 1
 294 648 272 659 248 659 c 0
 230 659 211 655 197 642 c 0
 180 625 171 601 171 577 c 0
 171 522 198 471 236 432 c 0
 278 390 336 369 395 365 c 1
110 114 m 2
 110 228 l 2
 110 253 110 283 94 299 c 0
 87 306 77 312 66 312 c 0
 44 312 19 297 -3 284 c 1
 -14 304 l 1
 9 324 33 341 60 354 c 0
 81 364 103 372 126 372 c 0
 141 372 155 365 165 354 c 0
 177 342 177 323 177 306 c 2
 177 147 l 2
 177 128 178 108 183 89 c 0
 186 76 191 63 200 53 c 1
 213 41 230 34 248 34 c 0
 277 34 305 43 326 63 c 1
 354 92 369 130 380 168 c 0
 394 221 399 276 399 331 c 1
 358 334 317 342 279 356 c 0
 248 368 218 384 194 408 c 0
 156 446 130 497 130 551 c 0
 130 590 143 628 171 656 c 0
 200 684 239 698 279 698 c 0
 313 698 345 682 369 658 c 0
 402 625 423 582 436 538 c 0
 454 481 460 421 460 362 c 1
 522 360 l 1
 522 334 l 1
 461 334 l 1
 461 280 454 227 437 176 c 0
 422 133 401 93 369 61 c 0
 326 18 272 -14 212 -14 c 0
 184 -14 156 -5 136 15 c 0
 126 25 121 39 117 53 c 0
 111 73 110 93 110 114 c 2
EndSplineSet
EndChar

StartChar: pi1
Encoding: 982 982 36
Width: 875
Flags: MW
HStem: -9 56 477 58<416 430>
VStem: 81 79<197.5 223> 400 86 720 70<259.5 278>
LayerCount: 2
Fore
SplineSet
478 330 m 1
 486 318 l 1
 486 262 486 194 492 151 c 0
 495 127 498 101 516 84 c 0
 535 65 561 56 588 56 c 0
 620 56 650 71 673 93 c 1
 690 111 701 133 708 156 c 0
 717 186 720 218 720 249 c 0
 720 307 707 367 665 409 c 0
 638 437 601 450 565 459 c 0
 512 473 457 477 403 477 c 0
 363 477 322 476 282 471 c 0
 256 468 230 465 206 455 c 0
 161 436 124 404 89 369 c 1
 74 385 l 1
 107 424 147 469 183 491 c 0
 214 510 250 518 285 524 c 0
 337 533 390 535 442 535 c 0
 503 535 563 530 621 514 c 0
 663 503 705 486 736 455 c 0
 775 416 790 360 790 306 c 0
 790 213 752 125 686 60 c 0
 647 21 600 -12 544 -12 c 0
 511 -12 479 -1 455 23 c 0
 436 42 422 65 415 91 c 1
 366 35 300 -8 224 -8 c 0
 190 -8 159 7 135 31 c 0
 92 73 81 135 81 194 c 0
 81 252 109 305 150 346 c 0
 164 360 186 374 205 387 c 1
 215 366 l 1
 177 329 160 277 160 224 c 0
 160 171 169 115 207 77 c 0
 224 61 244 47 268 47 c 0
 299 47 331 55 354 78 c 0
 371 96 382 119 389 142 c 0
 398 173 402 205 402 236 c 0
 402 258 399 280 397 302 c 1
 478 330 l 1
EndSplineSet
EndChar

StartChar: phi1
Encoding: 981 981 37
Width: 763
Flags: MW
HStem: -197 21 -9 35 425 38
VStem: 91 80<233.5 277.5> 324 67<-36 -8 26 240 204.5 265> 602 83<258.5 289.5>
LayerCount: 2
Fore
SplineSet
322 -183 m 1
 324 -8 l 1
 263 -3 203 19 159 63 c 0
 111 112 91 180 91 249 c 0
 91 306 116 359 156 399 c 0
 189 432 230 454 274 467 c 1
 286 445 l 1
 260 433 237 416 217 396 c 0
 183 363 171 315 171 267 c 0
 171 200 185 131 233 82 c 0
 248 67 264 53 282 42 c 0
 295 34 309 27 324 26 c 1
 324 97 324 169 324 240 c 0
 324 303 343 367 388 412 c 0
 424 448 474 464 524 464 c 0
 565 464 606 451 635 422 c 0
 672 384 685 330 685 277 c 0
 685 208 666 139 617 90 c 0
 557 30 475 2 391 -8 c 1
 391 -64 394 -120 399 -176 c 1
 335 -197 l 1
 322 -183 l 1
391 26 m 1
 448 26 502 50 542 91 c 0
 563 112 577 139 586 168 c 0
 598 203 602 240 602 277 c 0
 602 302 600 327 593 351 c 0
 588 369 580 387 567 400 c 0
 550 417 528 425 505 425 c 0
 479 425 452 420 433 401 c 0
 398 365 391 313 391 265 c 0
 391 185 391 105 391 26 c 1
EndSplineSet
EndChar

StartChar: zero
Encoding: 48 48 38
Width: 499
Flags: MW
HStem: -14 64<190.5 267.5> 639 61
VStem: 36 65<342 368> 398 60<325.5 330>
LayerCount: 2
Fore
SplineSet
282 700 m 1
 335 675 376 632 405 582 c 0
 445 513 458 434 458 356 c 0
 458 295 451 234 431 177 c 0
 415 129 390 83 354 46 c 1
 315 8 262 -14 207 -14 c 0
 174 -14 142 -1 118 22 c 0
 87 53 69 94 58 136 c 0
 42 192 36 250 36 308 c 0
 36 428 79 544 164 629 c 0
 197 662 239 683 282 700 c 1
239 639 m 1
 217 628 197 614 181 595 c 0
 129 532 101 452 101 371 c 0
 101 313 106 254 122 199 c 0
 135 156 153 115 184 84 c 0
 203 65 226 50 252 50 c 0
 283 50 313 62 334 84 c 0
 357 107 371 136 381 167 c 0
 393 205 398 245 398 285 c 0
 398 375 368 462 324 540 c 0
 312 562 298 584 282 603 c 0
 269 617 256 630 239 639 c 1
EndSplineSet
Substitution2: "'onum' Oldstyle Figures lookup 0-1" zero.onum
EndChar

StartChar: one
Encoding: 49 49 39
Width: 499
Flags: MW
HStem: -5 21<226 226> 612 29 692 20<308 308>
VStem: 222 86
LayerCount: 2
Fore
SplineSet
308 712 m 1
 314 700 l 1
 309 611 307 521 307 432 c 0
 307 296 307 98 310 22 c 1
 226 -5 l 1
 214 0 l 1
 219 139 222 279 222 419 c 0
 222 468 222 541 221 566 c 0
 220 591 200 612 175 612 c 2
 92 612 l 1
 92 639 l 1
 308 712 l 1
EndSplineSet
Substitution2: "'onum' Oldstyle Figures lookup 0-1" one.onum
EndChar

StartChar: two
Encoding: 50 50 40
Width: 499
Flags: MW
HStem: 2 86<158 449> 648 60<210 295.5>
VStem: 334 92<526.5 527.5>
LayerCount: 2
Fore
SplineSet
474 88 m 1
 449 2 l 1
 12 2 l 1
 12 18 l 1
 69 76 125 135 178 197 c 0
 213 238 248 280 276 326 c 0
 311 382 334 443 334 508 c 0
 334 547 327 587 299 615 c 0
 278 636 250 648 221 648 c 0
 199 648 178 639 159 629 c 0
 131 614 105 595 81 574 c 1
 64 595 l 1
 94 628 128 658 168 679 c 0
 201 697 237 708 275 708 c 0
 316 708 355 693 384 664 c 0
 414 635 426 594 426 553 c 0
 426 500 404 451 378 405 c 0
 353 359 322 317 290 275 c 0
 245 215 197 157 147 99 c 0
 146 98 145 95 146 93 c 0
 148 89 153 88 158 88 c 0
 263 88 369 88 474 88 c 1
EndSplineSet
Substitution2: "'onum' Oldstyle Figures lookup 0-1" two.onum
EndChar

StartChar: three
Encoding: 51 51 41
Width: 499
Flags: MW
HStem: -17 43<188 217.5> 345 31 639 63<199.5 272.5>
VStem: 352 94<185.5 207.5>
LayerCount: 2
Fore
SplineSet
241 382 m 1
 241 374 l 1
 275 371 308 366 341 355 c 0
 364 347 388 336 406 318 c 0
 433 291 446 254 446 215 c 0
 446 156 419 101 377 59 c 0
 325 8 254 -17 181 -17 c 0
 124 -17 70 3 25 38 c 1
 18 49 l 1
 65 130 l 1
 78 107 93 86 111 68 c 0
 136 42 170 26 206 26 c 0
 243 26 279 38 306 65 c 0
 338 97 352 141 352 186 c 0
 352 229 332 269 303 300 c 0
 285 319 260 328 235 334 c 0
 199 343 162 345 125 345 c 1
 126 371 l 1
 156 378 187 386 215 399 c 0
 237 409 258 421 274 437 c 0
 302 465 317 502 317 540 c 0
 317 567 307 592 288 611 c 0
 267 632 238 639 208 639 c 0
 191 639 174 633 157 626 c 0
 132 615 109 601 86 586 c 1
 72 608 l 1
 103 634 137 659 173 678 c 0
 198 691 225 702 253 702 c 0
 292 702 333 694 361 665 c 1
 387 640 399 604 399 568 c 0
 399 523 384 478 352 446 c 0
 321 416 282 394 241 382 c 1
EndSplineSet
Substitution2: "'onum' Oldstyle Figures lookup 0-1" three.onum
EndChar

StartChar: four
Encoding: 52 52 42
Width: 499
Flags: MW
HStem: -5 21<290 290> 191 44<61 66 66 290 -1 -1 367 457 367 382> 684 20<361 361>
VStem: 292 74
LayerCount: 2
Fore
SplineSet
361 704 m 1
 368 698 l 1
 367 671 367 389 367 235 c 1
 402 235 437 235 472 235 c 2
 476 235 l 1
 457 191 l 1
 427 191 397 191 367 191 c 1
 367 137 367 51 370 28 c 1
 290 -5 l 1
 285 1 l 1
 290 37 290 127 290 191 c 1
 -1 191 l 1
 -1 235 l 1
 285 669 l 1
 361 704 l 1
290 235 m 1
 290 352 290 584 290 585 c 0
 290 587 289 590 289 591 c 0
 287 594 282 593 280 591 c 0
 243 552 215 507 187 461 c 0
 142 388 100 312 61 235 c 1
 62 235 64 235 66 235 c 0
 141 235 215 235 290 235 c 1
EndSplineSet
Substitution2: "'onum' Oldstyle Figures lookup 0-1" four.onum
EndChar

StartChar: five
Encoding: 53 53 43
Width: 499
Flags: MW
HStem: -11 40<172 206.5 172 215.5> 395 48<191 282.5> 604 83<134 161>
VStem: 83 42<406 413 413 594> 352 96<217.5 248>
LayerCount: 2
Fore
SplineSet
125 594 m 2
 125 413 l 1
 125 406 l 1
 166 426 211 443 257 443 c 0
 308 443 359 429 395 393 c 0
 433 356 448 303 448 251 c 0
 448 184 425 118 378 71 c 0
 325 18 253 -11 178 -11 c 0
 115 -11 54 15 13 64 c 1
 12 76 l 1
 63 141 l 1
 76 112 90 82 113 59 c 0
 132 40 158 29 186 29 c 0
 227 29 268 42 298 72 c 0
 337 111 352 167 352 223 c 0
 352 273 341 325 305 361 c 0
 281 385 247 395 213 395 c 0
 169 395 128 373 96 342 c 1
 83 353 l 1
 83 687 l 1
 425 687 l 1
 398 609 l 1
 311 607 185 604 137 604 c 0
 131 604 125 600 125 594 c 2
EndSplineSet
Substitution2: "'onum' Oldstyle Figures lookup 0-1" five.onum
EndChar

StartChar: six
Encoding: 54 54 44
Width: 499
Flags: MW
HStem: -13 45<250.5 267> 314 63<233 340> 641 59<353.5 423.5>
VStem: 45 88 392 79<181 192>
LayerCount: 2
Fore
SplineSet
460 691 m 1
 451 634 l 1
 444 629 l 1
 425 637 404 641 384 641 c 0
 323 641 269 609 224 568 c 1
 153 501 130 402 129 306 c 1
 136 305 l 1
 189 348 252 377 321 377 c 0
 359 377 397 361 424 334 c 0
 456 301 471 256 471 211 c 0
 471 151 441 98 399 56 c 0
 356 13 298 -13 236 -13 c 0
 191 -13 147 2 115 34 c 0
 62 87 45 164 45 238 c 0
 45 363 90 487 179 576 c 1
 214 613 254 645 299 668 c 0
 335 687 375 700 416 700 c 0
 431 700 446 696 460 691 c 1
133 263 m 1
 136 221 142 179 154 139 c 0
 163 110 176 81 197 60 c 0
 215 43 238 32 263 32 c 0
 295 32 328 40 351 63 c 0
 380 91 392 131 392 172 c 0
 392 212 375 251 346 279 c 1
 323 303 289 314 256 314 c 0
 210 314 169 290 133 263 c 1
EndSplineSet
Substitution2: "'onum' Oldstyle Figures lookup 0-1" six.onum
EndChar

StartChar: seven
Encoding: 55 55 45
Width: 499
Flags: MW
HStem: -8 21<81 81> 606 80<68 385 56 494>
VStem: 49 445<615 674>
LayerCount: 2
Fore
SplineSet
494 674 m 1
 340 422 l 2
 262 294 197 158 165 12 c 1
 81 -8 l 1
 75 0 l 1
 99 82 164 194 217 287 c 0
 217 288 333 491 391 594 c 1
 385 606 l 1
 56 606 l 1
 49 615 l 1
 68 686 l 1
 210 686 352 686 494 686 c 1
 494 674 l 1
EndSplineSet
Substitution2: "'onum' Oldstyle Figures lookup 0-1" seven.onum
EndChar

StartChar: eight
Encoding: 56 56 46
Width: 499
Flags: MW
HStem: -10 46<230.5 255> 655 51
VStem: 40 83<156.5 178> 374 87<173 188.5>
LayerCount: 2
Fore
SplineSet
235 332 m 1
 208 318 181 301 159 279 c 0
 133 252 123 214 123 177 c 0
 123 136 137 95 166 65 c 1
 187 45 216 36 245 36 c 0
 278 36 313 44 337 68 c 0
 363 94 374 131 374 168 c 0
 374 209 353 245 324 274 c 0
 299 299 265 312 235 332 c 1
304 391 m 1
 342 364 397 325 415 307 c 0
 444 278 461 239 461 197 c 0
 461 149 444 102 410 67 c 0
 360 17 291 -10 219 -10 c 0
 171 -10 122 1 87 36 c 0
 55 68 40 112 40 157 c 0
 40 199 52 242 83 272 c 0
 109 298 166 331 210 357 c 1
 175 380 143 407 119 441 c 1
 102 468 89 498 89 530 c 0
 89 570 103 611 134 638 c 0
 169 669 211 689 254 706 c 1
 284 704 314 700 342 691 c 0
 363 684 383 675 399 659 c 0
 423 635 435 602 435 568 c 0
 435 534 420 502 400 475 c 0
 374 441 341 413 304 391 c 1
274 416 m 1
 316 445 350 490 350 543 c 0
 350 571 343 600 323 621 c 0
 297 647 260 654 224 655 c 1
 208 643 180 622 178 619 c 0
 166 603 165 582 165 562 c 0
 165 536 178 512 194 491 c 1
 215 461 244 437 274 416 c 1
EndSplineSet
Substitution2: "'onum' Oldstyle Figures lookup 0-1" eight.onum
EndChar

StartChar: nine
Encoding: 57 57 47
Width: 499
Flags: MW
HStem: -9 21<129 129> 298 57<175 275.5> 648 54
VStem: 42 87<486 490> 382 80<464.5 551>
LayerCount: 2
Fore
SplineSet
214 11 m 1
 129 -9 l 1
 123 -3 l 1
 144 48 195 117 238 174 c 1
 278 229 315 286 349 345 c 1
 317 331 284 319 250 309 c 0
 232 303 213 298 194 298 c 0
 156 298 120 314 93 341 c 0
 61 373 42 415 42 461 c 0
 42 519 63 575 104 616 c 0
 138 650 195 678 246 702 c 1
 279 702 313 698 345 688 c 0
 370 681 394 670 413 651 c 0
 445 619 462 574 462 528 c 0
 462 490 449 453 434 417 c 0
 411 365 382 317 350 270 c 0
 316 220 283 169 255 115 c 0
 237 82 220 48 214 11 c 1
351 384 m 0
 376 409 382 447 382 482 c 0
 382 529 363 574 330 607 c 0
 296 642 245 648 198 643 c 1
 160 609 129 563 129 510 c 0
 129 462 146 415 180 382 c 0
 201 361 230 355 259 355 c 0
 292 355 327 360 351 384 c 0
EndSplineSet
Substitution2: "'onum' Oldstyle Figures lookup 0-1" nine.onum
EndChar

StartChar: period
Encoding: 46 46 48
Width: 277
Flags: MW
HStem: -15 117<126 158>
VStem: 87 114<28.5 59.5>
LayerCount: 2
Fore
SplineSet
142 102 m 0
 174 102 201 76 201 44 c 0
 201 12 174 -15 142 -15 c 0
 110 -15 87 13 87 44 c 0
 87 75 110 102 142 102 c 0
EndSplineSet
EndChar

StartChar: comma
Encoding: 44 44 49
Width: 277
Flags: MW
HStem: -192 21<121 121> 87 20<140.5 151.5>
VStem: 157 57<-67.5 -18.5>
LayerCount: 2
Fore
SplineSet
121 -192 m 1
 110 -174 l 1
 127 -151 139 -125 149 -99 c 1
 155 -87 157 -74 157 -61 c 0
 157 -46 153 -31 144 -19 c 2
 109 29 l 2
 102 39 99 50 99 62 c 0
 99 75 106 88 117 96 c 0
 125 102 135 107 146 107 c 0
 157 107 164 96 171 87 c 0
 185 68 197 47 206 24 c 0
 212 8 214 -10 214 -27 c 0
 214 -52 205 -75 192 -96 c 0
 171 -130 147 -162 121 -192 c 1
EndSplineSet
EndChar

StartChar: less
Encoding: 60 60 50
Width: 756
Flags: MW
HStem: -39 21<665 665> 514 20<668 668>
VStem: 46 636<-2 250>
LayerCount: 2
Fore
SplineSet
682 502 m 1
 142 250 l 1
 682 -2 l 1
 665 -39 l 1
 46 250 l 1
 668 534 l 1
 682 502 l 1
EndSplineSet
EndChar

StartChar: slash
Encoding: 47 47 51
Width: 501
Flags: MW
GlyphVariantsVertical: slash slash.big slash.Big slash.bigg slash.Bigg
HStem: -182 21<34 77 34 34> 702 20<427 427>
VStem: 34 432
LayerCount: 2
Fore
SplineSet
466 713 m 1
 77 -182 l 1
 34 -182 l 1
 427 722 l 1
 466 713 l 1
EndSplineSet
EndChar

StartChar: greater
Encoding: 62 62 52
Width: 756
Flags: MW
HStem: -39 21<92 92> 514 20<89 89>
VStem: 74 637<-2 250 250 502>
LayerCount: 2
Fore
SplineSet
711 250 m 1
 92 -39 l 1
 74 -2 l 1
 615 250 l 1
 74 502 l 1
 89 534 l 1
 711 250 l 1
EndSplineSet
EndChar

StartChar: partialdiff
Encoding: 8706 8706 53
Width: 560
Flags: MW
HStem: -11 45 421 36<301 310.5 280 330.5> 640 62
VStem: 81 84 407 77
LayerCount: 2
Fore
SplineSet
101 548 m 1
 83 555 l 1
 96 593 113 631 144 657 c 0
 175 684 215 699 257 699 c 0
 311 699 359 669 393 628 c 0
 431 582 455 526 469 467 c 0
 480 419 485 371 485 322 c 0
 485 221 470 106 388 37 c 0
 355 9 314 -10 272 -10 c 0
 218 -10 164 13 129 55 c 0
 95 97 79 150 79 203 c 0
 79 279 103 359 162 409 c 0
 203 443 254 457 306 457 c 0
 315 457 323 457 331 456 c 0
 344 455 372 448 392 442 c 1
 387 493 370 543 337 582 c 0
 308 617 266 642 220 642 c 0
 192 642 164 632 142 614 c 0
 122 597 109 573 101 548 c 1
383 125 m 0
 401 176 408 232 408 286 c 0
 408 326 404 365 396 404 c 1
 371 415 344 421 317 421 c 0
 285 421 254 411 229 390 c 0
 176 345 163 270 163 205 c 0
 163 184 165 164 169 143 c 0
 174 118 183 94 199 75 c 0
 219 52 247 36 279 36 c 0
 302 36 324 43 342 57 c 1
 363 75 375 100 383 125 c 0
EndSplineSet
EndChar

StartChar: A
Encoding: 65 65 54
Width: 770
Flags: MW
HStem: -10 62 269 43<259 471 259 480 238 471> 651 29
VStem: 25 718<8 26>
LayerCount: 2
Fore
SplineSet
389 586 m 1
 259 312 l 1
 471 312 l 1
 389 586 l 1
536 76 m 2
 480 269 l 1
 238 269 l 1
 119 17 l 1
 28 -2 l 1
 25 8 l 1
 144 208 259 412 364 620 c 0
 365 623 365 628 365 632 c 1
 363 635 358 637 353 638 c 0
 352 638 293 648 263 653 c 1
 263 680 l 1
 457 680 l 1
 472 597 517 437 550 317 c 0
 572 236 598 141 635 79 c 0
 643 64 659 55 676 51 c 0
 696 47 720 50 742 52 c 1
 743 26 l 1
 639 -4 l 2
 624 -8 609 -10 594 -10 c 0
 583 -10 574 -5 567 3 c 1
 553 16 543 50 536 76 c 2
EndSplineSet
EndChar

StartChar: B
Encoding: 66 66 55
Width: 655
Flags: MW
HStem: -1 40<309 317 279 347> 346 35<268 294.5 261.5 295> 648 38<278 301.5>
VStem: 132 83<47 81> 483 91<186 222.5 176 224.5>
LayerCount: 2
Fore
SplineSet
381 378 m 1
 380 370 l 1
 411 366 441 361 471 350 c 0
 491 343 512 333 527 318 c 0
 558 287 574 244 574 201 c 0
 574 151 556 103 521 68 c 0
 466 12 385 -1 309 -1 c 1
 243 0 112 1 111 1 c 2
 110 11 l 1
 116 20 128 36 128 37 c 0
 130 40 131 43 132 47 c 0
 132 48 133 70 133 81 c 2
 133 611 l 1
 131 616 127 625 127 626 c 1
 126 626 76 650 50 662 c 1
 51 686 l 1
 135 686 220 686 305 686 c 0
 346 686 386 684 426 674 c 0
 453 667 480 658 500 638 c 0
 522 615 534 585 534 553 c 0
 534 512 520 472 491 443 c 0
 461 412 421 395 381 378 c 1
215 611 m 1
 215 544 215 477 215 411 c 1
 214 404 214 393 214 392 c 0
 215 388 219 385 222 384 c 0
 230 381 254 381 269 381 c 0
 320 381 370 396 406 431 c 0
 436 461 449 503 449 545 c 0
 449 574 435 600 415 620 c 0
 403 632 385 637 368 641 c 0
 342 647 315 648 288 648 c 0
 268 648 248 646 228 643 c 0
 221 642 216 636 214 629 c 0
 214 628 214 617 215 611 c 1
215 324 m 2
 215 81 l 2
 215 68 219 56 227 46 c 0
 233 39 268 39 290 39 c 0
 344 39 400 51 439 89 c 1
 470 121 483 164 483 208 c 0
 483 241 475 276 450 301 c 0
 432 319 408 328 383 335 c 0
 349 344 313 346 277 346 c 0
 259 346 230 346 225 345 c 0
 221 345 217 342 215 338 c 0
 215 337 215 329 215 324 c 2
EndSplineSet
EndChar

StartChar: C
Encoding: 67 67 56
Width: 714
Flags: MW
HStem: -15 53<405 444.5> 655 44<404 445>
VStem: 87 89<298.5 368.5 298.5 374>
LayerCount: 2
Fore
SplineSet
615 528 m 1
 601 529 l 1
 589 561 572 590 549 613 c 0
 516 646 468 655 422 655 c 0
 361 655 299 637 255 593 c 0
 227 564 209 528 197 490 c 0
 182 443 176 393 176 344 c 0
 176 253 205 164 269 100 c 0
 313 56 374 38 436 38 c 0
 504 38 567 67 623 105 c 1
 640 76 l 1
 568 27 488 -15 401 -15 c 0
 322 -15 240 2 183 59 c 0
 113 129 87 228 87 326 c 0
 87 422 108 521 178 590 c 0
 251 663 352 699 456 699 c 0
 521 699 587 683 633 636 c 0
 648 621 661 604 672 586 c 1
 615 528 l 1
EndSplineSet
EndChar

StartChar: D
Encoding: 68 68 57
Width: 828
Flags: MW
HStem: 2 38<295.5 333.5 295.5 337> 643 43<331.5 402>
VStem: 129 83 644 94<331 407.5 331 416>
LayerCount: 2
Fore
SplineSet
108 2 m 1
 107 12 l 1
 115 18 127 28 127 34 c 0
 127 37 129 40 129 43 c 0
 130 51 131 62 131 72 c 0
 131 73 129 406 128 573 c 0
 128 589 127 605 126 620 c 0
 125 630 118 637 109 641 c 0
 90 648 70 653 51 659 c 1
 51 685 l 1
 158 685 370 686 371 686 c 0
 433 686 495 681 555 666 c 0
 598 655 640 639 671 608 c 0
 696 583 711 551 721 517 c 0
 734 475 738 430 738 385 c 0
 738 277 710 167 633 89 c 1
 600 57 558 37 514 24 c 0
 457 7 397 2 337 2 c 0
 336 2 184 2 108 2 c 1
212 575 m 1
 212 440 212 190 212 170 c 0
 213 130 215 68 230 53 c 0
 243 40 282 40 309 40 c 0
 358 40 407 45 454 60 c 0
 491 72 527 89 555 117 c 0
 623 185 644 283 644 377 c 0
 644 455 627 535 571 591 c 0
 549 613 518 623 487 630 c 0
 441 640 393 643 346 643 c 0
 317 643 288 645 259 644 c 0
 250 643 240 642 231 638 c 0
 225 635 219 630 216 624 c 0
 216 623 213 591 212 575 c 1
EndSplineSet
EndChar

StartChar: E
Encoding: 69 69 58
Width: 604
Flags: MW
HStem: 0 59 336 56 631 59
VStem: 134 75
LayerCount: 2
Fore
SplineSet
462 385 m 1
 456 337 l 1
 417 340 377 343 338 343 c 0
 300 343 242 343 225 340 c 0
 219 339 215 334 213 328 c 0
 209 319 209 303 209 291 c 0
 209 290 209 223 209 189 c 0
 209 151 210 102 224 77 c 0
 230 65 242 57 254 51 c 0
 273 43 334 45 375 46 c 0
 422 48 494 54 554 59 c 1
 559 54 l 1
 546 1 l 1
 427 1 227 2 190 1 c 0
 180 1 162 0 159 2 c 0
 150 7 144 16 139 26 c 0
 134 38 134 53 134 67 c 0
 135 231 136 413 132 559 c 0
 132 581 131 602 123 623 c 0
 120 630 113 635 106 639 c 0
 89 650 67 650 47 655 c 1
 45 682 l 1
 97 681 149 683 201 683 c 0
 297 683 393 695 489 688 c 1
 487 638 l 1
 483 631 l 1
 414 635 281 641 274 641 c 0
 260 641 233 641 232 641 c 0
 227 639 222 637 219 632 c 0
 211 620 210 588 210 565 c 0
 210 564 210 477 210 433 c 0
 210 420 210 406 215 396 c 0
 218 392 222 388 227 387 c 0
 270 379 379 386 456 392 c 1
 462 385 l 1
EndSplineSet
EndChar

StartChar: F
Encoding: 70 70 59
Width: 499
Flags: MW
HStem: -2 21<118 118> 336 54<446 452> 631 58
VStem: 123 84
LayerCount: 2
Fore
SplineSet
125 360 m 1
 128 521 l 2
 128 551 126 581 123 611 c 0
 122 628 111 643 94 647 c 2
 39 660 l 1
 39 688 l 1
 181 688 393 688 467 690 c 1
 467 637 l 1
 459 629 l 1
 387 634 315 647 243 649 c 0
 228 649 210 643 208 626 c 0
 206 611 203 585 203 581 c 0
 202 526 203 471 204 416 c 0
 204 398 215 378 235 378 c 0
 308 378 380 387 452 390 c 1
 451 341 l 1
 446 336 l 1
 376 340 306 341 235 341 c 0
 221 341 203 334 203 316 c 0
 203 215 206 114 210 13 c 1
 118 -2 l 1
 122 119 125 239 125 360 c 1
EndSplineSet
EndChar

StartChar: G
Encoding: 71 71 60
Width: 765
Flags: MW
HStem: -17 52<423 424.5> 261 46 654 45<414.5 447.5>
VStem: 90 90<296 365.5 296 373> 572 85
LayerCount: 2
Fore
SplineSet
376 296 m 1
 652 307 l 1
 654 216 657 34 657 33 c 0
 569 10 461 -17 388 -17 c 0
 312 -17 237 9 183 63 c 0
 115 131 90 229 90 324 c 0
 90 422 112 523 182 593 c 0
 257 668 362 699 467 699 c 0
 531 699 595 679 640 634 c 0
 651 623 665 603 676 586 c 1
 618 529 l 1
 606 530 l 1
 593 556 578 581 558 601 c 0
 522 637 473 654 422 654 c 0
 363 654 304 636 261 594 c 0
 232 565 214 528 201 489 c 0
 186 441 180 391 180 340 c 0
 180 252 203 163 266 100 c 0
 316 50 388 35 458 35 c 0
 490 35 521 38 552 45 c 0
 562 47 569 56 570 66 c 0
 572 97 573 128 572 159 c 0
 572 182 571 206 569 228 c 0
 568 242 558 255 544 256 c 0
 500 261 436 263 382 265 c 1
 376 270 l 1
 376 296 l 1
EndSplineSet
EndChar

StartChar: H
Encoding: 72 72 61
Width: 783
Flags: MW
HStem: -2 36 339 45 658 27
VStem: 132 83 579 80
LayerCount: 2
Fore
SplineSet
744 8 m 1
 589 0 l 1
 578 21 l 1
 580 118 579 215 583 312 c 0
 583 328 568 339 552 339 c 0
 448 341 326 343 240 338 c 0
 223 337 215 321 215 306 c 0
 215 239 214 171 215 104 c 0
 215 78 217 52 220 26 c 1
 128 -2 l 1
 122 3 l 1
 132 116 132 245 132 367 c 0
 132 450 131 533 126 616 c 0
 125 625 123 636 113 640 c 0
 109 641 73 652 53 659 c 1
 51 685 l 1
 228 685 l 1
 222 661 220 636 219 611 c 0
 217 546 212 480 213 415 c 0
 213 402 220 388 234 387 c 0
 306 383 453 384 563 385 c 0
 579 386 583 403 583 415 c 0
 583 501 580 587 580 673 c 1
 674 691 l 1
 670 649 666 606 665 565 c 0
 660 403 660 241 666 79 c 0
 666 62 679 49 695 45 c 0
 713 40 742 32 743 32 c 2
 744 8 l 1
EndSplineSet
EndChar

StartChar: I
Encoding: 73 73 62
Width: 394
Flags: MW
HStem: -1 26<81 346 81 81> 651 32
VStem: 170 78
LayerCount: 2
Fore
SplineSet
346 -1 m 1
 81 -1 l 1
 81 25 l 1
 101 29 124 34 142 39 c 1
 155 44 166 56 168 70 c 0
 169 81 169 113 170 134 c 1
 170 165 170 376 170 497 c 0
 170 536 170 574 167 612 c 0
 166 625 158 638 145 641 c 0
 144 641 100 650 78 655 c 1
 78 683 l 1
 341 683 l 1
 341 656 l 1
 317 651 272 640 271 640 c 0
 258 638 250 627 249 615 c 0
 249 614 249 566 249 541 c 0
 248 417 248 271 251 169 c 0
 251 136 252 103 255 70 c 0
 256 54 269 44 283 40 c 0
 305 35 347 23 348 23 c 2
 346 -1 l 1
EndSplineSet
EndChar

StartChar: J
Encoding: 74 74 63
Width: 402
Flags: MW
HStem: -167 21<90 90> 660 30<349 349>
VStem: 175 85<148 620>
LayerCount: 2
Fore
SplineSet
260 620 m 2
 260 143 l 2
 260 102 259 60 247 21 c 0
 233 -24 210 -67 176 -100 c 0
 149 -125 120 -147 90 -167 c 1
 72 -149 l 1
 86 -136 102 -122 114 -110 c 0
 136 -87 149 -58 162 -29 c 0
 175 -1 175 88 175 148 c 2
 175 620 l 2
 175 631 171 642 159 645 c 0
 135 652 111 657 87 663 c 1
 87 690 l 1
 351 690 l 1
 349 660 l 1
 327 655 294 649 281 646 c 0
 269 643 260 633 260 620 c 2
EndSplineSet
EndChar

StartChar: K
Encoding: 75 75 64
Width: 668
Flags: MW
HStem: -7 21<546 546> 655 28
VStem: 131 82
LayerCount: 2
Fore
SplineSet
221 319 m 1
 212 318 l 1
 212 220 212 122 218 25 c 1
 137 -4 l 1
 126 1 l 1
 130 50 131 99 131 148 c 0
 132 297 130 446 129 595 c 0
 129 605 128 616 124 626 c 0
 121 632 117 639 110 641 c 0
 90 647 50 659 49 659 c 2
 52 683 l 1
 229 683 l 1
 226 672 220 650 220 649 c 0
 213 621 211 593 210 564 c 0
 209 529 209 427 209 358 c 1
 217 357 l 1
 313 466 504 682 504 683 c 1
 594 683 l 1
 593 674 l 1
 495 577 301 383 300 383 c 0
 297 380 292 376 292 372 c 0
 292 368 295 364 299 360 c 0
 411 248 588 72 640 27 c 1
 546 -7 l 1
 441 105 329 210 221 319 c 1
EndSplineSet
EndChar

StartChar: L
Encoding: 76 76 65
Width: 559
Flags: MW
HStem: 2 41 663 27<300.5 301>
VStem: 129 84
LayerCount: 2
Fore
SplineSet
534 48 m 1
 520 -5 l 1
 446 2 245 2 107 2 c 1
 107 3 106 10 105 14 c 1
 112 24 124 42 125 44 c 0
 129 54 129 72 129 86 c 0
 129 87 129 443 129 621 c 0
 129 635 123 651 108 654 c 0
 88 658 51 666 50 666 c 2
 51 690 l 1
 301 690 l 1
 301 663 l 1
 300 663 257 654 236 649 c 0
 224 647 218 635 218 624 c 0
 206 441 212 257 218 74 c 0
 219 50 244 43 263 43 c 0
 331 43 438 51 525 56 c 1
 534 48 l 1
EndSplineSet
EndChar

StartChar: M
Encoding: 77 77 66
Width: 1044
Flags: MW
HStem: -5 51 658 32
VStem: 817 79
LayerCount: 2
Fore
SplineSet
800 690 m 1
 903 690 l 1
 898 683 888 679 884 670 c 0
 878 655 878 619 878 594 c 0
 878 430 880 266 896 102 c 0
 898 85 906 68 920 57 c 0
 930 50 942 46 954 46 c 0
 967 46 992 50 1010 52 c 1
 1010 28 l 1
 966 12 914 -6 874 -6 c 0
 860 -6 846 -4 833 0 c 1
 816 22 l 1
 812 193 805 421 801 534 c 0
 801 541 799 548 796 555 c 0
 794 558 791 563 786 562 c 0
 779 561 789 549 785 541 c 0
 685 364 590 184 502 1 c 1
 466 1 l 1
 391 181 297 410 234 538 c 0
 231 543 228 547 224 551 c 0
 222 553 219 555 216 554 c 0
 210 551 216 543 215 536 c 0
 192 366 175 195 161 23 c 1
 86 -3 l 1
 79 0 l 1
 117 196 152 393 179 591 c 0
 181 603 181 617 173 627 c 0
 168 634 161 639 152 642 c 2
 84 661 l 1
 86 690 l 1
 269 690 l 1
 324 529 418 329 501 152 c 0
 503 148 505 143 510 143 c 0
 514 143 517 148 519 152 c 0
 579 260 708 510 800 690 c 1
EndSplineSet
EndChar

StartChar: N
Encoding: 78 78 67
Width: 829
Flags: MW
HStem: -5 21<135 135> 655 35
VStem: 138 46 647 49
LayerCount: 2
Fore
SplineSet
704 694 m 1
 710 686 l 1
 697 459 695 231 695 4 c 1
 657 4 l 1
 506 189 287 458 199 555 c 0
 196 559 191 565 187 564 c 0
 181 562 181 553 181 547 c 0
 181 418 194 199 205 25 c 1
 135 -5 l 1
 126 4 l 1
 136 205 142 407 138 608 c 0
 138 616 138 624 132 630 c 0
 128 635 123 640 117 641 c 0
 116 641 74 651 53 656 c 1
 48 690 l 1
 219 690 l 1
 352 514 514 299 631 173 c 0
 635 169 640 163 645 166 c 0
 646 167 647 169 647 170 c 0
 648 177 647 184 647 191 c 0
 649 209 650 232 650 246 c 0
 646 385 634 534 624 678 c 1
 704 694 l 1
EndSplineSet
EndChar

StartChar: O
Encoding: 79 79 68
Width: 803
Flags: MW
HStem: -18 48<353.5 401> 653 47<387.5 420.5>
VStem: 72 87<301 371.5> 632 93<313 385>
LayerCount: 2
Fore
SplineSet
72 318 m 0
 72 425 104 532 181 608 c 1
 247 675 341 700 434 700 c 0
 510 700 587 679 642 624 c 0
 671 595 690 557 703 517 c 0
 719 468 725 417 725 365 c 0
 725 261 699 155 624 81 c 0
 552 9 451 -18 351 -18 c 0
 285 -18 218 0 171 47 c 0
 100 118 72 219 72 318 c 0
159 348 m 0
 159 254 180 157 248 89 c 0
 283 54 328 30 379 30 c 0
 440 30 504 40 549 84 c 1
 578 114 597 151 611 190 c 1
 626 237 632 287 632 337 c 0
 632 433 610 532 541 601 c 0
 503 640 447 653 394 653 c 0
 336 653 278 638 238 597 c 1
 209 569 192 533 180 495 c 0
 165 448 159 398 159 348 c 0
EndSplineSet
EndChar

StartChar: P
Encoding: 80 80 69
Width: 576
Flags: MW
HStem: -6 21<134 134> 287 42<228 228> 642 37
VStem: 134 82 454 96<485 524>
LayerCount: 2
Fore
SplineSet
217 22 m 1
 134 -6 l 1
 127 1 l 1
 129 141 134 282 134 423 c 0
 134 482 133 541 129 600 c 0
 128 618 120 636 102 643 c 0
 87 649 71 652 55 654 c 1
 55 679 l 1
 143 679 231 679 319 679 c 0
 355 679 392 677 427 669 c 0
 451 664 476 657 495 641 c 0
 533 610 550 562 550 514 c 0
 550 456 528 399 486 358 c 1
 466 337 440 324 412 314 c 0
 377 302 341 296 304 293 c 0
 279 291 253 289 228 287 c 0
 214 286 210 271 210 260 c 0
 213 181 216 101 217 22 c 1
281 640 m 2
 243 640 l 2
 228 640 215 629 215 614 c 0
 212 526 210 438 210 351 c 0
 210 341 216 329 227 329 c 0
 262 329 297 333 330 344 c 0
 357 352 382 364 401 383 c 0
 434 416 454 460 454 506 c 0
 454 542 442 578 416 604 c 0
 402 618 383 626 364 631 c 0
 337 638 309 640 281 640 c 2
EndSplineSet
EndChar

StartChar: Q
Encoding: 81 81 70
Width: 828
Flags: MW
HStem: -198 43<568.5 657.5> -16 44 653 45<397.5 438>
VStem: 85 88<289.5 359> 648 91<347 357>
LayerCount: 2
Fore
SplineSet
735 -141 m 1
 736 -166 l 1
 689 -181 638 -198 593 -198 c 0
 544 -198 502 -170 468 -137 c 0
 431 -100 399 -58 368 -16 c 1
 297 -22 227 3 176 53 c 0
 110 119 85 213 85 305 c 0
 85 413 111 523 188 601 c 0
 255 668 350 698 445 698 c 0
 522 698 599 677 655 622 c 1
 719 557 739 465 739 376 c 0
 739 318 732 261 714 206 c 0
 700 161 677 118 644 84 c 1
 596 37 532 12 466 -2 c 1
 487 -31 507 -60 529 -89 c 0
 534 -96 540 -104 546 -110 c 0
 575 -139 614 -155 654 -155 c 0
 661 -155 708 -146 735 -141 c 1
401 28 m 0
 461 28 521 43 563 86 c 0
 627 150 648 241 648 331 c 0
 648 383 641 435 625 485 c 0
 611 526 590 566 558 597 c 1
 520 636 465 653 411 653 c 0
 354 653 296 637 255 596 c 0
 225 566 207 528 194 489 c 1
 179 439 173 386 173 334 c 0
 173 245 199 156 262 93 c 0
 300 56 348 28 401 28 c 0
EndSplineSet
EndChar

StartChar: R
Encoding: 82 82 71
Width: 609
Flags: MW
HStem: -6 21<136 136 493 493> 312 43 640 39<266 284.5>
VStem: 132 84 438 98<511 538>
LayerCount: 2
Fore
SplineSet
321 331 m 1
 319 323 l 1
 407 224 492 124 582 27 c 1
 582 18 l 1
 493 -6 l 1
 407 99 307 221 229 306 c 0
 225 310 220 311 214 312 c 1
 214 216 214 119 219 23 c 1
 136 -6 l 1
 125 3 l 1
 133 148 134 294 134 439 c 0
 134 454 132 554 131 611 c 0
 131 625 121 637 108 641 c 0
 90 646 55 656 54 656 c 2
 55 679 l 1
 148 679 241 679 333 679 c 0
 367 679 401 676 433 667 c 0
 457 660 480 651 497 633 c 0
 522 608 536 574 536 539 c 0
 536 483 513 431 474 392 c 0
 433 351 377 337 321 331 c 1
213 370 m 0
 213 364 215 356 222 356 c 0
 235 357 248 355 260 356 c 0
 306 360 354 371 387 405 c 0
 418 436 438 478 438 523 c 0
 438 553 426 583 405 604 c 0
 391 618 372 626 353 631 c 0
 326 638 298 640 271 640 c 0
 261 640 252 641 242 641 c 0
 232 640 223 634 221 624 c 0
 218 610 216 595 215 581 c 1
 215 511 213 371 213 370 c 0
EndSplineSet
EndChar

StartChar: S
Encoding: 83 83 72
Width: 557
Flags: MW
HStem: -15 52<235.5 249.5> 662 40<272.5 297.5>
VStem: 91 80<529 535.5> 395 85
LayerCount: 2
Fore
SplineSet
480 606 m 1
 417 550 l 1
 404 553 l 1
 397 581 388 611 367 632 c 0
 344 654 313 662 282 662 c 0
 251 662 222 650 201 628 c 0
 180 607 171 577 171 547 c 0
 171 511 190 479 215 454 c 0
 242 427 285 405 324 385 c 0
 363 365 418 338 436 319 c 1
 466 290 483 250 483 209 c 0
 483 157 459 109 422 72 c 0
 366 16 289 -15 210 -15 c 0
 163 -15 115 -3 82 31 c 0
 66 47 53 66 45 87 c 1
 102 153 l 1
 119 152 l 1
 128 122 139 91 161 69 c 0
 185 45 219 37 252 37 c 0
 290 37 327 52 355 79 c 0
 381 105 395 141 395 178 c 0
 395 209 382 239 360 261 c 0
 336 285 304 300 274 314 c 0
 227 335 168 362 142 388 c 0
 109 421 91 466 91 512 c 0
 91 559 105 606 138 640 c 1
 182 683 242 702 303 702 c 0
 354 702 407 695 444 658 c 0
 459 643 470 625 480 606 c 1
EndSplineSet
EndChar

StartChar: T
Encoding: 84 84 73
Width: 492
Flags: MW
HStem: -10 22 634 63
VStem: 259 88
LayerCount: 2
Fore
SplineSet
575 696 m 1
 573 634 l 1
 503 637 363 644 362 644 c 0
 358 644 354 641 351 638 c 0
 347 634 346 626 346 620 c 0
 345 606 345 461 345 381 c 0
 345 260 348 138 355 17 c 1
 255 -10 l 1
 246 -1 l 1
 254 126 259 253 259 380 c 0
 259 462 259 599 257 626 c 0
 257 629 252 634 248 637 c 0
 245 640 240 642 235 642 c 0
 234 642 95 637 26 635 c 1
 26 697 l 1
 119 694 298 686 305 686 c 0
 382 686 485 692 575 696 c 1
EndSplineSet
EndChar

StartChar: U
Encoding: 85 85 74
Width: 774
Flags: MW
HStem: -9 61<355.5 357> 653 27<37 37.5>
VStem: 123 86 555 80<177 202.5>
LayerCount: 2
Fore
SplineSet
213 625 m 2
 203 269 l 2
 203 234 206 199 216 165 c 0
 224 139 235 113 255 94 c 0
 287 62 333 52 378 52 c 0
 441 52 500 79 555 111 c 1
 555 294 556 477 559 659 c 1
 646 694 l 1
 653 687 l 1
 636 526 635 364 635 202 c 0
 635 152 635 77 653 59 c 0
 662 51 674 48 685 48 c 0
 705 48 723 54 743 56 c 1
 748 34 l 1
 696 18 621 -5 589 -5 c 0
 576 -5 559 1 557 16 c 0
 555 35 556 54 553 73 c 1
 481 27 400 -9 314 -9 c 0
 286 -9 257 -6 230 2 c 0
 209 8 188 17 173 32 c 0
 163 42 157 55 152 68 c 0
 144 87 139 107 136 127 c 0
 125 187 123 247 123 308 c 0
 123 405 127 503 125 601 c 0
 125 620 110 635 92 639 c 0
 74 644 38 653 37 653 c 2
 34 680 l 1
 220 680 l 1
 214 663 213 644 213 625 c 2
EndSplineSet
EndChar

StartChar: V
Encoding: 86 86 75
Width: 646
Flags: MW
HStem: -16 21<320 320> 652 46
VStem: 23 706<678 688>
LayerCount: 2
Fore
SplineSet
637 680 m 1
 723 697 l 1
 729 678 l 1
 699 638 672 596 646 554 c 0
 610 494 576 433 542 371 c 0
 480 255 431 134 388 10 c 1
 320 -16 l 1
 310 -9 l 1
 262 151 217 313 167 473 c 0
 153 519 138 565 119 609 c 0
 115 617 111 625 105 631 c 0
 100 636 94 640 87 642 c 0
 75 647 45 652 24 655 c 1
 23 688 l 1
 205 698 l 1
 244 507 297 319 370 138 c 0
 370 137 373 135 375 133 c 1
 378 134 383 135 384 135 c 0
 431 247 479 359 530 470 c 0
 563 541 597 612 637 680 c 1
EndSplineSet
EndChar

StartChar: W
Encoding: 87 87 76
Width: 986
Flags: MW
HStem: -11 21<246 246 657 657> 650 40
VStem: 13 1047<686 686>
LayerCount: 2
Fore
SplineSet
979 675 m 1
 1060 689 l 1
 1060 668 l 1
 931 458 810 244 717 16 c 1
 657 -11 l 1
 645 -3 l 1
 613 178 576 357 536 536 c 0
 535 541 534 548 529 548 c 0
 526 548 523 541 520 536 c 0
 438 369 368 195 310 18 c 1
 246 -11 l 1
 235 -6 l 1
 212 122 187 249 157 375 c 0
 137 456 117 537 87 614 c 0
 82 627 73 638 60 642 c 0
 45 646 30 651 15 655 c 1
 13 686 l 1
 177 689 l 1
 192 608 251 338 290 163 c 0
 290 162 294 159 296 157 c 1
 299 159 303 161 304 161 c 0
 382 326 478 532 523 661 c 1
 599 690 l 1
 606 684 l 1
 633 505 665 327 704 151 c 0
 704 150 711 143 715 138 c 1
 717 141 722 146 723 146 c 0
 805 324 914 562 979 675 c 1
EndSplineSet
EndChar

StartChar: X
Encoding: 88 88 77
Width: 666
Flags: MW
HStem: -11 21<526 526> 645 43
VStem: 27 609<0 32 16 32>
LayerCount: 2
Fore
SplineSet
632 672 m 1
 378 381 l 2
 378 380 389 357 395 345 c 0
 438 271 483 192 534 131 c 0
 564 94 599 62 636 32 c 1
 636 16 l 1
 526 -11 l 1
 512 -5 l 1
 494 13 480 35 466 57 c 0
 418 136 375 218 328 298 c 1
 316 298 l 1
 121 11 l 1
 27 0 l 1
 27 16 l 1
 297 344 l 2
 297 345 200 508 152 590 c 0
 141 608 127 625 108 632 c 0
 88 639 68 643 48 649 c 1
 48 680 l 1
 61 680 150 685 201 688 c 1
 348 422 l 1
 357 422 l 1
 537 674 l 1
 632 687 l 1
 632 672 l 1
EndSplineSet
EndChar

StartChar: Y
Encoding: 89 89 78
Width: 555
Flags: MW
HStem: -11 21<266 266> 648 42
VStem: 23 592<675 675 675 685 675 685>
LayerCount: 2
Fore
SplineSet
258 299 m 1
 109 594 l 2
 103 606 96 618 86 628 c 0
 80 635 72 641 63 643 c 0
 50 646 37 649 23 651 c 1
 23 685 l 1
 74 685 124 687 174 688 c 1
 221 579 316 362 316 361 c 1
 317 361 324 355 328 351 c 1
 394 459 526 675 526 676 c 2
 611 693 l 1
 615 675 l 1
 522 556 432 435 353 307 c 1
 351 211 352 114 356 18 c 1
 266 -11 l 1
 255 -2 l 1
 258 98 258 199 258 299 c 1
EndSplineSet
EndChar

StartChar: Z
Encoding: 90 90 79
Width: 666
Flags: MW
HStem: -13 78 631 64
VStem: 46 594<21 59>
LayerCount: 2
Fore
SplineSet
595 664 m 1
 178 66 l 1
 185 53 l 1
 631 68 l 1
 640 59 l 1
 622 -12 l 1
 493 0 239 0 47 0 c 1
 46 21 l 1
 481 622 l 1
 479 638 l 1
 369 638 259 636 149 627 c 1
 141 633 l 1
 141 687 l 1
 150 695 l 1
 298 686 446 683 595 683 c 1
 595 664 l 1
EndSplineSet
EndChar

StartChar: lscript
Encoding: 8467 8467 80
Width: 388
Flags: MW
HStem: -9 58<201.5 255.5> 670 34
VStem: 98 61 287 51
LayerCount: 2
Fore
SplineSet
336 120 m 1
 355 109 l 1
 338 85 304 36 304 35 c 0
 279 11 249 -9 214 -9 c 0
 189 -9 164 -2 146 16 c 0
 131 31 125 54 119 75 c 0
 110 112 106 149 103 187 c 1
 45 136 l 1
 30 154 l 1
 100 228 l 1
 95 321 97 415 116 506 c 0
 129 568 148 630 192 675 c 0
 212 695 239 704 267 704 c 0
 282 704 299 701 310 689 c 0
 332 667 338 635 338 604 c 0
 338 548 316 496 292 446 c 0
 256 374 210 307 160 244 c 1
 165 183 173 99 203 69 c 0
 216 57 233 49 251 49 c 0
 260 49 268 53 275 58 c 0
 286 65 296 74 306 83 c 0
 306 84 326 108 336 120 c 1
158 287 m 1
 234 378 289 487 289 606 c 0
 289 625 289 647 275 661 c 0
 268 668 260 672 251 672 c 0
 240 672 231 665 223 657 c 0
 196 630 189 592 182 555 c 0
 172 498 164 377 158 287 c 1
EndSplineSet
EndChar

StartChar: a
Encoding: 97 97 81
Width: 609
Flags: MW
HStem: -10 63 430 35
VStem: 88 90<194 215 194 232.5> 411 76<108 117 108 329>
LayerCount: 2
Fore
SplineSet
435 432 m 1
 486 462 l 1
 491 457 l 1
 485 344 484 230 487 117 c 0
 487 99 488 81 498 65 c 0
 503 56 514 52 524 52 c 0
 538 52 568 62 589 70 c 1
 596 46 l 1
 556 22 502 -12 470 -12 c 0
 456 -12 440 -9 430 3 c 0
 417 18 414 40 412 60 c 1
 381 39 348 20 314 6 c 0
 289 -4 263 -12 235 -12 c 0
 198 -12 160 1 135 30 c 0
 97 75 87 135 88 193 c 1
 88 272 109 352 166 408 c 0
 209 449 267 466 326 466 c 0
 365 466 403 455 435 432 c 1
411 104 m 1
 411 329 l 2
 411 355 412 387 396 404 c 0
 378 423 352 431 327 431 c 0
 291 431 258 414 232 389 c 0
 212 371 201 346 193 320 c 0
 182 286 179 250 178 215 c 1
 178 173 183 130 206 95 c 0
 227 62 267 54 304 54 c 0
 321 54 337 60 352 67 c 0
 373 77 392 90 411 104 c 1
EndSplineSet
EndChar

StartChar: b
Encoding: 98 98 82
Width: 588
Flags: MW
HStem: -10 48<276.5 280.5> 405 63 639 46
VStem: 122 73 441 84
LayerCount: 2
Fore
SplineSet
27 665 m 1
 209 685 l 1
 199 586 191 487 194 387 c 1
 249 430 311 468 382 468 c 0
 418 468 454 455 480 430 c 0
 515 396 525 345 523 297 c 0
 522 256 517 216 504 177 c 0
 494 146 480 116 457 93 c 0
 399 33 323 -10 238 -10 c 0
 205 -10 173 0 148 22 c 0
 129 40 126 68 124 93 c 0
 122 112 122 132 122 152 c 0
 122 205 124 258 124 311 c 0
 124 383 124 455 122 526 c 0
 122 550 121 580 118 598 c 0
 115 614 105 630 87 632 c 0
 86 632 47 637 27 640 c 1
 27 665 l 1
198 342 m 1
 193 255 187 131 217 88 c 0
 235 62 260 38 293 38 c 0
 326 38 358 50 384 71 c 0
 404 87 416 109 424 132 c 0
 435 162 439 195 440 227 c 0
 441 256 440 285 435 314 c 0
 431 333 427 352 415 366 c 0
 394 390 366 407 335 406 c 1
 282 406 237 376 198 342 c 1
EndSplineSet
EndChar

StartChar: c
Encoding: 99 99 83
Width: 486
Flags: MW
HStem: -22 71 430 48
VStem: 51 83 344 74
LayerCount: 2
Fore
SplineSet
431 120 m 1
 446 96 l 1
 384 35 311 -19 222 -19 c 0
 185 -19 149 -9 120 15 c 0
 99 33 84 57 74 82 c 0
 57 125 49 171 49 217 c 0
 49 284 69 350 114 400 c 0
 161 452 234 475 302 475 c 0
 330 475 357 469 378 452 c 0
 402 433 415 406 418 377 c 1
 364 324 l 1
 347 330 l 1
 340 359 331 394 314 412 c 0
 301 426 283 433 265 433 c 0
 232 433 198 419 177 393 c 0
 143 352 132 300 132 248 c 0
 132 187 141 117 189 76 c 1
 212 55 243 47 273 47 c 0
 334 47 386 80 431 120 c 1
EndSplineSet
EndChar

StartChar: d
Encoding: 100 100 84
Width: 603
Flags: MW
HStem: -19 68 428 34<302.5 330.5> 638 47
VStem: 86 88 413 76<219 241 241 310 310 324>
LayerCount: 2
Fore
SplineSet
314 663 m 1
 492 685 l 1
 489 565 489 445 489 324 c 2
 489 241 l 2
 489 197 489 122 490 110 c 0
 491 93 493 76 501 62 c 0
 506 52 516 45 528 45 c 0
 533 45 569 59 589 67 c 1
 597 44 l 1
 572 27 546 10 519 -3 c 0
 503 -11 486 -19 468 -19 c 0
 453 -19 437 -14 428 -1 c 0
 417 15 410 34 409 54 c 1
 378 33 346 14 311 0 c 0
 287 -10 261 -18 235 -18 c 0
 200 -18 164 -7 139 19 c 0
 98 62 86 122 86 180 c 0
 86 260 106 340 162 398 c 0
 204 442 263 462 323 462 c 0
 354 462 384 455 413 444 c 1
 413 497 413 575 406 602 c 0
 402 615 392 627 378 631 c 0
 358 636 336 638 315 638 c 1
 314 663 l 1
413 101 m 1
 413 310 l 2
 413 345 409 383 383 409 c 0
 367 425 342 428 319 428 c 0
 286 428 256 411 233 387 c 0
 186 339 173 270 173 203 c 0
 173 158 182 110 215 77 c 0
 235 57 263 47 291 48 c 0
 337 50 383 66 413 101 c 1
EndSplineSet
EndChar

StartChar: e
Encoding: 101 101 85
Width: 499
Flags: MW
HStem: -13 69 436 45
VStem: 64 87 374 89
LayerCount: 2
Fore
SplineSet
198 396 m 0
 158 352 147 292 147 233 c 1
 218 262 359 318 360 318 c 0
 366 320 369 325 371 330 c 0
 373 334 373 338 373 342 c 0
 373 346 373 350 372 354 c 0
 367 379 353 402 333 419 c 0
 319 431 301 438 282 438 c 0
 249 438 220 421 198 396 c 0
438 319 m 2
 151 195 l 1
 156 154 172 114 203 85 c 0
 225 64 255 56 285 56 c 0
 314 56 341 65 367 78 c 0
 394 92 420 109 445 128 c 1
 463 104 l 1
 430 73 394 45 354 23 c 1
 318 2 277 -12 235 -12 c 0
 200 -12 165 -4 137 18 c 0
 117 34 104 57 95 80 c 0
 76 126 69 177 69 226 c 0
 69 284 81 343 120 388 c 0
 169 445 241 478 317 478 c 0
 350 478 383 471 409 450 c 0
 442 423 459 382 459 340 c 0
 459 336 459 333 458 332 c 0
 455 326 445 322 438 319 c 2
EndSplineSet
EndChar

StartChar: f
Encoding: 102 102 86
Width: 419
Flags: MW
HStem: -10 21<169 169> 405 38<42 157 42 159 34 157 233 358> 650 55<290.5 356>
VStem: 159 70<339.5 405 339.5 405>
LayerCount: 2
Fore
SplineSet
358 405 m 1
 229 405 l 1
 229 274 229 128 239 12 c 1
 169 -10 l 1
 155 0 l 1
 158 135 159 270 159 405 c 1
 34 405 l 1
 42 443 l 1
 157 443 l 1
 160 485 168 527 182 566 c 0
 194 599 211 629 236 654 c 0
 265 683 303 705 345 705 c 0
 367 705 389 697 405 681 c 1
 370 606 l 1
 357 605 l 1
 353 615 348 624 341 632 c 1
 329 643 314 650 297 650 c 0
 284 650 272 643 262 634 c 0
 233 604 233 509 233 443 c 1
 370 443 l 1
 358 405 l 1
EndSplineSet
EndChar

StartChar: g
Encoding: 103 103 87
Width: 568
Flags: MW
HStem: -203 44 -17 68 429 38
VStem: 85 85 407 77
LayerCount: 2
Fore
SplineSet
413 439 m 1
 463 470 l 1
 475 465 l 1
 469 385 477 231 484 113 c 0
 486 69 484 25 474 -18 c 0
 467 -50 455 -82 432 -107 c 0
 384 -161 319 -199 247 -203 c 0
 194 -206 137 -195 104 -151 c 1
 153 -85 l 1
 165 -90 l 1
 184 -128 219 -162 265 -159 c 0
 303 -157 340 -142 365 -112 c 0
 382 -92 396 -68 402 -42 c 0
 410 -7 414 28 413 64 c 1
 379 41 341 23 304 5 c 0
 282 -6 259 -16 235 -17 c 0
 203 -19 171 -10 149 13 c 0
 108 54 88 109 85 166 c 0
 83 212 88 259 100 304 c 0
 108 337 123 370 146 395 c 0
 185 438 240 463 298 466 c 0
 338 468 378 459 413 439 c 1
410 106 m 1
 397 368 l 1
 395 382 385 393 375 403 c 0
 357 421 332 433 306 431 c 0
 272 429 241 413 217 388 c 0
 196 366 185 337 178 308 c 0
 168 270 167 231 169 192 c 0
 171 150 178 106 211 78 c 0
 231 61 257 51 284 52 c 0
 331 55 377 72 410 106 c 1
EndSplineSet
EndChar

StartChar: h
Encoding: 104 104 88
Width: 621
Flags: MW
HStem: -10 72 405 63<321 401> 636 46
VStem: 120 70 419 71
LayerCount: 2
Fore
SplineSet
627 113 m 1
 646 89 l 1
 645 87 645 85 644 84 c 0
 616 57 587 32 553 14 c 1
 530 0 505 -10 478 -9 c 0
 460 -9 442 0 432 16 c 0
 420 36 418 61 416 85 c 0
 414 125 416 194 418 248 c 0
 419 278 419 308 413 338 c 0
 410 355 407 374 393 385 c 0
 376 398 354 405 332 405 c 0
 310 405 289 398 269 389 c 0
 241 376 215 360 190 342 c 1
 190 233 188 125 188 16 c 1
 116 -5 l 1
 110 4 l 1
 117 136 123 268 124 401 c 0
 124 452 124 526 121 556 c 0
 119 577 117 599 104 617 c 0
 96 628 54 636 27 642 c 1
 27 664 l 1
 196 682 l 1
 192 595 192 493 192 398 c 1
 200 391 l 1
 236 413 273 433 313 448 c 0
 341 459 371 468 401 468 c 1
 427 467 451 456 470 439 c 0
 484 427 486 408 488 390 c 0
 491 362 490 303 490 260 c 0
 490 216 489 152 491 129 c 0
 492 112 494 94 504 79 c 0
 511 69 522 62 534 62 c 0
 550 62 564 68 578 76 c 0
 596 86 612 99 627 113 c 1
EndSplineSet
EndChar

StartChar: i
Encoding: 105 105 89
Width: 360
Flags: MW
HStem: -9 71 413 59 568 115
VStem: 136 77
LayerCount: 2
Fore
SplineSet
215 392 m 2
 208 182 l 1
 208 141 211 103 220 85 c 0
 226 72 239 62 254 62 c 0
 268 62 281 68 293 74 c 0
 311 84 327 96 343 110 c 1
 361 96 l 1
 340 67 316 40 287 19 c 0
 266 5 242 -8 216 -8 c 0
 191 -8 166 0 152 22 c 0
 137 46 136 77 136 104 c 2
 141 325 l 2
 141 355 138 383 131 397 c 0
 126 407 116 413 104 413 c 0
 79 413 49 395 25 380 c 1
 9 400 l 1
 34 420 61 439 89 453 c 0
 107 462 126 471 146 471 c 0
 166 471 187 468 200 452 c 0
 214 436 215 413 215 392 c 2
229 625 m 0
 228 592 201 569 169 569 c 0
 138 569 112 595 112 627 c 0
 113 661 145 683 176 683 c 0
 209 683 229 655 229 625 c 0
EndSplineSet
EndChar

StartChar: j
Encoding: 106 106 90
Width: 331
Flags: MW
HStem: -191 21<34 34> 406 61 565 118<152 182.5>
VStem: 153 69
LayerCount: 2
Fore
SplineSet
27 375 m 1
 14 393 l 1
 41 414 68 433 98 449 c 0
 116 458 135 468 155 468 c 0
 170 468 186 465 196 455 c 0
 211 441 214 421 216 401 c 1
 221 369 221 311 222 265 c 0
 223 202 224 117 222 76 c 0
 221 49 220 21 211 -5 c 0
 198 -43 175 -76 148 -105 c 0
 115 -140 76 -168 34 -191 c 1
 21 -171 l 1
 72 -139 115 -93 133 -34 c 0
 147 10 149 135 151 221 c 0
 152 281 153 372 132 397 c 0
 125 405 114 408 103 408 c 0
 87 408 52 388 27 375 c 1
168 683 m 0
 198 683 226 661 226 629 c 0
 226 595 200 565 165 565 c 0
 132 565 109 593 109 625 c 0
 109 657 136 683 168 683 c 0
EndSplineSet
EndChar

StartChar: k
Encoding: 107 107 91
Width: 555
Flags: MW
HStem: -7 75<433.5 480.5> 465 20<449 449> 635 52
VStem: 119 73
LayerCount: 2
Fore
SplineSet
199 263 m 1
 336 389 l 2
 363 413 413 459 416 462 c 0
 427 471 437 479 449 485 c 1
 495 456 l 1
 495 445 l 1
 420 401 349 350 282 294 c 0
 275 288 264 279 264 274 c 0
 264 268 269 263 272 258 c 0
 316 201 364 147 414 95 c 0
 428 81 444 68 464 68 c 0
 497 68 524 89 546 112 c 1
 565 92 l 1
 547 72 532 49 511 32 c 0
 497 21 476 3 468 0 c 0
 458 -4 448 -7 438 -7 c 0
 429 -7 420 -4 413 1 c 1
 402 7 376 37 359 56 c 0
 306 118 251 178 199 241 c 1
 196 239 192 242 189 241 c 1
 187 13 l 1
 116 -7 l 1
 110 0 l 1
 113 120 117 240 120 359 c 0
 122 438 125 548 113 594 c 0
 109 609 98 622 83 628 c 0
 73 631 46 636 27 638 c 1
 27 662 l 1
 198 687 l 1
 189 266 l 1
 199 263 l 1
EndSplineSet
EndChar

StartChar: l
Encoding: 108 108 92
Width: 365
Flags: MW
HStem: -11 74<198.5 262> 635 52
VStem: 133 73
LayerCount: 2
Fore
SplineSet
344 118 m 1
 360 100 l 1
 341 69 318 41 289 19 c 0
 265 2 237 -10 208 -11 c 0
 189 -11 171 -4 158 9 c 0
 130 39 132 145 133 217 c 0
 135 314 132 411 133 508 c 0
 133 541 133 584 128 608 c 0
 125 621 114 630 101 632 c 0
 82 636 61 637 41 638 c 1
 41 665 l 1
 218 687 l 1
 214 544 203 402 204 259 c 0
 204 217 204 157 206 132 c 0
 208 115 210 98 219 83 c 0
 227 71 241 64 255 63 c 0
 269 63 281 70 292 77 c 0
 311 88 328 103 344 118 c 1
EndSplineSet
EndChar

StartChar: m
Encoding: 109 109 93
Width: 915
Flags: MW
HStem: -18 70<754 824> 414 58
VStem: 149 80 432 69 696 77
LayerCount: 2
Fore
SplineSet
430 -4 m 1
 432 269 l 2
 432 293 432 320 427 339 c 0
 423 355 416 370 404 382 c 0
 390 396 370 401 350 400 c 0
 333 399 316 394 300 387 c 0
 277 377 254 365 233 352 c 1
 228 239 226 127 230 14 c 1
 163 -10 l 1
 149 -2 l 1
 150 90 154 182 156 273 c 0
 157 317 158 385 144 402 c 0
 137 412 125 415 114 415 c 0
 98 415 64 396 41 383 c 1
 29 402 l 1
 53 421 78 439 105 453 c 0
 124 462 145 470 166 471 c 0
 183 471 200 465 212 454 c 0
 228 439 228 417 228 397 c 1
 233 389 l 1
 267 408 302 426 339 441 c 0
 361 450 384 459 408 459 c 0
 448 459 485 435 502 399 c 1
 533 416 565 432 599 444 c 0
 623 453 648 460 674 460 c 0
 703 460 733 454 753 433 c 0
 767 419 769 399 771 380 c 0
 773 360 773 292 773 248 c 2
 773 117 l 2
 773 99 774 79 787 66 c 0
 796 56 811 52 824 52 c 0
 849 53 885 80 912 100 c 1
 922 71 l 1
 896 46 869 23 838 6 c 0
 814 -7 789 -17 762 -18 c 0
 746 -18 729 -14 718 -2 c 0
 703 14 701 36 699 58 c 1
 699 269 l 2
 699 293 699 316 693 339 c 0
 689 356 681 370 669 382 c 0
 654 396 634 401 614 400 c 0
 574 399 537 383 502 364 c 1
 499 249 499 133 506 18 c 1
 432 -10 l 1
 430 -4 l 1
EndSplineSet
EndChar

StartChar: n
Encoding: 110 110 94
Width: 664
Flags: MW
HStem: -13 74 411 59
VStem: 133 77 431 75<229 249 249 263.5>
LayerCount: 2
Fore
SplineSet
210 18 m 1
 129 -1 l 1
 131 42 133 171 134 257 c 0
 135 303 136 370 124 394 c 0
 119 405 110 415 97 415 c 0
 79 415 46 393 22 378 c 1
 5 400 l 1
 47 430 104 472 141 471 c 0
 159 471 178 467 191 454 c 0
 207 439 211 417 212 395 c 1
 218 395 l 1
 252 416 287 436 325 450 c 0
 352 461 380 469 409 469 c 0
 438 469 468 462 486 440 c 0
 506 417 506 320 506 256 c 0
 506 202 506 118 509 92 c 0
 512 69 536 60 557 60 c 0
 583 60 619 87 646 107 c 1
 658 81 l 1
 629 56 598 32 565 12 c 0
 545 0 524 -12 501 -11 c 0
 478 -11 456 -1 444 18 c 1
 432 35 431 57 431 78 c 2
 431 249 l 2
 431 278 430 308 425 336 c 0
 422 354 419 371 408 384 c 0
 391 402 367 410 342 410 c 0
 322 410 302 403 284 395 c 0
 258 383 235 367 213 349 c 1
 209 248 210 129 210 18 c 1
EndSplineSet
EndChar

StartChar: o
Encoding: 111 111 95
Width: 563
Flags: MW
HStem: -13 40 426 41
VStem: 53 90 409 91
LayerCount: 2
Fore
SplineSet
151 316 m 0
 145 291 142 265 142 239 c 0
 142 173 156 100 207 55 c 0
 226 38 250 28 277 28 c 0
 311 28 342 39 365 64 c 0
 384 85 394 112 400 139 c 0
 406 166 408 193 408 220 c 0
 408 284 400 356 350 400 c 1
 330 419 303 425 276 425 c 0
 241 425 207 412 184 385 c 1
 166 366 157 341 151 316 c 0
250 -14 m 0
 206 -14 161 -4 128 26 c 0
 80 69 60 133 56 196 c 1
 56 265 65 338 113 390 c 0
 160 442 229 465 299 465 c 0
 346 465 393 456 429 424 c 0
 480 377 497 306 497 239 c 0
 497 174 483 108 439 59 c 0
 392 6 320 -14 250 -14 c 0
EndSplineSet
EndChar

StartChar: p
Encoding: 112 112 96
Width: 589
Flags: MW
HStem: -199 21<118 118> -11 40<262.5 273> 413 56
VStem: 114 76 438 71<230.5 310.5>
LayerCount: 2
Fore
SplineSet
199 -168 m 1
 118 -199 l 1
 108 -188 l 1
 114 -70 116 47 114 165 c 0
 114 224 117 283 114 342 c 0
 113 361 111 380 103 397 c 0
 98 407 88 414 76 414 c 0
 55 414 26 397 2 383 c 1
 -12 402 l 1
 12 421 38 439 65 452 c 0
 84 462 103 470 124 470 c 0
 140 470 156 467 168 455 c 0
 183 441 186 404 188 377 c 1
 191 376 195 375 196 375 c 0
 224 401 255 425 289 442 c 0
 318 456 349 465 381 465 c 0
 412 465 442 453 464 431 c 0
 501 392 509 337 509 284 c 0
 509 241 504 199 490 159 c 0
 479 127 462 96 436 74 c 0
 408 49 377 27 343 11 c 0
 316 -2 288 -11 258 -11 c 0
 234 -11 211 -7 188 0 c 1
 188 -1 195 -112 199 -168 c 1
191 66 m 0
 215 44 246 29 279 29 c 0
 315 29 352 40 379 66 c 0
 400 86 413 112 422 140 c 0
 434 175 438 212 438 249 c 0
 438 275 436 300 429 325 c 0
 424 343 417 361 404 376 c 0
 386 397 358 405 331 405 c 0
 280 405 234 380 198 345 c 0
 190 336 188 324 188 313 c 0
 189 231 191 67 191 66 c 0
EndSplineSet
EndChar

StartChar: q
Encoding: 113 113 97
Width: 605
Flags: MW
HStem: -194 21<419 419> -8 63 434 33 490 14
VStem: 88 95 411 76
LayerCount: 2
Fore
SplineSet
419 -194 m 1
 408 -184 l 1
 410 -136 410 -19 411 64 c 1
 359 24 298 -7 232 -7 c 0
 200 -7 169 5 146 26 c 1
 102 69 88 132 89 192 c 0
 91 279 117 366 184 424 c 0
 226 461 283 468 338 468 c 0
 371 468 402 453 432 438 c 1
 432 439 465 482 481 504 c 1
 502 500 l 1
 484 277 484 52 500 -172 c 1
 419 -194 l 1
411 115 m 1
 411 331 l 2
 411 356 411 387 395 403 c 0
 377 421 354 435 328 435 c 0
 295 435 266 419 242 397 c 0
 190 352 178 280 181 213 c 0
 182 187 185 161 192 136 c 1
 196 118 203 101 215 88 c 0
 235 66 265 55 295 55 c 0
 340 55 381 80 411 115 c 1
EndSplineSet
EndChar

StartChar: r
Encoding: 114 114 98
Width: 432
Flags: MW
HStem: -5 21<145.5 146> 415 58
VStem: 141 74
LayerCount: 2
Fore
SplineSet
361 339 m 1
 349 344 l 1
 346 360 342 377 331 389 c 0
 322 398 309 402 296 402 c 0
 255 402 228 366 214 331 c 1
 212 226 210 122 215 18 c 1
 148 -2 l 2
 147 -3 146 -4 146 -5 c 1
 145 -5 140 0 136 3 c 1
 140 74 141 163 142 243 c 0
 142 296 143 374 126 399 c 0
 120 409 110 416 99 416 c 0
 82 416 46 395 21 381 c 1
 9 398 l 1
 34 418 61 438 89 454 c 1
 107 463 125 473 144 473 c 0
 162 473 180 469 193 456 c 0
 210 439 215 413 217 389 c 1
 239 410 263 431 289 448 c 0
 303 457 318 467 336 467 c 0
 355 467 376 463 390 449 c 0
 404 435 410 410 415 388 c 1
 361 339 l 1
EndSplineSet
EndChar

StartChar: s
Encoding: 115 115 99
Width: 455
Flags: MW
HStem: -17 42<216 227.5> 431 35<238.5 254>
VStem: 90 72<339 340.5> 314 75
LayerCount: 2
Fore
SplineSet
376 383 m 1
 321 346 l 1
 309 353 l 1
 308 371 306 390 296 406 c 0
 285 424 264 431 244 431 c 0
 222 431 200 423 185 408 c 0
 169 393 162 372 162 350 c 0
 162 328 173 309 188 293 c 0
 200 281 243 262 272 248 c 0
 301 235 343 216 355 204 c 0
 374 187 387 163 387 138 c 0
 387 103 375 69 351 44 c 0
 312 2 256 -17 199 -17 c 0
 161 -17 121 -10 92 16 c 0
 76 30 62 47 52 66 c 1
 101 137 l 1
 115 136 l 1
 117 106 127 76 150 55 c 0
 172 34 201 25 231 25 c 0
 253 25 276 33 292 49 c 0
 304 62 314 79 314 97 c 0
 314 118 303 138 288 153 c 0
 269 172 241 183 215 194 c 0
 184 207 148 221 127 241 c 0
 104 262 90 291 90 323 c 0
 90 358 104 393 131 417 c 0
 167 450 214 466 263 466 c 0
 293 466 325 462 348 441 c 0
 364 426 375 405 376 383 c 1
EndSplineSet
EndChar

StartChar: t
Encoding: 116 116 100
Width: 416
Flags: MW
HStem: -9 64<223.5 302.5> 394 35<26 140 26 140 16 140 218 347> 591 20<222 222>
VStem: 141 77
LayerCount: 2
Fore
SplineSet
138 582 m 1
 222 611 l 1
 229 606 l 1
 224 547 219 488 218 429 c 1
 358 429 l 1
 347 394 l 1
 218 394 l 1
 218 337 218 269 218 222 c 1
 219 190 220 158 226 127 c 0
 229 108 233 89 245 75 c 0
 256 62 272 55 289 55 c 0
 316 55 357 81 388 101 c 1
 399 79 l 1
 372 54 343 31 311 14 c 0
 287 1 262 -9 235 -9 c 0
 212 -9 190 -1 174 15 c 0
 144 44 143 135 142 199 c 1
 142 264 139 329 140 394 c 1
 16 394 l 1
 26 429 l 1
 140 429 l 1
 140 480 140 555 138 582 c 1
EndSplineSet
EndChar

StartChar: u
Encoding: 117 117 101
Width: 642
Flags: MW
HStem: -15 66 407 61
VStem: 129 72 422 77<111 470 435 470>
LayerCount: 2
Fore
SplineSet
641 111 m 1
 655 86 l 1
 625 60 594 36 561 16 c 0
 540 4 518 -8 494 -8 c 0
 476 -8 457 -3 444 10 c 0
 430 24 427 45 425 64 c 1
 417 65 l 1
 380 43 342 23 302 6 c 0
 279 -4 256 -14 231 -14 c 0
 203 -14 175 -6 155 14 c 0
 122 48 126 166 129 246 c 0
 130 299 133 377 110 399 c 0
 104 406 95 409 86 409 c 0
 75 409 38 389 15 376 c 1
 -1 395 l 1
 25 415 52 434 81 450 c 0
 98 459 116 468 135 468 c 0
 151 468 169 465 181 453 c 0
 195 439 197 419 199 399 c 0
 201 379 201 296 201 244 c 0
 201 185 201 101 228 74 c 0
 244 58 268 51 291 51 c 0
 312 51 332 58 350 66 c 0
 376 78 399 94 422 111 c 1
 423 219 425 381 422 435 c 1
 499 470 l 1
 512 459 l 1
 504 366 500 273 500 181 c 0
 500 145 500 95 516 79 c 0
 525 70 537 65 549 65 c 0
 562 65 575 71 586 77 c 0
 606 86 623 98 641 111 c 1
EndSplineSet
EndChar

StartChar: v
Encoding: 118 118 102
Width: 495
Flags: MW
HStem: -11 21<213.5 221.5> 410 59
VStem: 396 70<295.5 379.5>
LayerCount: 2
Fore
SplineSet
411 460 m 1
 429 457 l 1
 450 429 466 397 466 362 c 0
 466 307 439 258 411 212 c 0
 366 140 311 77 252 17 c 0
 241 6 225 -11 218 -11 c 0
 209 -11 201 -5 198 4 c 0
 173 84 150 165 129 247 c 0
 116 298 97 371 79 395 c 0
 72 404 63 412 51 412 c 0
 29 412 10 401 -9 390 c 1
 -21 411 l 1
 2 427 26 442 52 454 c 0
 69 462 86 469 104 469 c 0
 119 469 132 461 141 450 c 0
 162 425 184 335 198 275 c 0
 212 217 229 160 244 102 c 0
 247 92 254 82 265 82 c 0
 270 82 281 96 289 104 c 0
 319 139 347 177 368 218 c 0
 384 248 396 279 396 312 c 0
 396 344 376 380 359 412 c 1
 359 423 l 1
 411 460 l 1
EndSplineSet
EndChar

StartChar: w
Encoding: 119 119 103
Width: 812
Flags: MW
HStem: -8 21<175 175 527.5 540> 412 55
VStem: 713 69<295.5 388>
LayerCount: 2
Fore
SplineSet
675 416 m 1
 676 429 l 1
 741 469 l 1
 765 441 782 407 782 369 c 0
 782 314 755 263 726 216 c 0
 682 142 626 76 568 13 c 0
 558 3 547 -8 533 -8 c 0
 522 -8 516 2 512 11 c 0
 492 58 446 236 416 350 c 0
 416 351 410 356 407 360 c 1
 403 358 397 355 396 355 c 0
 332 253 272 124 217 5 c 1
 175 -8 l 1
 168 -2 l 1
 160 73 154 148 146 222 c 0
 143 249 140 275 136 301 c 0
 130 337 123 374 100 402 c 0
 95 408 87 412 79 412 c 0
 56 412 23 395 -4 381 c 1
 -13 401 l 1
 13 420 39 437 68 452 c 0
 85 461 102 469 121 469 c 0
 139 469 155 463 167 450 c 0
 187 428 194 398 199 370 c 0
 215 285 219 198 230 112 c 1
 290 221 350 330 405 441 c 1
 457 467 l 1
 469 464 l 1
 495 338 522 210 566 92 c 0
 569 85 576 81 584 81 c 0
 588 81 593 87 596 91 c 0
 628 131 659 173 683 219 c 0
 698 248 713 279 713 312 c 0
 713 327 708 342 703 356 c 0
 696 377 686 397 675 416 c 1
EndSplineSet
EndChar

StartChar: x
Encoding: 120 120 104
Width: 526
Flags: MW
HStem: -15 78 406 59
VStem: 2 510<82 400>
LayerCount: 2
Fore
SplineSet
422 462 m 1
 458 428 l 1
 395 374 335 315 281 252 c 1
 313 192 357 108 388 81 c 0
 398 72 410 63 425 63 c 0
 437 63 448 69 458 74 c 0
 474 83 488 94 502 106 c 1
 512 82 l 1
 489 57 465 32 437 12 c 0
 421 0 404 -12 384 -12 c 0
 367 -12 353 -3 341 9 c 1
 325 23 314 42 303 61 c 0
 287 87 255 148 232 192 c 1
 191 131 154 67 121 0 c 1
 105 -4 l 1
 70 16 l 1
 114 88 164 156 215 223 c 1
 186 282 148 359 114 394 c 0
 105 403 93 409 80 409 c 0
 59 409 39 397 21 385 c 1
 2 400 l 1
 25 418 49 434 74 448 c 0
 89 456 104 464 120 464 c 0
 137 464 155 461 168 449 c 0
 191 426 235 342 264 286 c 1
 302 348 356 405 407 459 c 1
 422 462 l 1
EndSplineSet
EndChar

StartChar: y
Encoding: 121 121 105
Width: 593
Flags: MW
HStem: -192 45<232.5 263> -9 64<198.5 282.5> 409 58
VStem: 110 72 405 81
LayerCount: 2
Fore
SplineSet
94 -138 m 1
 142 -74 l 1
 155 -74 l 1
 176 -112 210 -147 255 -147 c 0
 292 -147 327 -131 352 -105 c 0
 371 -86 382 -60 390 -34 c 0
 400 1 404 37 405 73 c 1
 369 50 332 28 293 12 c 0
 267 1 240 -9 211 -9 c 0
 186 -9 162 -2 144 15 c 1
 124 32 119 60 115 86 c 0
 108 129 107 174 109 218 c 0
 111 279 115 369 96 395 c 0
 89 405 77 410 65 410 c 0
 48 410 17 394 -6 382 c 1
 -17 401 l 1
 10 419 38 437 68 451 c 0
 85 460 103 468 122 468 c 0
 137 468 152 463 162 453 c 0
 176 439 179 418 181 398 c 0
 185 341 181 283 181 225 c 1
 182 193 183 162 189 131 c 0
 192 113 195 94 208 80 c 0
 224 62 248 55 272 55 c 0
 293 55 314 61 334 70 c 0
 360 81 383 97 406 114 c 1
 410 219 408 324 400 428 c 1
 479 466 l 1
 491 462 l 1
 485 375 485 288 485 201 c 0
 485 136 482 71 467 8 c 0
 458 -34 444 -77 414 -109 c 0
 366 -161 299 -192 227 -192 c 0
 177 -192 131 -171 94 -138 c 1
EndSplineSet
EndChar

StartChar: z
Encoding: 122 122 106
Width: 470
Flags: MW
HStem: -11 80 372 90
VStem: 24 455<8 139>
LayerCount: 2
Fore
SplineSet
413 462 m 1
 428 449 l 1
 331 327 227 211 133 87 c 1
 205 81 347 69 348 69 c 0
 372 69 394 79 412 96 c 0
 429 113 444 131 457 151 c 1
 479 139 l 1
 438 59 l 2
 428 38 416 18 396 6 c 0
 380 -4 360 -8 341 -8 c 0
 330 -8 255 0 212 5 c 0
 173 9 106 16 95 16 c 0
 75 17 59 3 45 -11 c 1
 24 8 l 1
 122 129 211 258 315 374 c 1
 303 372 290 371 277 371 c 0
 261 371 233 377 211 382 c 0
 193 386 173 390 157 390 c 0
 141 390 125 383 113 373 c 0
 101 363 82 338 68 319 c 1
 48 332 l 1
 98 421 l 2
 105 432 113 446 122 452 c 0
 133 460 147 462 160 462 c 0
 184 462 218 453 247 446 c 0
 276 439 308 431 335 431 c 0
 364 431 390 445 413 462 c 1
EndSplineSet
EndChar

StartChar: dotlessi
Encoding: 305 305 107
Width: 333
Flags: MW
HStem: -11 71<188 246.5> 409 59<73 136.5>
VStem: 121 74
LayerCount: 2
Fore
SplineSet
328 109 m 1
 346 96 l 1
 326 67 302 39 273 18 c 0
 251 2 227 -11 200 -11 c 0
 176 -11 151 -2 138 19 c 0
 125 40 123 65 121 89 c 0
 119 122 120 209 121 269 c 0
 122 311 123 372 111 393 c 0
 106 402 96 409 85 409 c 0
 61 409 30 390 5 374 c 1
 -11 394 l 1
 14 414 40 433 68 449 c 0
 87 459 106 468 127 468 c 0
 146 468 166 464 179 449 c 0
 191 435 192 417 194 399 c 0
 196 372 194 313 193 270 c 0
 191 207 188 114 205 83 c 1
 211 69 225 60 240 60 c 0
 253 60 266 66 278 73 c 0
 296 83 312 96 328 109 c 1
EndSplineSet
EndChar

StartChar: dotlessj
Encoding: 567 567 108
Width: 331
Flags: MW
HStem: -191 21<34 34> 408 60<95 162.5>
VStem: 150 72
LayerCount: 2
Fore
SplineSet
27 375 m 1
 14 393 l 1
 41 414 68 433 98 449 c 0
 116 458 135 468 155 468 c 0
 170 468 186 465 196 455 c 0
 211 441 214 421 216 401 c 1
 221 369 221 311 222 265 c 0
 223 202 224 117 222 76 c 0
 221 49 220 21 211 -5 c 0
 198 -43 175 -76 148 -105 c 0
 115 -140 76 -168 34 -191 c 1
 21 -171 l 1
 72 -139 115 -93 133 -34 c 0
 147 10 149 135 151 221 c 0
 152 281 153 372 132 397 c 0
 125 405 114 408 103 408 c 0
 87 408 52 388 27 375 c 1
EndSplineSet
EndChar

StartChar: weierstrass
Encoding: 8472 8472 109
Width: 604
Flags: MW
HStem: -196 44<175.5 182.5> -6 54 407 64
VStem: 60 49<-48.5 -47.5> 259 41<-39.5 -37.5> 506 60<259.5 275.5>
LayerCount: 2
Fore
SplineSet
285 59 m 1
 335 105 l 1
 339 89 347 74 359 63 c 1
 368 53 382 49 395 49 c 0
 418 49 438 60 454 76 c 0
 473 95 485 120 492 146 c 0
 502 180 506 216 506 251 c 0
 506 300 498 350 463 385 c 0
 447 401 426 408 404 408 c 0
 385 408 367 401 350 392 c 0
 328 380 309 365 292 347 c 0
 270 325 237 275 206 223 c 1
 232 178 257 132 276 84 c 0
 279 76 282 68 285 59 c 1
198 464 m 1
 212 454 l 1
 186 421 161 385 161 342 c 0
 161 324 166 307 172 290 c 0
 177 278 182 266 188 255 c 1
 198 271 208 288 218 304 c 0
 235 331 253 358 275 380 c 0
 302 406 331 430 363 447 c 0
 389 461 417 471 446 471 c 0
 474 471 502 462 522 442 c 0
 558 406 566 355 566 306 c 0
 566 213 541 118 475 51 c 0
 458 35 440 20 420 9 c 0
 405 0 388 -6 371 -6 c 0
 341 -6 314 9 294 30 c 1
 298 15 300 1 300 -14 c 0
 300 -65 289 -119 252 -156 c 0
 229 -179 199 -196 166 -196 c 0
 141 -196 117 -188 99 -171 c 0
 71 -143 60 -104 60 -65 c 0
 60 -30 70 4 81 36 c 0
 97 83 119 129 143 173 c 0
 144 176 146 179 147 181 c 1
 138 198 129 215 122 233 c 0
 113 257 105 281 105 306 c 0
 105 372 147 427 198 464 c 1
164 153 m 1
 162 149 160 146 158 142 c 0
 128 90 109 31 109 -30 c 0
 109 -67 117 -105 144 -132 c 0
 154 -143 168 -152 183 -152 c 0
 201 -152 219 -143 232 -130 c 0
 252 -109 259 -79 259 -51 c 0
 259 -24 248 2 237 26 c 0
 218 66 196 104 172 141 c 0
 169 145 167 149 164 153 c 1
EndSplineSet
EndChar

StartChar: minus
Encoding: 8722 8722 111
Width: 756
Flags: MW
HStem: 236 39<62 693 46 706>
VStem: 46 660<236 275>
LayerCount: 2
Fore
SplineSet
693 236 m 1
 46 236 l 1
 62 275 l 1
 706 275 l 1
 693 236 l 1
EndSplineSet
EndChar

StartChar: similar
Encoding: 8764 8764 112
Width: 551
Flags: MW
GlyphVariantsHorizontal: similar similar.wide similar.wider similar.widest
HStem: 178 41<415.5 430> 305 42<140 148.5>
VStem: 22 508<240 275>
LayerCount: 2
Fore
SplineSet
281 291 m 2
 355 245 l 2
 377 231 402 219 429 219 c 0
 448 219 466 227 481 239 c 0
 496 252 507 269 512 288 c 1
 530 275 l 1
 519 249 504 223 481 205 c 1
 463 189 442 178 418 178 c 0
 380 178 345 194 313 214 c 2
 214 277 l 2
 190 292 163 305 134 305 c 0
 115 305 95 301 79 289 c 0
 66 279 52 253 41 232 c 1
 22 240 l 1
 34 264 48 286 65 306 c 0
 78 321 92 334 111 340 c 0
 122 344 134 347 146 347 c 0
 165 347 184 341 202 333 c 0
 230 322 256 307 281 291 c 2
EndSplineSet
EndChar

StartChar: logicalnot
Encoding: 172 172 113
Width: 684
Flags: MW
HStem: 206 21<596 628 596 596> 368 41<25 550 25 112.5>
VStem: 581 47<352.5 353>
LayerCount: 2
Fore
SplineSet
628 409 m 1
 628 206 l 1
 596 206 l 1
 591 255 581 352 581 353 c 0
 580 358 578 363 574 366 c 0
 571 368 558 368 550 368 c 0
 375 368 200 368 25 368 c 1
 25 409 l 1
 628 409 l 1
EndSplineSet
EndChar

StartChar: Rfractur
Encoding: 8476 8476 114
Width: 828
Flags: MW
HStem: -11 21<693 693> 43 79<102.5 166> 357 48 644 59<174.5 274>
VStem: 27 64<494.5 575> 112 75<338.5 400.5> 352 81 629 82
LayerCount: 2
Fore
SplineSet
693 -11 m 1
 629 106 l 1
 632 171 635 239 623 298 c 0
 621 311 611 321 602 330 c 0
 581 351 551 357 522 357 c 0
 495 357 460 348 428 340 c 1
 425 318 421 295 416 274 c 0
 404 222 386 172 357 128 c 1
 301 83 247 36 192 -11 c 1
 170 12 139 43 118 43 c 0
 87 43 61 24 43 0 c 1
 27 16 l 1
 49 45 72 72 100 94 c 0
 118 108 137 122 160 122 c 0
 172 122 182 115 191 108 c 0
 207 95 221 79 235 64 c 1
 271 86 301 116 320 154 c 0
 334 182 339 213 344 244 c 0
 350 290 352 337 352 383 c 0
 352 426 347 469 335 510 c 0
 326 542 311 573 288 596 c 0
 261 623 226 644 187 644 c 0
 162 644 137 638 119 620 c 0
 104 605 91 586 91 564 c 0
 91 551 97 539 103 527 c 0
 113 510 126 494 139 479 c 0
 152 464 165 448 174 431 c 1
 181 420 187 407 187 394 c 0
 187 369 173 347 157 328 c 0
 134 300 105 279 75 261 c 1
 54 277 l 1
 84 294 112 320 112 357 c 0
 112 369 86 404 70 426 c 0
 51 451 27 483 27 506 c 0
 27 554 54 597 88 630 c 1
 131 674 189 703 251 703 c 0
 297 703 341 682 373 649 c 0
 396 626 412 599 422 570 c 1
 438 590 455 610 474 628 c 0
 516 670 569 703 629 703 c 0
 651 703 673 694 687 676 c 0
 702 658 706 631 709 607 c 0
 711 591 711 574 714 558 c 0
 715 552 716 547 719 543 c 0
 726 534 737 531 747 530 c 0
 763 528 778 529 794 532 c 1
 804 516 l 1
 775 506 746 495 719 479 c 0
 680 457 642 433 607 405 c 1
 641 405 672 389 698 367 c 1
 701 301 705 197 714 170 c 0
 721 148 729 127 741 107 c 0
 748 97 755 85 767 85 c 0
 772 85 806 99 826 106 c 1
 826 91 l 1
 693 -11 l 1
432 367 m 1
 464 380 494 398 528 405 c 1
 577 429 675 478 676 479 c 1
 663 481 649 485 639 495 c 0
 632 503 627 540 623 564 c 1
 621 583 616 601 607 618 c 0
 599 634 583 644 565 644 c 0
 540 644 518 630 501 612 c 0
 475 586 454 545 435 508 c 1
 436 495 437 482 437 469 c 0
 437 435 435 401 432 367 c 1
EndSplineSet
EndChar

StartChar: Ifractur
Encoding: 8465 8465 115
Width: 554
Flags: MW
HStem: -11 48 618 85<194.5 202>
VStem: 378 86<230 245>
LayerCount: 2
Fore
SplineSet
522 687 m 1
 533 671 l 1
 486 627 435 589 378 559 c 1
 335 575 278 597 249 606 c 0
 230 612 212 618 192 618 c 0
 162 618 133 607 112 586 c 0
 83 556 63 518 48 479 c 1
 30 490 l 1
 42 526 56 561 72 596 c 0
 83 619 95 641 112 660 c 0
 138 689 175 703 214 703 c 0
 256 703 318 673 368 649 c 0
 385 641 402 634 421 634 c 0
 436 634 450 640 463 647 c 0
 484 658 503 672 522 687 c 1
43 0 m 1
 38 16 l 1
 68 59 105 98 144 133 c 1
 169 173 168 94 197 64 c 0
 214 47 237 37 261 37 c 0
 291 37 316 54 336 75 c 0
 352 91 361 112 367 134 c 0
 376 163 378 193 378 224 c 0
 378 266 373 309 368 351 c 0
 363 394 357 437 362 479 c 1
 402 524 445 565 496 596 c 1
 512 591 l 1
 492 573 474 553 460 530 c 0
 451 515 442 498 442 479 c 1
 444 458 444 437 448 415 c 0
 455 364 464 309 464 261 c 0
 464 199 450 135 405 91 c 1
 348 33 274 -11 192 -11 c 0
 155 -11 123 13 96 37 c 1
 43 0 l 1
EndSplineSet
EndChar

StartChar: aleph
Encoding: 8501 8501 116
Width: 774
Flags: MW
HStem: 1 115<95 329> 532 118 669 20<78 109 109 109 442 466 466 466>
VStem: 125 53 460 54<327 351 351 355 318 384>
LayerCount: 2
Fore
SplineSet
329 116 m 1
 311 1 l 1
 95 1 l 1
 125 105 l 1
 125 160 125 238 142 266 c 0
 164 301 187 335 216 364 c 1
 168 402 123 448 78 492 c 1
 78 689 l 1
 109 689 l 1
 115 623 157 570 208 529 c 0
 292 462 459 327 460 327 c 1
 460 351 l 2
 460 417 479 483 526 530 c 1
 502 530 468 530 458 541 c 0
 447 552 442 568 442 583 c 0
 442 618 442 654 442 689 c 1
 466 689 l 1
 469 678 474 667 482 659 c 0
 491 650 510 650 525 650 c 2
 645 650 l 2
 668 650 689 634 689 611 c 2
 689 512 l 1
 674 507 l 1
 663 521 648 534 630 534 c 2
 568 534 l 1
 558 530 552 521 546 512 c 0
 538 498 533 483 528 468 c 0
 516 424 514 378 514 332 c 0
 514 304 525 277 545 257 c 0
 584 218 639 179 689 143 c 1
 668 1 l 1
 647 1 l 1
 581 67 512 131 439 190 c 0
 376 242 312 294 244 341 c 1
 241 340 237 339 236 339 c 0
 220 322 205 304 193 284 c 0
 185 270 178 254 178 237 c 0
 178 205 184 172 208 149 c 1
 220 136 237 129 255 125 c 1
 279 118 304 116 329 116 c 1
EndSplineSet
EndChar

StartChar: logicaland
Encoding: 8743 8743 117
Width: 775
Flags: MW
GlyphVariantsVertical: logicaland logicaland.text logicaland.display
HStem: -9 21<697 697> 694 20<395 395>
VStem: 11 757<2 10>
LayerCount: 2
Fore
SplineSet
404 713 m 1
 768 2 l 1
 697 -9 l 1
 392 616 l 1
 85 2 l 1
 22 -1 l 1
 11 10 l 1
 395 714 l 1
 404 713 l 1
EndSplineSet
EndChar

StartChar: logicalor
Encoding: 8744 8744 118
Width: 775
Flags: MW
GlyphVariantsVertical: logicalor logicalor.text logicalor.display
HStem: -12 21<367 382 367 367> 668 20<75 75 689 752 752 752>
VStem: 6 750<677 684>
LayerCount: 2
Fore
SplineSet
756 684 m 1
 382 -12 l 1
 367 -12 l 1
 6 677 l 1
 75 688 l 1
 381 76 l 1
 689 688 l 1
 752 688 l 1
 756 684 l 1
EndSplineSet
EndChar

StartChar: braceleft
Encoding: 123 123 119
Width: 320
Flags: MW
IsExtendedShape: 1
GlyphVariantsVertical: braceleft braceleft.big braceleft.Big braceleft.bigg braceleft.Bigg
GlyphCompositionVertical: 5  uni23A9%0,303,303,909 uni23AA%1,107,107,320 uni23A8%0,607,607,1820 uni23AA%1,107,107,320 uni23A7%0,303,303,909
HStem: -178 17<278.5 292 278.5 292> 259 26<-3 20.5> 710 20<271.5 292>
VStem: 108 51<497.5 531.5>
LayerCount: 2
Fore
SplineSet
292 -161 m 1
 292 -178 l 1
 253 -178 200 -178 176 -172 c 0
 161 -168 148 -160 138 -149 c 0
 119 -128 115 -99 112 -72 c 0
 109 -48 109 -2 109 34 c 0
 109 103 109 208 84 236 c 0
 76 245 64 250 51 253 c 0
 34 258 15 259 -3 259 c 1
 7 285 l 1
 34 285 62 286 82 305 c 0
 98 319 101 342 104 363 c 0
 108 398 108 463 108 514 c 0
 108 549 108 610 109 620 c 0
 112 648 117 676 134 698 c 0
 143 709 155 718 169 723 c 0
 190 730 251 730 292 730 c 1
 292 712 l 1
 263 712 234 711 206 702 c 0
 194 698 186 689 180 678 c 1
 172 666 168 651 165 636 c 0
 159 597 159 558 159 518 c 0
 159 477 158 436 152 395 c 0
 149 372 146 348 133 329 c 0
 114 300 85 280 54 274 c 1
 54 273 l 1
 77 268 102 256 119 235 c 0
 137 213 143 186 148 159 c 0
 157 116 159 73 159 30 c 0
 159 -10 161 -50 167 -89 c 0
 170 -103 174 -116 182 -128 c 0
 189 -139 200 -148 212 -152 c 0
 238 -160 265 -161 292 -161 c 1
EndSplineSet
EndChar

StartChar: braceright
Encoding: 125 125 120
Width: 320
Flags: MW
IsExtendedShape: 1
GlyphVariantsVertical: braceright braceright.big braceright.Big braceright.bigg braceright.Bigg
GlyphCompositionVertical: 5  uni23AD%0,303,303,909 uni23AA%1,107,107,320 uni23AC%0,607,607,1820 uni23AA%1,107,107,320 uni23AB%0,303,303,909
HStem: -177 21<21 49> 263 24<295.5 321> 717 17<21 32>
VStem: 159 52
LayerCount: 2
Fore
SplineSet
321 287 m 1
 308 263 l 1
 283 263 256 261 236 245 c 0
 220 231 218 208 215 188 c 0
 212 158 212 84 212 33 c 0
 212 -8 211 -49 204 -89 c 0
 201 -111 197 -135 181 -151 c 0
 156 -177 77 -177 21 -177 c 1
 21 -159 l 1
 44 -159 67 -158 90 -154 c 0
 104 -151 119 -148 129 -139 c 0
 158 -113 158 -28 158 31 c 0
 158 75 160 119 168 162 c 0
 173 188 178 215 196 235 c 0
 215 256 242 267 267 273 c 1
 267 274 l 1
 241 281 214 295 195 317 c 0
 177 338 170 365 165 391 c 0
 156 434 155 477 155 520 c 0
 155 558 154 597 147 635 c 1
 144 657 140 679 125 695 c 0
 115 705 101 708 88 711 c 0
 66 716 43 717 21 717 c 1
 21 734 l 1
 56 734 91 733 125 726 c 0
 144 722 166 718 179 702 c 0
 206 670 206 584 206 521 c 0
 206 473 206 409 208 378 c 0
 210 358 212 337 223 320 c 0
 232 307 245 300 259 296 c 0
 279 289 300 287 321 287 c 1
EndSplineSet
EndChar

StartChar: bar
Encoding: 124 124 121
Width: 213
Flags: MW
HStem: -172 21<86 86> 718 20<121 121>
VStem: 86 35<-159 -159 -159 719 719 719>
LayerCount: 2
Fore
SplineSet
121 -159 m 1
 86 -172 l 1
 86 719 l 1
 121 738 l 1
 121 -159 l 1
EndSplineSet
EndChar

StartChar: backslash
Encoding: 92 92 122
Width: 501
Flags: MW
GlyphVariantsVertical: backslash backslash.big backslash.Big backslash.bigg backslash.Bigg
HStem: -194 21<430 430> 706 20<73 73>
VStem: 35 427
LayerCount: 2
Fore
SplineSet
430 -194 m 1
 38 709 l 1
 73 726 l 1
 462 -171 l 1
 430 -194 l 1
EndSplineSet
EndChar

StartChar: section
Encoding: 167 167 123
Width: 515
Flags: MW
HStem: -107 34<231.5 261> 669 32<256.5 258>
VStem: 109 57<514.5 575> 357 60<51 60.5>
LayerCount: 2
Fore
SplineSet
385 166 m 1
 388 170 l 2
 401 188 406 210 406 232 c 0
 406 261 390 285 370 305 c 0
 349 327 308 345 274 361 c 0
 227 383 160 413 140 436 c 1
 125 418 110 397 110 373 c 0
 110 350 120 328 136 312 c 0
 164 284 206 264 244 246 c 0
 294 223 359 193 385 166 c 1
56 23 m 1
 134 53 l 1
 134 17 142 -19 167 -45 c 0
 188 -66 217 -73 246 -73 c 0
 279 -73 308 -57 331 -34 c 0
 352 -13 357 19 357 48 c 0
 357 73 345 95 327 113 c 0
 307 133 254 157 215 176 c 1
 177 193 133 214 108 239 c 0
 82 265 71 302 71 338 c 0
 71 384 93 426 119 464 c 1
 113 484 109 504 109 525 c 0
 109 572 124 620 158 654 c 0
 190 685 234 701 279 701 c 0
 297 701 316 699 334 695 c 1
 347 691 360 686 370 676 c 0
 385 662 397 643 397 622 c 0
 397 615 393 597 391 585 c 1
 332 564 l 1
 317 575 l 1
 317 590 316 606 312 621 c 0
 309 631 305 642 298 650 c 0
 285 663 267 669 249 669 c 0
 226 669 207 655 191 639 c 0
 171 619 166 589 166 561 c 0
 166 536 174 512 192 494 c 0
 197 488 204 484 211 480 c 0
 240 463 271 448 301 431 c 0
 339 409 383 397 414 366 c 0
 436 344 451 316 451 285 c 0
 451 234 432 186 399 149 c 1
 412 128 417 101 417 75 c 0
 417 27 399 -19 365 -53 c 0
 331 -87 285 -107 237 -107 c 0
 185 -107 131 -97 94 -60 c 0
 72 -38 59 -8 56 23 c 1
EndSplineSet
EndChar

StartChar: u1D49C
Encoding: 119964 119964 124
Width: 770
Flags: W
HStem: -10 41<69.5 113.5> 236 43<324 527 324 528 303 527> 649 38
VStem: -8 78<55 91.5> 527 66<279 390>
LayerCount: 2
Fore
SplineSet
619 687 m 1
 621 681 l 1
 611 671 l 2
 602 663 597 652 596 641 c 0
 593 591 593 440 593 340 c 0
 593 270 594 199 600 129 c 0
 602 105 606 79 623 62 c 0
 629 56 638 56 646 56 c 0
 659 56 671 61 682 68 c 0
 698 77 713 89 726 102 c 1
 738 83 l 1
 711 56 683 31 651 11 c 0
 631 -2 609 -15 584 -15 c 0
 571 -15 557 -11 548 -1 c 0
 540 7 536 18 533 29 c 0
 529 45 528 61 528 78 c 2
 528 236 l 1
 303 236 l 1
 267 167 218 72 184 38 c 0
 156 10 120 -10 81 -10 c 0
 58 -10 35 -1 18 15 c 1
 0 34 -8 59 -8 85 c 0
 -8 98 -3 112 7 122 c 0
 15 130 26 131 37 131 c 0
 49 131 60 126 68 117 c 1
 73 113 75 106 75 99 c 0
 75 95 74 88 73 83 c 0
 71 75 70 67 70 59 c 0
 70 51 75 46 80 41 c 0
 87 34 96 31 105 31 c 0
 122 31 136 42 148 54 c 0
 169 74 182 101 194 128 c 0
 206 154 250 265 277 335 c 1
 303 399 330 462 363 524 c 0
 383 561 404 600 435 630 c 1
 455 651 482 664 510 672 c 0
 545 683 582 687 619 687 c 1
324 279 m 1
 527 279 l 1
 524 640 l 1
 519 649 l 1
 500 643 481 634 466 619 c 0
 435 588 418 546 401 505 c 0
 370 432 346 355 324 279 c 1
EndSplineSet
EndChar

StartChar: u1D49D
Encoding: 119965 119965 125
Width: 761
Flags: W
HStem: -4 53<107 132 107 129.5> 352 28<379.5 438> 651 35
VStem: 42 80<454 499.5> 289 70<386.5 436.5 436.5 648 648 648> 566 69<532 543>
LayerCount: 2
Fore
SplineSet
517 383 m 1
 520 376 l 1
 564 376 609 364 640 332 c 0
 667 305 683 269 683 231 c 0
 683 180 663 131 628 95 c 1
 561 29 470 -4 377 -4 c 0
 278 -4 179 -4 80 -4 c 1
 107 49 l 1
 157 49 201 75 236 110 c 0
 259 134 268 167 275 200 c 0
 287 251 289 303 289 356 c 2
 289 648 l 1
 236 648 184 627 146 589 c 0
 127 571 111 548 111 521 c 0
 111 510 114 499 116 488 c 0
 118 478 122 470 122 460 c 0
 122 448 121 436 113 428 c 0
 104 419 91 413 78 413 c 0
 71 413 64 417 59 423 c 0
 44 437 42 458 42 478 c 0
 42 521 63 561 93 592 c 1
 145 643 214 671 286 682 c 1
 355 715 l 1
 359 686 l 1
 412 686 464 683 515 673 c 0
 547 666 580 659 602 636 c 0
 624 614 635 584 635 554 c 0
 635 510 619 468 588 437 c 0
 567 416 543 397 517 383 c 1
384 380 m 0
 437 380 490 393 528 431 c 0
 554 456 566 491 566 527 c 0
 566 559 556 590 534 612 c 0
 516 630 492 637 469 643 c 0
 433 651 396 654 359 654 c 1
 359 567 359 480 359 393 c 0
 359 380 375 380 384 380 c 0
232 49 m 1
 390 48 l 2
 427 48 464 51 501 60 c 0
 526 67 551 76 570 95 c 0
 602 127 610 174 610 219 c 0
 610 253 595 286 571 310 c 0
 555 326 534 335 512 341 c 0
 483 350 453 352 423 352 c 0
 401 352 378 351 356 349 c 1
 349 296 342 242 321 192 c 0
 299 140 272 89 232 49 c 1
EndSplineSet
EndChar

StartChar: u1D49E
Encoding: 119966 119966 126
Width: 602
Flags: W
HStem: -15 34<326 358> 381 30<380.5 401 380.5 412.5> 669 32<344.5 383.5>
VStem: 70 74<312.5 344.5> 263 74 492 69<530.5 559>
LayerCount: 2
Fore
SplineSet
500 152 m 1
 546 105 l 1
 537 86 526 67 511 51 c 0
 462 2 392 -15 324 -15 c 0
 261 -15 200 9 155 54 c 0
 125 84 105 122 92 163 c 0
 76 211 70 263 70 314 c 0
 70 375 77 437 96 495 c 0
 111 543 134 589 170 624 c 0
 226 680 305 701 384 701 c 0
 435 701 490 693 527 655 c 1
 554 629 561 591 561 554 c 0
 561 507 545 461 512 428 c 0
 480 395 435 381 390 381 c 0
 352 381 313 387 285 414 c 0
 270 429 263 450 263 472 c 0
 263 485 265 499 274 508 c 0
 282 517 294 519 306 519 c 0
 317 519 329 516 337 508 c 0
 347 497 344 481 341 467 c 0
 337 451 337 433 349 421 c 0
 359 411 374 411 387 411 c 0
 415 411 440 424 459 443 c 0
 485 469 492 507 492 542 c 0
 492 576 485 611 461 635 c 0
 436 660 401 669 366 669 c 0
 313 669 260 654 223 617 c 0
 193 587 176 547 165 507 c 0
 149 452 144 396 144 339 c 0
 144 286 150 233 167 183 c 0
 180 142 201 102 232 71 c 0
 263 40 304 19 348 19 c 0
 387 19 424 35 451 62 c 0
 473 84 483 115 489 145 c 1
 500 152 l 1
EndSplineSet
EndChar

StartChar: u1D49F
Encoding: 119967 119967 127
Width: 830
Flags: W
HStem: 4 50<112 141 240 375 375 375 112 132.5> 657 31<277.5 308> 699 20<371 371>
VStem: 48 78<480 484 467 511> 308 67<390 461 461 656 605.5 656> 691 73<361 423.5>
LayerCount: 2
Fore
SplineSet
371 719 m 1
 375 712 l 1
 375 692 l 1
 440 692 506 686 568 668 c 0
 615 654 661 633 696 598 c 0
 750 545 764 467 764 392 c 0
 764 289 724 190 652 117 c 1
 578 44 479 4 375 4 c 0
 278 4 181 4 84 4 c 1
 112 54 l 1
 170 54 224 79 265 120 c 0
 285 141 291 171 296 200 c 1
 306 248 308 298 308 347 c 0
 308 451 308 554 308 657 c 1
 247 657 186 639 142 595 c 0
 127 580 119 560 119 539 c 0
 119 517 126 495 126 473 c 0
 126 461 125 448 116 439 c 0
 109 431 99 423 88 423 c 0
 78 423 69 428 63 434 c 0
 48 449 48 470 48 490 c 0
 48 532 66 572 95 601 c 0
 153 659 233 688 314 688 c 1
 371 719 l 1
285 101 m 2
 240 54 l 1
 285 54 330 54 375 54 c 0
 422 54 469 59 514 73 c 0
 549 84 583 100 609 127 c 1
 639 156 657 194 670 234 c 0
 686 283 691 335 691 387 c 0
 691 460 670 534 618 587 c 1
 591 613 557 628 521 638 c 0
 474 652 425 656 375 656 c 1
 375 578 375 500 375 422 c 0
 375 358 369 293 352 231 c 1
 338 184 319 137 285 101 c 2
EndSplineSet
EndChar

StartChar: u1D4A0
Encoding: 119968 119968 128
Width: 608
Flags: W
HStem: -12 36<302.5 347> 364 25<401 418> 675 32<334.5 348>
VStem: 69 80<165.5 200> 420 71<614.5 617 594.5 627.5>
LayerCount: 2
Fore
SplineSet
487 154 m 1
 531 106 l 1
 525 93 516 75 509 68 c 0
 456 16 384 -12 310 -12 c 0
 271 -12 232 -8 195 4 c 0
 165 14 136 29 113 51 c 0
 81 83 69 128 69 173 c 0
 69 227 93 279 131 318 c 1
 167 353 214 372 264 379 c 1
 265 389 l 1
 236 399 208 413 187 434 c 0
 159 462 150 501 150 540 c 0
 150 581 167 621 196 650 c 0
 240 694 304 707 365 707 c 0
 402 707 440 695 467 668 c 0
 484 652 491 629 491 605 c 0
 491 584 485 563 470 548 c 0
 459 537 447 525 431 525 c 0
 420 525 409 528 401 535 c 1
 396 541 395 549 395 557 c 0
 395 568 401 578 408 587 c 1
 414 597 420 608 420 621 c 0
 420 634 412 646 403 655 c 0
 386 672 360 675 336 675 c 0
 308 675 281 665 261 645 c 0
 231 614 216 571 216 528 c 0
 216 493 228 458 253 434 c 0
 271 416 294 407 317 401 c 0
 350 392 384 389 418 389 c 1
 418 364 l 1
 372 364 327 361 282 350 c 0
 252 343 222 332 200 310 c 0
 168 278 149 234 149 188 c 0
 149 143 162 98 194 66 c 0
 228 32 279 24 326 24 c 0
 370 24 409 47 440 78 c 0
 459 97 471 123 475 151 c 1
 487 154 l 1
EndSplineSet
EndChar

StartChar: u1D4A1
Encoding: 119969 119969 129
Width: 649
Flags: W
HStem: -15 40<144 238> 343 31<232 378 232 378 214 378 448 564> 650 32
VStem: 62 76 378 70<276 305.5 305.5 343 329 343 374 623 678 678>
LayerCount: 2
Fore
SplineSet
690 692 m 1
 706 683 l 1
 666 609 l 2
 657 592 643 575 622 575 c 0
 609 575 593 579 579 584 c 1
 535 596 461 618 448 623 c 1
 448 374 l 1
 592 374 l 1
 564 343 l 1
 448 343 l 1
 448 328 448 313 448 298 c 0
 448 254 442 210 429 169 c 0
 418 135 401 102 375 77 c 1
 319 20 244 -15 163 -15 c 0
 125 -15 89 1 62 28 c 0
 47 43 38 62 38 82 c 0
 38 94 43 105 52 114 c 0
 60 122 72 126 85 126 c 0
 92 126 99 126 105 121 c 1
 113 112 118 101 123 90 c 0
 128 77 135 64 144 55 c 0
 164 35 190 25 217 25 c 0
 259 25 293 52 322 81 c 0
 342 101 355 127 363 154 c 0
 374 188 378 224 378 259 c 0
 378 287 378 315 378 343 c 1
 214 343 l 1
 232 374 l 1
 378 374 l 1
 378 640 l 1
 354 646 330 651 306 651 c 0
 256 651 205 638 168 601 c 0
 149 582 136 558 136 531 c 0
 136 517 136 503 139 489 c 0
 142 478 148 467 148 456 c 0
 148 444 145 433 137 424 c 1
 129 417 120 410 109 410 c 0
 96 410 85 416 76 424 c 0
 64 436 62 453 62 470 c 0
 62 521 80 570 116 606 c 0
 173 663 253 682 332 682 c 0
 348 682 363 680 378 678 c 1
 448 703 l 1
 448 669 l 1
 497 657 547 646 598 638 c 0
 609 636 623 634 630 634 c 0
 646 634 659 644 667 656 c 2
 690 692 l 1
EndSplineSet
EndChar

StartChar: u1D4A2
Encoding: 119970 119970 130
Width: 604
Flags: W
HStem: -132 39<254 270.5> 223 30<296.5 335> 472 26 665 34<328.5 357.5>
VStem: 85 73<428 486.5 428 488> 456 68<568.5 584>
LayerCount: 2
Fore
SplineSet
474 378 m 1
 524 391 l 1
 524 261 l 2
 524 198 519 135 504 74 c 0
 494 32 480 -10 450 -40 c 0
 391 -99 312 -132 229 -132 c 0
 184 -132 137 -122 105 -89 c 0
 85 -69 72 -43 72 -14 c 0
 72 -2 78 11 87 20 c 0
 96 29 110 31 123 31 c 0
 133 31 142 28 149 21 c 0
 158 12 161 -3 163 -16 c 0
 167 -34 172 -52 185 -65 c 0
 207 -87 239 -93 269 -93 c 0
 315 -93 359 -74 391 -42 c 0
 415 -17 430 14 440 46 c 0
 452 87 456 129 455 172 c 0
 454 202 452 263 452 264 c 1
 411 234 360 223 310 223 c 0
 247 223 185 245 140 289 c 0
 96 333 85 395 85 455 c 0
 85 521 112 583 158 629 c 0
 213 684 291 699 366 699 c 0
 412 699 461 693 494 660 c 0
 515 639 524 611 524 582 c 0
 524 555 516 529 497 509 c 0
 476 488 448 472 418 472 c 0
 413 472 387 478 372 481 c 1
 374 498 l 1
 398 498 423 501 441 519 c 0
 455 533 456 554 456 573 c 0
 456 595 446 616 430 632 c 0
 407 656 374 665 341 665 c 0
 297 665 253 650 222 619 c 0
 179 576 158 517 158 456 c 0
 158 400 169 341 209 301 c 0
 238 272 276 253 317 253 c 0
 362 253 407 267 439 299 c 0
 460 320 468 349 474 378 c 1
EndSplineSet
EndChar

StartChar: u1D4A3
Encoding: 119971 119971 131
Width: 884
Flags: W
HStem: -11 44<120 192> 350 38<386 610 386 615> 649 40
VStem: 53 74 320 66<388 652 651.5 652> 606 62
LayerCount: 2
Fore
SplineSet
436 688 m 1
 435 674 l 1
 386 652 l 1
 386 564 386 476 386 388 c 1
 615 388 l 1
 625 442 638 496 659 547 c 0
 675 584 694 621 723 649 c 1
 750 677 785 696 824 696 c 0
 837 696 852 696 861 687 c 0
 869 678 878 668 878 655 c 0
 878 643 874 632 866 624 c 0
 858 617 850 609 840 609 c 0
 831 609 823 616 817 622 c 0
 807 632 793 639 778 639 c 0
 764 639 750 634 740 624 c 0
 726 610 717 593 710 575 c 0
 700 548 694 521 688 494 c 0
 673 413 670 332 670 250 c 0
 670 205 673 160 682 116 c 1
 689 89 696 60 717 39 c 0
 726 30 740 29 752 29 c 0
 764 29 778 43 788 54 c 1
 804 69 818 86 828 105 c 1
 845 90 l 1
 833 69 810 33 807 29 c 0
 782 5 750 -13 714 -13 c 0
 692 -13 671 -3 655 12 c 1
 634 34 624 63 617 93 c 0
 607 137 604 182 604 227 c 0
 604 257 607 309 610 350 c 1
 386 350 l 1
 386 294 380 237 363 184 c 0
 349 141 329 100 297 68 c 0
 253 24 197 -11 134 -11 c 0
 106 -11 78 -2 57 18 c 0
 43 32 33 50 33 70 c 0
 33 80 36 89 43 96 c 0
 50 103 61 106 71 106 c 0
 82 106 95 106 102 99 c 0
 108 93 112 85 115 76 c 1
 119 68 124 57 129 51 c 0
 142 38 160 33 177 33 c 0
 207 33 234 49 255 70 c 0
 284 99 295 140 303 179 c 0
 317 242 320 307 320 371 c 0
 320 465 320 651 320 652 c 1
 285 652 250 650 216 642 c 0
 193 636 170 629 153 612 c 0
 136 594 121 572 121 546 c 0
 121 533 123 520 125 508 c 0
 128 494 134 469 134 468 c 0
 134 458 134 448 126 441 c 1
 117 431 107 422 94 422 c 0
 84 422 76 429 70 435 c 0
 62 442 59 452 57 462 c 0
 54 478 53 493 53 509 c 0
 53 554 78 593 110 624 c 0
 134 648 164 664 196 674 c 0
 236 686 278 691 320 691 c 0
 359 691 397 688 436 688 c 1
EndSplineSet
EndChar

StartChar: u1D4A4
Encoding: 119972 119972 132
Width: 430
Flags: W
HStem: -14 42<143.5 153> 655 36<261.5 332 292.5 341>
VStem: 27 79 278 63<298 363 363 655 595.5 655>
LayerCount: 2
Fore
SplineSet
402 685 m 1
 388 665 l 1
 341 655 l 1
 341 538 341 421 341 305 c 0
 341 211 321 113 253 45 c 0
 220 12 177 -14 129 -14 c 0
 101 -14 72 -7 52 13 c 0
 37 28 27 48 27 69 c 0
 27 80 27 95 34 102 c 0
 41 109 52 114 62 114 c 0
 73 114 81 106 88 98 c 0
 91 96 95 80 97 70 c 0
 100 58 105 46 114 37 c 0
 123 28 137 28 150 28 c 0
 178 28 201 44 221 63 c 0
 245 87 256 120 264 152 c 0
 275 199 278 249 278 298 c 0
 278 417 278 536 278 655 c 1
 245 655 212 652 181 643 c 0
 157 636 134 627 117 609 c 1
 103 596 93 578 93 558 c 0
 93 551 94 543 96 536 c 0
 99 524 105 507 105 501 c 0
 105 489 100 478 91 469 c 0
 85 464 78 461 70 461 c 0
 61 461 54 465 48 471 c 0
 34 485 30 505 30 524 c 0
 30 561 44 596 70 622 c 0
 97 648 132 663 168 673 c 0
 217 686 267 691 318 691 c 0
 346 691 374 686 402 685 c 1
EndSplineSet
EndChar

StartChar: u1D4A5
Encoding: 119973 119973 133
Width: 506
Flags: W
HStem: -129 44<137.5 202.5> 656 42
VStem: 28 67<4.5 5.5> 340 65
LayerCount: 2
Fore
SplineSet
341 350 m 1
 341 656 l 1
 288 649 235 633 197 595 c 0
 172 570 163 535 163 500 c 0
 163 479 163 452 151 440 c 0
 143 432 134 423 124 423 c 0
 113 423 103 428 96 436 c 0
 85 447 83 462 83 477 c 0
 83 522 108 561 139 593 c 0
 209 663 306 698 405 698 c 0
 425 698 445 698 465 698 c 1
 468 686 l 1
 405 665 l 2
 405 664 405 651 405 642 c 2
 405 221 l 2
 405 168 400 116 385 65 c 0
 373 26 355 -11 326 -40 c 0
 300 -66 271 -89 239 -106 c 0
 212 -120 184 -129 154 -129 c 0
 121 -129 86 -124 62 -100 c 0
 40 -78 28 -48 28 -16 c 0
 28 27 41 70 61 109 c 0
 85 156 118 198 156 236 c 0
 208 288 272 324 341 350 c 1
337 316 m 1
 282 294 230 264 188 222 c 0
 134 167 95 97 95 19 c 0
 95 -10 97 -41 118 -62 c 0
 135 -79 160 -85 184 -85 c 0
 221 -85 254 -66 280 -40 c 0
 303 -17 316 14 325 45 c 0
 337 88 341 132 341 176 c 0
 341 223 337 269 337 316 c 1
EndSplineSet
EndChar

StartChar: u1D4A6
Encoding: 119974 119974 134
Width: 824
Flags: W
HStem: -8 43<163 163.5> 652 39<304.5 313 304.5 382>
VStem: 47 75 313 69<352 652 352 652 352 652> 720 77
LayerCount: 2
Fore
SplineSet
432 686 m 1
 426 673 l 1
 382 652 l 1
 382 352 l 1
 399 352 l 1
 449 421 550 558 550 559 c 0
 572 588 597 616 623 642 c 0
 639 659 657 673 677 684 c 0
 692 693 709 699 726 699 c 0
 746 699 764 690 778 676 c 0
 789 665 797 651 797 635 c 0
 797 622 790 609 780 599 c 0
 771 590 759 585 746 585 c 0
 733 585 725 597 719 608 c 0
 713 621 702 631 688 631 c 0
 668 631 651 620 636 608 c 0
 613 590 594 567 577 543 c 0
 538 490 459 383 459 382 c 0
 459 381 456 377 454 375 c 1
 455 369 456 358 456 357 c 0
 456 356 518 241 549 182 c 0
 572 138 601 98 636 63 c 0
 648 51 663 42 679 42 c 0
 696 42 712 47 724 59 c 0
 737 72 745 88 753 105 c 1
 771 89 l 1
 763 65 751 43 734 25 c 0
 712 3 683 -12 652 -12 c 0
 622 -12 592 -3 571 19 c 1
 553 36 541 57 530 79 c 0
 530 80 447 242 405 323 c 1
 378 323 l 1
 378 226 352 128 283 59 c 0
 243 19 192 -8 135 -8 c 0
 104 -8 71 -1 49 22 c 0
 36 35 29 51 29 69 c 0
 29 79 32 89 39 97 c 0
 46 104 56 108 66 108 c 0
 75 108 86 108 91 104 c 0
 98 97 104 89 109 81 c 0
 115 71 121 61 129 52 c 1
 141 41 155 35 171 35 c 0
 203 35 231 52 253 74 c 0
 275 96 288 125 297 156 c 0
 309 195 313 237 313 278 c 2
 313 652 l 1
 253 652 191 639 148 596 c 0
 133 581 121 563 121 542 c 0
 121 530 122 519 124 507 c 0
 126 495 130 484 130 473 c 0
 130 460 130 446 121 437 c 0
 113 428 102 423 90 423 c 0
 80 423 70 427 62 435 c 0
 47 450 47 474 47 495 c 0
 47 535 63 573 91 601 c 0
 160 669 257 691 352 691 c 0
 354 691 405 688 432 686 c 1
EndSplineSet
EndChar

StartChar: u1D4A7
Encoding: 119975 119975 135
Width: 715
Flags: W
HStem: -7 79<478 493.5> 118 58 662 36<318.5 384.5>
VStem: 169 71 400 80 601 31
LayerCount: 2
Fore
SplineSet
216 166 m 1
 333 116 l 2
 362 103 393 91 424 83 c 0
 445 77 467 72 489 72 c 0
 522 72 552 88 575 111 c 0
 601 137 605 175 605 211 c 0
 605 228 605 248 601 262 c 1
 621 268 l 1
 625 246 632 213 632 202 c 0
 632 146 622 88 582 48 c 0
 552 18 515 -7 472 -7 c 0
 448 -7 425 1 402 9 c 0
 366 22 331 39 297 56 c 0
 247 82 177 118 141 118 c 1
 141 120 141 121 141 122 c 1
 118 122 99 109 85 92 c 0
 64 67 58 35 55 3 c 1
 31 14 l 1
 31 59 35 107 64 142 c 0
 74 154 86 164 98 173 c 0
 113 183 125 196 137 210 c 0
 163 241 165 344 167 414 c 0
 168 461 173 507 185 551 c 0
 194 585 207 617 229 644 c 0
 263 685 317 698 369 698 c 0
 400 698 430 690 453 670 c 0
 475 652 483 623 483 596 c 0
 483 589 482 583 477 577 c 0
 468 567 458 556 444 556 c 0
 432 556 420 560 411 568 c 0
 405 573 402 589 400 600 c 0
 398 616 390 631 378 642 c 0
 364 654 348 662 329 662 c 0
 308 662 287 652 274 635 c 1
 259 618 254 592 250 569 c 0
 243 528 241 486 240 445 c 0
 239 398 237 352 229 306 c 0
 224 279 219 251 202 231 c 0
 185 210 166 192 147 178 c 1
 148 177 l 1
 148 177 152 177 155 177 c 0
 177 177 195 173 216 166 c 1
EndSplineSet
EndChar

StartChar: u1D4A8
Encoding: 119976 119976 136
Width: 982
Flags: W
HStem: -12 58<98.5 154.5> 644 54
VStem: 45 23 242 38<308.5 378.5 378.5 567 549 567> 734 62<323 403>
LayerCount: 2
Fore
SplineSet
796 595 m 2
 796 270 l 2
 796 217 797 164 806 112 c 0
 811 83 816 53 836 32 c 0
 843 26 851 22 861 22 c 0
 877 22 892 30 903 42 c 1
 918 56 931 73 942 91 c 1
 961 76 l 1
 947 55 930 36 912 18 c 0
 890 -4 864 -26 832 -26 c 0
 808 -26 786 -16 770 0 c 0
 745 25 741 62 737 97 c 1
 734 135 734 278 734 368 c 0
 734 438 730 508 733 578 c 1
 671 515 630 435 599 353 c 1
 557 246 533 132 518 18 c 1
 474 -17 l 1
 465 -10 l 1
 450 113 430 236 392 354 c 0
 378 397 362 440 340 481 c 0
 324 512 305 542 280 567 c 1
 280 491 280 416 280 341 c 0
 280 276 274 211 257 148 c 0
 245 102 227 58 193 24 c 0
 171 2 142 -12 111 -12 c 0
 86 -12 63 0 45 17 c 1
 35 28 26 42 26 58 c 0
 26 70 31 81 39 90 c 0
 46 97 56 101 66 101 c 0
 83 101 97 89 104 74 c 0
 112 57 128 46 146 46 c 0
 163 46 178 58 190 70 c 0
 211 91 221 120 229 149 c 0
 239 190 242 232 242 274 c 0
 242 384 242 494 242 604 c 1
 222 628 193 644 162 644 c 0
 139 644 118 633 102 617 c 0
 79 595 70 564 65 533 c 1
 44 532 l 1
 48 558 53 583 62 607 c 0
 69 625 78 642 91 656 c 0
 117 682 152 699 189 699 c 0
 232 699 272 680 302 649 c 0
 303 649 304 649 305 649 c 0
 360 594 400 527 431 455 c 0
 468 367 491 275 505 181 c 1
 510 176 l 1
 533 266 563 354 605 436 c 0
 639 504 680 569 734 622 c 0
 774 662 826 691 884 691 c 0
 901 691 919 686 932 673 c 0
 939 666 945 657 945 647 c 0
 945 638 944 628 937 622 c 1
 928 612 916 606 903 606 c 0
 896 606 887 606 883 610 c 0
 878 615 873 620 870 626 c 0
 868 631 867 637 863 641 c 0
 857 647 849 652 840 652 c 0
 831 652 822 648 815 642 c 1
 803 629 796 612 796 595 c 2
EndSplineSet
EndChar

StartChar: u1D4A9
Encoding: 119977 119977 137
Width: 774
Flags: W
HStem: -9 63<92 148> 643 58<129.5 192.5>
VStem: 28 25 243 41<343 404 404 533> 624 36 726 76
LayerCount: 2
Fore
SplineSet
625 124 m 1
 627 136 l 1
 627 251 624 365 624 480 c 0
 624 521 627 563 636 603 c 0
 641 628 648 655 667 674 c 0
 688 695 717 706 747 706 c 0
 762 706 776 701 787 691 c 0
 796 682 802 669 802 656 c 0
 802 648 801 638 794 632 c 1
 783 626 763 616 762 616 c 0
 754 616 744 616 741 620 c 1
 734 626 729 633 726 641 c 0
 723 651 716 659 706 659 c 0
 698 659 690 657 685 652 c 0
 670 637 667 616 665 596 c 0
 662 571 661 492 661 440 c 0
 659 298 658 157 660 15 c 1
 615 -14 l 1
 518 176 411 361 284 533 c 1
 284 482 284 430 284 378 c 0
 284 308 279 238 262 169 c 0
 250 123 235 76 201 42 c 0
 174 15 141 -9 102 -9 c 0
 82 -9 61 -3 47 12 c 1
 36 22 28 35 28 50 c 0
 28 64 35 77 45 87 c 0
 51 93 58 97 67 97 c 0
 77 97 87 95 94 88 c 0
 96 86 103 74 108 68 c 1
 114 58 125 54 136 54 c 0
 160 54 179 70 195 86 c 0
 217 109 224 140 231 171 c 0
 241 221 243 272 243 323 c 0
 243 409 243 496 243 582 c 1
 226 599 208 615 187 627 c 0
 172 636 157 643 140 643 c 0
 119 643 98 637 84 622 c 1
 62 601 56 567 50 537 c 1
 28 532 l 1
 28 581 35 632 70 667 c 0
 96 693 133 701 169 701 c 0
 216 701 256 671 288 638 c 1
 332 595 366 543 400 491 c 0
 450 415 551 247 625 124 c 1
EndSplineSet
EndChar

StartChar: u1D4AA
Encoding: 119978 119978 138
Width: 707
Flags: W
HStem: -21 39<319 356.5> 653 33<414.5 440.5>
VStem: 71 68<322 368.5> 262 99<438.5 529.5> 561 70<342.5 398>
LayerCount: 2
Fore
SplineSet
230 661 m 1
 244 649 l 1
 166 570 139 459 139 350 c 0
 139 294 144 238 159 185 c 0
 169 146 184 107 213 79 c 1
 248 43 294 18 344 18 c 0
 393 18 440 36 475 71 c 0
 507 104 526 147 539 191 c 0
 556 250 561 311 561 372 c 0
 561 424 557 477 544 527 c 0
 535 563 522 598 496 624 c 0
 478 642 453 653 428 653 c 0
 397 653 365 644 343 622 c 0
 326 605 315 582 315 558 c 0
 315 529 331 504 351 484 c 0
 360 475 361 462 361 449 c 0
 361 428 341 415 321 415 c 0
 308 415 295 421 286 431 c 0
 267 450 262 478 262 504 c 0
 262 555 282 604 318 640 c 0
 349 672 393 686 436 686 c 0
 483 686 527 666 559 634 c 0
 587 606 602 569 612 532 c 0
 627 480 631 427 631 374 c 0
 631 311 624 249 605 190 c 0
 590 142 567 96 531 60 c 0
 475 4 396 -21 317 -21 c 0
 255 -21 199 11 156 55 c 1
 126 84 106 122 93 162 c 0
 77 210 71 261 71 311 c 0
 71 426 100 542 182 624 c 0
 196 639 213 650 230 661 c 1
EndSplineSet
EndChar

StartChar: u1D4AB
Encoding: 119979 119979 139
Width: 660
Flags: W
HStem: -11 32<197 202.5> 290 30<370 397 370 408.5> 659 33<290.5 307>
VStem: 73 82<72.5 83 66.5 91> 307 63<245 290 320 376.5 376.5 659 590 659 692 692> 570 68<487.5 528>
LayerCount: 2
Fore
SplineSet
370 320 m 1
 424 320 481 330 520 369 c 0
 556 405 570 457 570 508 c 0
 570 548 554 586 526 615 c 1
 509 631 487 641 464 648 c 0
 433 657 402 659 370 659 c 1
 370 546 370 433 370 320 c 1
307 692 m 1
 370 718 l 1
 370 691 l 1
 418 691 465 687 511 674 c 0
 545 664 578 651 603 626 c 0
 632 597 638 555 638 515 c 0
 638 460 618 406 579 366 c 1
 524 312 447 290 370 290 c 1
 370 270 370 250 370 230 c 0
 370 160 357 87 307 37 c 0
 273 3 226 -11 179 -11 c 0
 148 -11 117 0 95 22 c 0
 79 38 73 61 73 84 c 0
 73 98 78 112 88 122 c 0
 95 129 106 130 117 130 c 0
 126 130 136 130 142 124 c 0
 155 111 155 92 155 74 c 0
 155 59 158 42 170 31 c 0
 178 23 191 21 203 21 c 0
 228 21 247 38 264 55 c 0
 283 74 290 100 296 125 c 0
 304 164 307 204 307 245 c 0
 307 383 307 521 307 659 c 1
 274 659 241 657 209 648 c 0
 186 641 163 632 145 614 c 0
 125 593 108 567 108 537 c 0
 108 526 112 510 115 496 c 1
 118 487 123 478 123 469 c 0
 123 457 121 445 113 436 c 1
 105 429 95 423 84 423 c 0
 75 423 66 427 59 434 c 0
 44 449 43 472 43 493 c 0
 43 541 63 586 97 620 c 0
 152 675 231 692 307 692 c 1
EndSplineSet
EndChar

StartChar: u1D4AC
Encoding: 119980 119980 140
Width: 662
Flags: W
HStem: -26 21<107 107> 43 62<204.5 206.5> 671 32<324.5 370>
VStem: 72 67<372.5 423.5 369.5 450.5> 525 71<387 436>
LayerCount: 2
Fore
SplineSet
287 186 m 1
 278 165 l 1
 231 165 184 180 151 214 c 0
 99 266 72 336 72 409 c 0
 72 492 96 575 155 634 c 0
 208 687 284 703 358 703 c 0
 421 703 484 684 529 639 c 0
 554 615 569 582 578 549 c 0
 591 505 596 460 596 414 c 0
 596 316 567 218 497 148 c 0
 465 116 427 92 384 79 c 1
 482 49 l 2
 494 45 507 42 520 42 c 0
 536 42 548 53 559 64 c 0
 578 82 590 106 599 131 c 1
 616 121 l 1
 608 84 594 48 568 21 c 0
 552 5 534 -11 511 -11 c 0
 490 -11 470 -11 451 -6 c 2
 259 36 l 2
 238 40 217 43 196 43 c 0
 174 43 152 41 136 26 c 1
 122 11 112 -7 107 -26 c 1
 86 -16 l 1
 97 16 110 54 131 75 c 0
 154 98 188 105 221 105 c 0
 236 105 254 105 267 103 c 0
 288 100 312 97 331 97 c 0
 378 97 421 119 454 152 c 0
 482 180 496 217 506 254 c 0
 521 306 525 360 525 414 c 0
 525 458 521 503 509 546 c 0
 501 577 488 608 465 631 c 0
 435 661 391 671 349 671 c 0
 300 671 248 662 212 626 c 0
 186 601 169 568 158 533 c 0
 144 491 139 446 139 401 c 0
 139 338 154 273 200 227 c 0
 223 204 255 194 287 186 c 1
EndSplineSet
EndChar

StartChar: u1D4AD
Encoding: 119981 119981 141
Width: 722
Flags: W
HStem: -8 47<118.5 188> 308 28 655 34<282 312> 708 13
VStem: 47 89 312 67<308 308 339 655 593.5 655> 576 71<501 535.5>
LayerCount: 2
Fore
SplineSet
379 655 m 1
 379 339 l 1
 393 336 407 336 421 336 c 0
 461 336 500 351 528 380 c 1
 564 415 576 466 576 515 c 0
 576 556 567 598 538 627 c 0
 524 641 503 644 484 648 c 0
 449 654 414 655 379 655 c 1
512 83 m 2
 418 304 l 1
 379 308 l 1
 371 257 360 207 342 159 c 0
 330 125 314 91 288 66 c 1
 246 23 192 -8 132 -8 c 0
 105 -8 77 -3 57 16 c 1
 43 31 30 49 30 70 c 0
 30 81 34 93 42 101 c 0
 49 108 59 112 69 112 c 0
 78 112 85 108 91 102 c 0
 99 94 106 85 111 76 c 0
 116 67 122 57 128 51 c 0
 139 40 156 39 172 39 c 0
 204 39 233 54 256 77 c 0
 278 99 289 128 297 158 c 0
 308 200 312 244 312 287 c 0
 312 409 312 532 312 655 c 1
 252 655 191 639 148 596 c 0
 132 581 121 560 121 538 c 0
 121 528 123 516 125 505 c 0
 127 493 133 482 133 470 c 0
 133 459 128 448 120 439 c 1
 112 432 103 425 92 425 c 0
 82 425 74 430 67 436 c 0
 53 450 47 469 47 489 c 0
 47 532 64 573 94 604 c 1
 152 661 231 689 312 689 c 1
 336 700 378 721 379 721 c 1
 379 720 379 702 379 692 c 1
 428 692 476 689 524 679 c 0
 554 672 585 664 607 642 c 0
 637 612 647 568 647 526 c 0
 647 476 633 425 597 389 c 0
 564 356 524 334 480 320 c 1
 521 219 l 2
 543 164 572 112 614 70 c 0
 622 61 634 56 646 56 c 0
 657 56 666 63 673 70 c 0
 684 82 692 96 697 111 c 1
 711 100 l 1
 702 71 690 43 669 22 c 0
 654 7 636 -6 614 -6 c 0
 596 -6 578 -4 565 8 c 0
 543 30 524 55 512 83 c 2
EndSplineSet
EndChar

StartChar: u1D4AE
Encoding: 119982 119982 142
Width: 542
Flags: W
HStem: -17 36<222 261.5> 254 30<169 169.5> 509 21<318 368> 672 36<267 298.5>
VStem: 93 65<550.5 567.5> 408 73<183.5 192.5>
LayerCount: 2
Fore
SplineSet
316 516 m 1
 318 530 l 1
 335 530 352 537 364 549 c 0
 376 561 384 577 384 595 c 0
 384 613 376 631 362 644 c 1
 342 665 313 672 284 672 c 0
 250 672 214 665 190 640 c 0
 171 621 158 596 158 569 c 0
 158 532 176 498 202 472 c 0
 233 441 272 421 312 403 c 0
 357 382 402 359 437 324 c 0
 467 294 481 252 481 209 c 0
 481 158 467 106 430 69 c 0
 375 14 300 -17 223 -17 c 0
 172 -17 123 1 87 37 c 0
 60 64 46 102 46 140 c 0
 46 181 56 223 85 252 c 0
 112 279 151 284 187 284 c 0
 212 284 239 282 256 264 c 0
 266 254 273 242 273 229 c 0
 273 221 273 212 267 206 c 0
 259 198 249 191 238 191 c 0
 229 191 220 194 214 201 c 1
 208 206 206 214 204 222 c 0
 202 231 197 241 190 248 c 0
 184 254 174 254 165 254 c 0
 149 254 133 249 122 238 c 0
 106 221 102 198 102 175 c 0
 102 134 115 94 144 65 c 0
 170 39 203 19 241 19 c 0
 286 19 330 35 362 67 c 0
 391 96 408 134 408 174 c 0
 408 211 404 251 377 279 c 1
 347 308 314 332 275 349 c 0
 248 360 221 373 196 388 c 0
 178 398 160 410 145 424 c 0
 112 457 93 502 93 548 c 0
 93 587 105 625 132 652 c 0
 175 695 237 708 297 708 c 0
 343 708 391 702 425 669 c 0
 444 650 449 623 449 596 c 0
 449 578 444 559 431 545 c 0
 410 524 383 509 353 509 c 0
 341 509 328 513 316 516 c 1
EndSplineSet
EndChar

StartChar: u1D4AF
Encoding: 119983 119983 143
Width: 586
Flags: W
HStem: -11 33<234.5 239.5> 635 53
VStem: 26 100<463 528> 346 70<289 361.5 361.5 586 544.5 586>
LayerCount: 2
Fore
SplineSet
645 696 m 1
 665 685 l 1
 649 653 631 622 605 597 c 1
 586 577 560 566 533 566 c 0
 510 566 455 578 416 586 c 1
 416 496 416 406 416 317 c 0
 416 261 412 205 397 151 c 0
 386 111 370 72 340 43 c 0
 307 10 263 -11 216 -11 c 0
 187 -11 157 -4 136 16 c 1
 119 34 115 59 115 84 c 0
 115 96 121 108 130 117 c 0
 138 125 148 131 159 131 c 0
 171 131 182 124 190 116 c 0
 199 107 197 93 196 82 c 0
 194 65 194 47 206 35 c 0
 215 26 228 22 241 22 c 0
 264 22 285 33 302 49 c 1
 321 69 329 97 334 124 c 1
 344 167 346 212 346 256 c 0
 346 371 346 487 346 602 c 1
 294 617 226 636 187 636 c 0
 161 636 133 634 114 615 c 0
 95 596 86 570 86 544 c 0
 86 535 90 528 94 521 c 0
 101 510 109 500 118 492 c 0
 124 486 126 477 126 469 c 0
 126 457 119 448 111 440 c 0
 103 432 94 424 82 424 c 0
 69 424 58 433 49 442 c 0
 33 458 26 481 26 504 c 0
 26 552 52 595 85 628 c 0
 126 669 184 688 241 688 c 0
 275 688 342 672 392 659 c 1
 447 646 510 631 559 631 c 0
 579 631 597 641 611 655 c 0
 624 668 636 681 645 696 c 1
EndSplineSet
EndChar

StartChar: u1D4B0
Encoding: 119984 119984 144
Width: 714
Flags: W
HStem: -16 43<287.5 291> 640 57
VStem: 25 33 128 69<176 176.5> 468 65<222.5 225.5>
LayerCount: 2
Fore
SplineSet
675 109 m 1
 690 97 l 1
 677 69 664 39 644 19 c 0
 623 -1 596 -15 567 -15 c 0
 549 -15 531 -9 518 4 c 0
 491 31 479 69 471 105 c 1
 465 98 446 79 433 66 c 0
 386 19 325 -16 257 -16 c 0
 220 -16 186 1 160 27 c 0
 147 39 141 56 136 73 c 0
 130 96 128 121 128 145 c 0
 128 208 138 271 151 333 c 0
 164 397 175 462 175 528 c 0
 175 563 170 601 144 627 c 0
 136 636 125 642 113 642 c 0
 102 642 90 638 81 630 c 1
 62 610 54 582 54 554 c 0
 54 535 58 516 59 496 c 1
 31 487 l 1
 28 511 25 535 25 560 c 0
 25 600 35 642 64 671 c 0
 84 691 113 698 141 698 c 0
 166 698 192 692 210 674 c 0
 224 660 230 642 235 624 c 0
 242 597 244 570 244 542 c 0
 244 472 231 403 217 335 c 0
 207 287 197 236 197 190 c 0
 197 162 200 134 208 106 c 0
 213 86 222 67 236 52 c 0
 253 35 276 27 299 27 c 0
 346 27 384 56 416 88 c 0
 434 107 452 126 468 146 c 1
 468 305 484 470 501 631 c 1
 540 657 582 681 626 699 c 1
 643 688 l 1
 632 682 620 675 611 666 c 0
 597 653 588 637 580 619 c 0
 570 596 563 572 558 548 c 0
 538 447 533 344 533 242 c 0
 533 203 535 164 544 125 c 0
 550 101 557 76 575 58 c 0
 582 50 591 41 602 41 c 0
 616 41 630 48 640 58 c 0
 655 73 665 91 675 109 c 1
EndSplineSet
EndChar

StartChar: u1D4B1
Encoding: 119985 119985 145
Width: 664
Flags: W
HStem: -14 21<297 297> 653 54
VStem: 26 28 378 23<553 556> 568 70<555 609.5>
LayerCount: 2
Fore
SplineSet
355 113 m 1
 480 316 l 2
 505 356 527 399 544 444 c 0
 557 480 567 517 568 555 c 0
 568 582 564 610 545 630 c 1
 530 644 511 653 490 653 c 0
 472 653 454 652 441 639 c 0
 418 616 407 585 401 553 c 1
 378 556 l 1
 385 598 399 640 429 671 c 1
 454 695 487 709 522 709 c 0
 553 709 583 700 605 678 c 0
 628 656 638 625 638 594 c 0
 638 553 621 514 604 477 c 0
 573 409 534 344 495 279 c 0
 442 193 384 97 348 14 c 1
 297 -14 l 1
 290 -5 l 1
 284 99 264 210 245 316 c 0
 233 385 220 454 198 521 c 0
 187 557 174 595 147 623 c 0
 139 631 129 637 117 637 c 0
 103 637 90 632 80 622 c 0
 64 607 56 564 51 533 c 1
 27 536 l 1
 30 565 35 594 45 622 c 0
 52 641 61 661 76 676 c 0
 95 695 122 707 149 707 c 0
 172 707 192 696 208 680 c 0
 226 662 236 637 244 613 c 0
 258 574 267 533 274 492 c 2
 343 110 l 1
 355 113 l 1
EndSplineSet
EndChar

StartChar: u1D4B2
Encoding: 119986 119986 146
Width: 989
Flags: W
HStem: -9 21<263 263> 635 71
VStem: 23 28 251 59 522 59<563.5 673> 892 71<499.5 592>
LayerCount: 2
Fore
SplineSet
320 127 m 1
 401 290 l 2
 436 361 468 432 492 507 c 0
 509 561 522 617 522 673 c 1
 578 707 l 1
 590 699 l 1
 584 670 581 640 581 611 c 0
 581 516 612 425 652 339 c 0
 685 269 712 196 732 121 c 1
 776 200 818 280 851 364 c 0
 872 417 892 471 892 528 c 0
 892 549 891 569 886 589 c 0
 882 603 877 616 867 626 c 0
 852 641 835 656 813 656 c 0
 785 656 762 639 745 618 c 1
 728 626 l 1
 736 637 742 649 751 659 c 0
 780 688 818 709 859 709 c 0
 886 709 908 695 926 676 c 0
 953 649 963 611 963 573 c 0
 963 533 949 495 935 457 c 0
 911 395 882 335 851 276 c 0
 807 192 765 106 733 17 c 1
 687 -6 l 1
 678 -1 l 1
 671 98 642 194 601 284 c 0
 572 350 546 417 523 485 c 1
 488 414 453 342 424 268 c 0
 391 183 355 99 314 17 c 0
 312 14 309 12 306 10 c 0
 292 3 277 -2 263 -9 c 1
 251 -1 l 1
 251 137 249 275 226 411 c 0
 219 454 210 496 195 537 c 0
 184 565 171 592 150 614 c 1
 139 624 127 635 111 635 c 0
 100 635 89 630 81 622 c 0
 72 613 66 601 62 589 c 0
 55 572 51 553 49 535 c 1
 25 537 l 1
 25 588 37 642 74 679 c 0
 92 697 118 703 143 703 c 0
 170 703 193 687 211 669 c 0
 231 649 243 625 253 599 c 0
 267 563 276 525 283 486 c 0
 305 368 310 247 311 127 c 1
 320 127 l 1
EndSplineSet
EndChar

StartChar: u1D4B3
Encoding: 119987 119987 147
Width: 716
Flags: W
HStem: -12 46<125 184.5> 676 35
VStem: 50 80 355 56 639 28
LayerCount: 2
Fore
SplineSet
641 165 m 1
 663 161 l 1
 663 111 641 65 606 30 c 0
 583 7 552 -9 519 -9 c 0
 492 -9 464 -3 445 16 c 0
 425 37 414 64 404 91 c 0
 386 135 373 182 362 228 c 1
 338 161 310 94 259 43 c 0
 226 10 184 -12 137 -12 c 0
 113 -12 89 -5 72 12 c 0
 58 26 48 44 48 64 c 0
 48 75 49 86 57 94 c 0
 65 102 75 110 86 110 c 0
 96 110 105 107 112 100 c 0
 121 92 126 80 128 68 c 0
 130 59 135 52 142 45 c 0
 150 37 161 34 172 34 c 0
 197 34 218 48 235 65 c 0
 262 92 281 124 298 158 c 0
 322 205 339 254 355 304 c 1
 345 383 333 463 311 540 c 0
 304 565 296 590 285 613 c 1
 278 630 269 646 256 658 c 1
 242 673 221 678 202 678 c 0
 179 678 155 674 139 658 c 0
 129 647 122 634 122 620 c 0
 122 610 122 601 124 592 c 0
 127 579 135 567 135 553 c 0
 135 544 131 535 124 528 c 0
 117 521 107 515 96 515 c 0
 86 515 77 520 70 526 c 0
 57 539 57 560 57 578 c 0
 57 610 71 641 94 664 c 0
 129 699 179 711 228 711 c 0
 263 711 300 705 326 679 c 0
 348 657 359 626 369 595 c 0
 385 547 393 498 400 450 c 1
 401 450 l 1
 417 493 436 538 459 580 c 0
 477 612 497 643 524 669 c 1
 548 694 580 711 616 711 c 0
 638 711 661 705 677 689 c 0
 687 679 693 666 693 652 c 0
 693 641 691 630 683 622 c 0
 675 614 665 604 654 604 c 0
 647 604 640 605 635 610 c 0
 631 615 628 621 625 627 c 0
 623 633 618 638 613 643 c 0
 605 652 593 656 581 656 c 0
 563 656 546 648 534 636 c 0
 502 605 481 565 463 525 c 0
 439 470 423 413 411 354 c 1
 421 290 433 226 454 164 c 1
 466 125 481 86 510 56 c 0
 522 45 538 42 554 42 c 0
 572 42 587 54 599 66 c 0
 625 92 637 129 641 165 c 1
EndSplineSet
EndChar

StartChar: u1D4B4
Encoding: 119988 119988 148
Width: 595
Flags: W
HStem: -138 34<258 262.5> 273 48<252.5 266> 632 69
VStem: 120 66 429 62<277 314.5 191 390>
LayerCount: 2
Fore
SplineSet
191 625 m 2
 185 446 l 2
 185 425 186 403 191 382 c 0
 194 369 198 355 208 345 c 0
 223 331 242 321 263 321 c 0
 284 321 303 329 321 339 c 0
 346 353 367 371 387 390 c 0
 406 409 426 430 429 458 c 1
 431 668 l 1
 486 700 l 1
 499 689 l 1
 495 542 491 380 491 249 c 0
 491 133 464 13 381 -70 c 0
 342 -109 291 -138 234 -138 c 0
 207 -138 179 -131 160 -111 c 0
 142 -93 131 -70 131 -44 c 0
 131 -12 144 18 160 46 c 0
 182 85 211 119 242 150 c 0
 278 186 365 238 429 277 c 1
 429 390 l 1
 379 325 308 273 224 273 c 0
 195 273 170 288 150 308 c 0
 123 335 120 374 120 410 c 2
 123 560 l 2
 123 578 125 595 124 613 c 0
 124 618 124 623 120 626 c 0
 116 630 111 632 105 632 c 0
 88 632 63 607 44 589 c 1
 25 598 l 1
 39 621 55 645 72 662 c 0
 93 683 116 703 146 703 c 0
 157 703 168 698 176 690 c 0
 191 675 191 647 191 625 c 2
426 236 m 1
 371 214 320 184 278 142 c 0
 254 118 233 91 217 61 c 1
 205 36 196 9 196 -19 c 0
 196 -41 196 -66 211 -81 c 0
 226 -97 247 -104 269 -104 c 0
 298 -104 322 -87 342 -67 c 0
 374 -35 392 8 404 52 c 0
 421 112 426 174 426 236 c 1
EndSplineSet
EndChar

StartChar: u1D4B5
Encoding: 119989 119989 149
Width: 656
Flags: W
HStem: -17 46 89 49<182.5 269.5> 647 54<230 235>
VStem: 79 84 545 87
LayerCount: 2
Fore
SplineSet
356 103 m 2
 467 43 l 2
 482 35 500 26 515 27 c 0
 534 28 552 37 565 51 c 1
 573 58 573 71 573 82 c 0
 573 96 565 108 558 119 c 0
 551 131 542 144 542 156 c 0
 542 166 548 175 556 182 c 1
 562 189 572 191 581 191 c 0
 593 191 603 186 611 178 c 0
 624 165 632 147 632 129 c 0
 632 93 616 59 591 33 c 0
 558 0 512 -14 466 -16 c 1
 445 -18 425 -11 407 -1 c 2
 335 37 l 2
 308 52 280 65 252 76 c 1
 233 82 214 89 194 89 c 0
 171 89 148 81 131 64 c 0
 128 61 125 56 122 51 c 0
 122 50 102 18 92 2 c 1
 80 -1 l 1
 63 12 l 1
 58 26 l 1
 405 505 l 2
 416 521 430 540 438 555 c 1
 432 553 420 553 411 553 c 0
 386 553 336 588 302 612 c 0
 277 629 250 647 220 647 c 0
 199 647 178 640 163 625 c 0
 148 611 136 592 136 571 c 0
 136 561 142 547 147 535 c 0
 153 523 162 501 162 498 c 0
 162 489 160 479 154 472 c 1
 145 464 135 457 123 457 c 0
 111 457 99 462 91 471 c 0
 79 483 79 503 79 521 c 0
 79 570 108 613 142 648 c 1
 172 677 209 701 251 701 c 0
 267 701 282 695 297 689 c 0
 319 679 339 667 359 653 c 0
 383 637 421 611 431 605 c 0
 441 600 451 594 463 594 c 0
 470 594 479 603 486 609 c 0
 493 616 499 624 503 633 c 0
 509 644 507 659 518 666 c 0
 519 666 524 667 526 668 c 1
 535 666 l 1
 550 652 l 1
 555 646 l 1
 555 643 555 639 555 638 c 0
 555 637 547 629 543 624 c 0
 543 623 520 600 509 588 c 1
 395 430 166 117 166 116 c 1
 193 128 221 138 251 138 c 0
 288 138 323 120 356 103 c 2
EndSplineSet
EndChar

StartChar: u1D504
Encoding: 120068 120068 150
Width: 717
Flags: W
HStem: -27 21<299 299 565 565> 80 74<144 245> 633 53<181 295>
VStem: 22 64<487 549> 112 69<338.5 395> 368 80<425 539.5> 501 83
LayerCount: 2
Fore
SplineSet
400 319 m 1
 229 154 l 1
 261 154 287 134 309 112 c 2
 357 64 l 1
 501 154 l 1
 501 474 l 2
 501 516 498 559 496 601 c 1
 623 697 l 1
 639 686 l 1
 625 672 608 661 597 644 c 0
 590 635 587 623 586 612 c 0
 581 558 581 456 581 378 c 0
 581 317 583 257 586 197 c 0
 587 186 587 175 591 165 c 0
 603 135 616 104 634 80 c 0
 639 73 649 76 655 80 c 0
 671 88 688 93 703 101 c 1
 709 85 l 1
 565 -27 l 1
 501 122 l 1
 299 -27 l 1
 285 -4 269 18 251 37 c 1
 227 60 199 80 165 80 c 0
 123 80 85 59 48 37 c 1
 32 48 l 1
 144 133 l 2
 210 182 274 234 325 298 c 0
 360 341 368 398 368 452 c 0
 368 499 354 546 320 580 c 0
 287 613 244 633 197 633 c 0
 165 633 135 619 112 596 c 0
 96 581 86 560 86 538 c 0
 86 528 91 519 97 511 c 0
 106 497 117 485 128 474 c 0
 143 459 157 443 168 426 c 0
 175 414 181 402 181 388 c 0
 181 362 167 338 150 318 c 0
 126 291 96 271 64 255 c 1
 48 266 l 1
 66 276 82 289 95 305 c 0
 105 317 112 331 112 346 c 0
 112 356 107 365 101 373 c 0
 92 386 81 398 70 410 c 0
 44 436 22 468 22 506 c 0
 22 546 47 579 75 607 c 0
 127 659 198 686 272 686 c 0
 318 686 366 677 400 644 c 1
 433 610 448 563 448 516 c 0
 448 448 430 380 400 319 c 1
EndSplineSet
EndChar

StartChar: u1D505
Encoding: 120069 120069 151
Width: 885
Flags: W
HStem: -27 64<514 615> 341 42 623 65
VStem: 48 70<489.5 558.5> 134 74<338 394.5> 368 86 714 85<154.5 244.5>
LayerCount: 2
Fore
SplineSet
421 207 m 1
 304 117 l 1
 363 117 419 96 474 74 c 0
 516 58 568 37 602 37 c 0
 628 37 653 46 671 64 c 0
 701 93 714 134 714 175 c 0
 714 217 701 258 671 287 c 1
 635 324 584 341 533 341 c 0
 506 341 479 336 454 325 c 1
 450 284 440 244 421 207 c 1
457 357 m 1
 496 371 549 388 570 399 c 0
 605 417 641 435 676 452 c 1
 665 455 660 468 655 478 c 0
 647 497 643 517 639 538 c 0
 635 564 629 601 618 612 c 0
 605 625 588 633 570 633 c 0
 539 633 512 618 490 596 c 0
 471 577 461 552 453 527 c 1
 458 500 458 442 458 399 c 0
 458 385 458 371 457 357 c 1
96 21 m 1
 219 96 l 2
 268 125 315 160 346 207 c 0
 357 223 360 242 362 261 c 0
 367 293 368 325 368 356 c 0
 368 396 365 435 357 474 c 0
 349 513 333 551 304 580 c 0
 277 607 241 623 203 623 c 0
 181 623 159 617 144 601 c 0
 130 587 118 569 118 548 c 0
 118 537 123 527 129 517 c 0
 138 501 149 487 160 474 c 0
 173 458 186 442 196 425 c 0
 202 413 208 401 208 388 c 0
 208 360 193 336 175 315 c 1
 150 289 119 270 86 255 c 1
 70 266 l 1
 87 276 104 288 116 304 c 0
 126 316 134 330 134 346 c 0
 134 354 129 361 125 368 c 0
 123 371 99 403 86 420 c 0
 67 446 48 473 48 506 c 0
 48 545 69 580 96 607 c 0
 143 653 200 692 267 692 c 0
 311 692 353 675 384 644 c 0
 402 626 419 607 432 585 c 1
 454 608 480 626 506 644 c 0
 543 668 584 686 629 686 c 0
 652 686 676 682 693 665 c 0
 704 654 713 610 719 580 c 0
 724 555 730 527 746 511 c 0
 753 504 762 505 771 505 c 1
 786 507 801 511 815 516 c 1
 820 495 l 1
 783 480 746 465 714 442 c 0
 685 420 653 403 623 383 c 1
 672 383 722 370 756 335 c 1
 786 306 799 265 799 224 c 0
 799 181 786 139 767 101 c 1
 714 58 637 -3 602 -16 c 0
 582 -24 560 -27 538 -27 c 0
 490 -27 444 -13 400 5 c 0
 351 24 294 48 251 48 c 0
 200 48 154 22 112 -6 c 1
 96 21 l 1
EndSplineSet
EndChar

StartChar: u1D506
Encoding: 120070 120070 152
Width: 612
Flags: W
HStem: -20 66 666 20
VStem: 59 80<320 350.5> 304 96<381.5 382>
LayerCount: 2
Fore
SplineSet
267 601 m 1
 299 585 l 1
 362 630 434 659 506 686 c 1
 516 659 524 632 534 605 c 0
 538 596 542 587 549 580 c 0
 559 570 588 579 607 585 c 1
 607 564 l 1
 572 547 535 532 496 527 c 1
 469 543 439 591 416 628 c 1
 403 624 393 616 384 607 c 1
 375 596 373 582 373 568 c 0
 372 547 374 526 378 506 c 0
 386 470 400 436 400 399 c 0
 400 364 393 328 368 303 c 0
 330 266 279 247 226 239 c 1
 214 255 l 1
 242 262 267 277 288 298 c 0
 304 314 304 343 304 367 c 0
 304 397 292 438 283 474 c 0
 275 503 270 534 277 564 c 1
 242 563 209 549 187 522 c 0
 151 477 139 419 139 362 c 0
 139 278 159 193 219 133 c 0
 288 63 388 38 485 48 c 1
 602 106 l 1
 602 80 l 1
 553 49 504 18 458 -16 c 1
 347 -39 226 -18 144 64 c 0
 114 94 94 131 81 171 c 0
 65 219 59 269 59 319 c 0
 59 382 74 444 102 500 c 1
 153 539 208 575 267 601 c 1
EndSplineSet
EndChar

StartChar: u1D507
Encoding: 120071 120071 153
Width: 831
Flags: W
HStem: -27 75<458.5 522.5> 64 69<144.5 158.5 139 169> 612 74<347.5 393>
VStem: 27 24 299 92 671 75<306 443.5>
LayerCount: 2
Fore
SplineSet
368 559 m 1
 384 548 l 1
 370 539 358 528 346 516 c 0
 333 503 321 489 311 474 c 0
 305 464 299 453 299 442 c 0
 299 428 324 391 341 367 c 0
 361 339 389 298 389 277 c 0
 389 247 372 221 352 200 c 0
 323 169 288 146 251 128 c 1
 294 119 337 106 378 90 c 1
 422 74 492 48 512 48 c 0
 533 48 553 58 571 70 c 1
 594 87 613 109 629 133 c 0
 645 157 654 185 660 213 c 0
 668 250 671 287 671 325 c 0
 671 396 654 470 602 522 c 0
 535 589 440 612 346 612 c 0
 263 612 177 592 118 532 c 0
 74 488 55 428 48 367 c 1
 27 378 l 1
 27 460 53 543 112 601 c 0
 142 631 181 651 221 664 c 0
 270 680 322 686 373 686 c 0
 434 686 494 680 552 662 c 0
 598 647 642 625 676 591 c 0
 724 543 746 477 746 410 c 0
 746 314 725 221 687 133 c 1
 622 67 528 -27 469 -27 c 0
 448 -27 401 -8 368 5 c 0
 326 22 283 35 240 48 c 0
 212 56 183 64 155 64 c 0
 134 64 115 54 99 42 c 0
 78 27 62 6 48 -16 c 1
 32 0 l 1
 58 51 95 96 139 133 c 1
 178 133 218 140 252 161 c 0
 277 176 299 199 299 229 c 0
 299 257 285 282 267 303 c 0
 251 322 226 352 219 362 c 0
 214 370 208 378 208 388 c 0
 208 404 214 420 222 434 c 0
 232 453 246 469 261 484 c 0
 292 515 329 539 368 559 c 1
EndSplineSet
EndChar

StartChar: u1D508
Encoding: 120072 120072 154
Width: 662
Flags: W
HStem: -26 72 527 51 666 20
VStem: 86 79<320 350.5> 304 122
LayerCount: 2
Fore
SplineSet
293 601 m 1
 325 585 l 1
 389 630 461 659 533 686 c 1
 542 659 550 632 561 605 c 0
 565 596 568 587 575 580 c 0
 586 570 615 579 634 585 c 1
 634 564 l 1
 598 547 561 532 522 527 c 1
 496 542 465 591 442 628 c 1
 430 624 419 616 410 607 c 1
 402 596 400 582 399 568 c 0
 398 547 401 526 405 506 c 0
 414 460 426 399 426 367 c 1
 528 431 l 1
 551 399 579 371 613 351 c 1
 538 309 l 1
 518 322 500 338 479 351 c 0
 474 354 469 356 464 356 c 0
 450 356 437 350 426 341 c 1
 420 314 403 291 384 271 c 0
 369 256 350 246 331 239 c 0
 305 228 278 222 251 218 c 1
 235 234 l 1
 264 239 290 254 315 271 c 1
 322 279 326 289 328 299 c 0
 331 313 332 329 331 344 c 0
 330 388 321 431 309 474 c 0
 301 503 296 534 304 564 c 1
 269 563 235 549 214 522 c 0
 178 477 165 419 165 362 c 0
 165 278 185 193 245 133 c 0
 315 63 415 38 512 48 c 1
 629 106 l 1
 629 80 l 1
 580 49 531 18 485 -16 c 1
 373 -39 253 -18 171 64 c 0
 141 94 121 131 108 171 c 0
 92 219 86 269 86 319 c 0
 86 382 101 444 128 500 c 1
 180 539 234 575 293 601 c 1
EndSplineSet
EndChar

StartChar: u1D509
Encoding: 120073 120073 155
Width: 611
Flags: W
HStem: -155 38<202.5 289.5> 160 59 500 80<473.5 540> 617 69<184 271>
VStem: 107 75 235 74<356.5 427.5> 405 80<48 49>
LayerCount: 2
Fore
SplineSet
368 293 m 1
 490 410 l 1
 513 386 533 361 544 330 c 1
 501 271 l 1
 489 292 473 314 448 314 c 0
 431 314 400 289 378 271 c 1
 407 234 435 195 458 153 c 0
 471 128 485 103 485 74 c 0
 485 22 463 -27 426 -64 c 0
 371 -119 297 -155 219 -155 c 0
 186 -155 156 -140 134 -117 c 1
 117 -101 110 -77 107 -54 c 1
 101 -20 103 14 107 48 c 0
 110 70 111 93 109 116 c 0
 108 130 106 144 96 154 c 0
 88 163 75 163 64 161 c 0
 47 159 31 152 16 144 c 1
 11 165 l 1
 42 186 74 204 110 214 c 0
 130 219 156 226 171 207 c 0
 184 191 190 170 192 149 c 1
 196 122 193 95 187 69 c 0
 180 39 177 8 181 -23 c 0
 184 -46 192 -69 208 -85 c 0
 225 -103 247 -117 272 -117 c 0
 307 -117 338 -99 362 -75 c 0
 392 -45 405 -4 405 37 c 0
 405 61 393 84 382 106 c 0
 363 143 339 178 315 213 c 1
 293 243 272 274 255 307 c 0
 245 326 235 346 235 367 c 0
 235 400 254 428 274 452 c 0
 305 489 343 518 384 543 c 1
 349 564 313 583 275 598 c 0
 250 608 224 617 197 617 c 0
 171 617 147 604 128 585 c 0
 96 553 84 507 75 463 c 1
 59 474 l 1
 65 532 81 591 123 633 c 0
 158 668 206 686 256 686 c 0
 286 686 314 676 341 665 c 0
 384 647 424 625 464 601 c 0
 483 590 505 580 528 580 c 0
 552 580 588 618 613 644 c 1
 613 617 l 1
 590 586 567 556 538 530 c 0
 523 516 506 500 485 500 c 0
 462 500 440 510 421 522 c 1
 391 514 363 501 341 479 c 0
 323 462 309 440 309 415 c 0
 309 397 317 380 324 364 c 0
 336 339 352 315 368 293 c 1
EndSplineSet
EndChar

StartChar: u1D50A
Encoding: 120074 120074 156
Width: 785
Flags: W
HStem: -27 69<328 446.5> 396 56 672 20<522 522>
VStem: 64 80<323 337.5> 307 93 623 88<263.5 271.5>
LayerCount: 2
Fore
SplineSet
666 601 m 1
 496 452 l 1
 528 455 561 455 592 448 c 0
 616 443 639 435 655 418 c 0
 686 387 711 348 711 303 c 0
 711 224 674 151 618 96 c 1
 566 62 504 21 464 -11 c 1
 433 -22 400 -27 368 -27 c 0
 288 -27 211 2 155 58 c 0
 87 127 64 224 64 319 c 0
 64 356 67 392 76 428 c 0
 84 456 94 483 112 506 c 1
 272 601 l 1
 299 585 l 1
 416 660 l 1
 426 649 l 1
 399 626 373 596 373 559 c 0
 373 526 385 466 394 420 c 1
 450 454 502 492 549 538 c 1
 508 556 472 587 453 628 c 1
 522 692 l 1
 534 668 549 647 569 630 c 0
 585 617 603 607 623 607 c 0
 637 607 651 612 661 623 c 1
 666 601 l 1
235 213 m 1
 219 229 l 1
 249 236 275 256 293 282 c 0
 305 299 307 321 307 342 c 0
 307 374 301 405 293 436 c 0
 282 480 275 526 288 569 c 1
 255 562 221 551 197 527 c 0
 156 485 144 425 144 367 c 0
 144 279 167 190 229 128 c 0
 281 76 348 42 421 42 c 0
 472 42 523 59 559 96 c 1
 602 138 623 196 623 255 c 0
 623 288 615 322 591 346 c 0
 541 396 468 411 400 394 c 1
 403 350 400 303 368 271 c 0
 332 236 283 221 235 213 c 1
EndSplineSet
EndChar

StartChar: u1D50B
Encoding: 120075 120075 157
Width: 720
Flags: W
HStem: -133 53<424 480> 32 69<71.5 139> 404 64<437 437.5> 538 69<394.5 453> 647 18
VStem: 123 83<416.5 483> 559 86<195.5 210>
LayerCount: 2
Fore
SplineSet
368 -107 m 1
 416 -43 l 1
 427 -65 449 -80 474 -80 c 0
 486 -80 497 -74 505 -66 c 0
 517 -55 526 -41 533 -27 c 0
 545 -1 549 28 553 56 c 0
 558 101 559 146 559 191 c 0
 559 229 557 266 547 302 c 0
 540 328 531 354 512 372 c 0
 488 396 454 404 421 404 c 0
 392 404 366 391 343 373 c 0
 314 350 291 320 272 287 c 1
 284 257 294 226 298 193 c 0
 301 171 302 148 293 128 c 1
 252 75 209 17 165 -27 c 1
 152 -11 137 4 120 16 c 0
 108 24 95 32 80 32 c 0
 63 32 32 3 11 -16 c 1
 1 0 l 1
 36 41 88 101 123 101 c 0
 155 101 181 81 203 58 c 1
 224 78 240 104 240 133 c 0
 240 160 223 191 208 218 c 0
 185 260 163 303 145 348 c 0
 134 375 123 402 123 431 c 0
 123 473 149 508 175 540 c 0
 216 590 267 630 320 667 c 1
 354 633 398 607 448 607 c 0
 458 607 468 612 476 618 c 1
 483 622 521 649 544 665 c 1
 544 644 l 1
 501 602 437 538 405 538 c 0
 384 538 364 543 345 550 c 1
 316 559 288 572 261 585 c 1
 246 567 231 547 220 525 c 0
 212 509 206 492 206 474 c 0
 206 435 234 376 256 330 c 1
 309 385 371 430 437 468 c 1
 501 468 566 454 618 415 c 1
 634 358 645 299 645 239 c 0
 645 152 638 64 602 -16 c 1
 551 -63 475 -133 437 -133 c 0
 411 -133 386 -125 368 -107 c 1
EndSplineSet
EndChar

StartChar: u1D50C
Encoding: 120076 120076 158
Width: 554
Flags: W
HStem: -27 48 601 85<194.5 202>
VStem: 375 89
LayerCount: 2
Fore
SplineSet
522 671 m 1
 533 655 l 1
 486 611 435 573 378 543 c 1
 335 559 278 580 249 590 c 0
 230 596 212 601 192 601 c 0
 162 601 133 591 112 569 c 0
 83 540 63 502 48 463 c 1
 30 474 l 1
 42 510 56 545 72 579 c 0
 83 602 95 625 112 644 c 0
 138 673 175 686 214 686 c 0
 256 686 318 657 368 633 c 0
 385 625 402 617 421 617 c 0
 436 617 450 624 463 631 c 0
 484 642 503 656 522 671 c 1
43 -16 m 1
 38 0 l 1
 68 43 105 82 144 117 c 1
 169 157 168 77 197 48 c 0
 214 31 237 21 261 21 c 0
 291 21 316 38 336 58 c 0
 352 74 361 96 367 118 c 0
 376 147 378 177 378 207 c 0
 378 250 373 293 368 335 c 0
 363 378 357 421 362 463 c 1
 402 507 445 548 496 580 c 1
 512 575 l 1
 492 557 474 537 460 514 c 0
 451 498 442 481 442 463 c 1
 444 442 444 420 448 399 c 1
 455 348 464 293 464 245 c 0
 464 183 450 119 405 74 c 0
 348 17 274 -27 192 -27 c 0
 155 -27 123 -3 96 21 c 1
 43 -16 l 1
EndSplineSet
EndChar

StartChar: u1D50D
Encoding: 120077 120077 159
Width: 552
Flags: W
HStem: -139 43<264.5 268.5> 80 64<44 126.5> 516 64 601 85<205.5 209.5>
VStem: 104 77 384 74<55.5 63.5>
LayerCount: 2
Fore
SplineSet
70 495 m 1
 54 506 l 1
 73 554 98 599 133 637 c 0
 157 663 187 686 224 686 c 0
 242 686 259 679 275 670 c 0
 299 657 320 640 341 623 c 0
 355 611 370 600 386 591 c 0
 397 585 409 580 421 580 c 0
 457 580 490 596 522 612 c 1
 522 591 l 1
 470 564 393 526 362 516 c 1
 332 522 307 540 283 559 c 0
 256 580 227 601 192 601 c 0
 168 601 147 588 130 573 c 0
 105 551 86 524 70 495 c 1
-4 64 m 1
 -10 80 l 1
 12 98 35 114 60 127 c 0
 78 136 97 144 118 144 c 0
 135 144 153 140 165 128 c 0
 181 112 181 79 181 53 c 0
 181 27 183 1 188 -25 c 0
 192 -41 196 -58 208 -69 c 1
 226 -88 252 -96 277 -96 c 0
 303 -96 328 -88 346 -69 c 1
 374 -42 384 -2 384 37 c 0
 384 90 370 144 357 197 c 0
 341 260 323 335 331 388 c 1
 370 442 417 490 469 532 c 1
 485 522 l 1
 464 498 445 473 430 445 c 0
 419 426 410 405 410 383 c 0
 410 347 419 305 426 266 c 1
 439 206 458 106 458 85 c 0
 458 26 430 -28 389 -69 c 0
 349 -110 297 -139 240 -139 c 0
 204 -139 165 -133 139 -107 c 0
 117 -84 111 -52 107 -22 c 0
 104 6 99 44 91 58 c 0
 83 72 69 80 54 80 c 0
 34 80 14 73 -4 64 c 1
EndSplineSet
EndChar

StartChar: u1D50E
Encoding: 120078 120078 160
Width: 668
Flags: W
HStem: -27 64 436 64<392 477> 628 53<430 435>
VStem: 219 68 479 77
LayerCount: 2
Fore
SplineSet
618 341 m 1
 466 272 l 1
 466 271 l 1
 481 271 497 264 512 255 c 1
 532 222 544 168 554 122 c 0
 558 104 565 87 577 72 c 0
 586 62 598 53 613 53 c 0
 637 53 662 59 682 74 c 1
 682 53 l 1
 660 31 637 10 610 -6 c 0
 593 -17 575 -27 554 -27 c 0
 534 -27 519 -12 508 4 c 0
 492 26 484 53 480 80 c 0
 473 124 464 186 442 207 c 1
 426 224 402 229 378 229 c 0
 347 229 316 220 288 207 c 1
 288 181 287 154 283 128 c 1
 258 90 229 55 195 26 c 0
 167 2 136 -17 102 -27 c 1
 66 -22 37 2 16 32 c 1
 80 106 l 1
 87 88 97 70 111 56 c 0
 121 45 134 37 149 37 c 0
 165 37 181 42 192 53 c 0
 216 76 219 111 219 144 c 0
 219 194 207 244 192 293 c 0
 177 342 158 405 160 442 c 1
 181 501 217 552 261 596 c 0
 316 651 391 681 469 681 c 0
 500 681 531 676 560 664 c 0
 584 654 605 639 618 617 c 1
 621 578 614 538 602 500 c 1
 586 495 l 1
 586 529 573 561 549 585 c 0
 513 621 460 628 410 628 c 0
 363 628 316 614 283 580 c 0
 259 556 248 523 244 490 c 0
 240 448 248 407 261 367 c 1
 296 404 332 438 375 465 c 1
 403 484 435 500 469 500 c 0
 485 500 500 496 512 484 c 0
 533 463 541 430 549 399 c 0
 557 367 592 349 623 362 c 1
 618 341 l 1
288 234 m 1
 501 319 l 1
 485 333 476 360 469 383 c 0
 464 399 454 412 442 424 c 0
 433 433 419 436 405 436 c 0
 379 436 355 423 335 406 c 1
 307 384 285 355 267 325 c 1
 278 297 283 265 288 234 c 1
EndSplineSet
EndChar

StartChar: u1D50F
Encoding: 120079 120079 161
Width: 666
Flags: W
HStem: -27 91<454 485 446 493> 404 48 639 47<358.5 466>
VStem: 160 80<458.5 536> 478 93 625 20<186 186>
LayerCount: 2
Fore
SplineSet
629 197 m 1
 645 186 l 1
 637 147 629 108 616 70 c 1
 607 47 598 23 581 5 c 0
 553 -23 512 -27 474 -27 c 0
 434 -27 395 -18 356 -7 c 0
 300 9 246 30 192 53 c 0
 172 62 150 69 128 69 c 0
 103 69 70 14 48 -22 c 1
 32 0 l 1
 52 47 74 94 107 133 c 1
 132 137 157 142 181 152 c 0
 199 159 216 167 229 181 c 1
 244 195 251 214 251 234 c 0
 251 257 226 303 208 335 c 0
 195 360 182 386 172 413 c 0
 166 431 160 449 160 468 c 0
 160 491 169 512 179 531 c 0
 194 557 213 580 235 601 c 0
 291 658 368 686 448 686 c 0
 484 686 523 681 549 655 c 0
 561 643 566 626 569 609 c 0
 573 586 573 561 570 538 c 0
 568 519 565 491 565 483 c 0
 565 476 565 468 570 463 c 0
 581 452 605 452 623 452 c 1
 623 431 l 1
 517 404 l 1
 505 410 494 417 485 426 c 0
 471 439 476 482 480 511 c 0
 482 532 483 553 479 574 c 0
 477 588 474 602 464 612 c 0
 441 634 409 639 378 639 c 0
 339 639 300 624 272 596 c 0
 252 576 240 550 240 522 c 0
 240 502 245 483 251 465 c 0
 259 439 271 413 283 388 c 0
 304 345 324 299 320 250 c 1
 286 209 219 129 219 128 c 0
 264 109 310 92 358 80 c 0
 392 71 428 64 464 64 c 0
 506 64 550 70 581 101 c 0
 607 127 619 162 629 197 c 1
EndSplineSet
EndChar

StartChar: u1D510
Encoding: 120080 120080 162
Width: 1049
Flags: W
HStem: -27 21<192 192 884 884> 26 80<92.5 151.5> 623 63<170.5 293>
VStem: 27 69<493 563.5> 118 74 352 85<338.5 460> 618 91<383 388.5> 826 80<253.5 271 271 292.5>
LayerCount: 2
Fore
SplineSet
362 122 m 1
 192 -27 l 1
 178 -12 162 1 144 12 c 1
 133 20 121 26 107 26 c 0
 78 26 55 6 38 -16 c 1
 27 0 l 1
 44 28 64 55 88 78 c 0
 104 92 122 106 144 106 c 0
 159 106 173 100 186 92 c 0
 204 82 220 68 235 53 c 1
 257 65 275 83 293 101 c 0
 319 127 329 163 336 198 c 1
 349 254 352 310 352 367 c 0
 352 410 347 454 334 495 c 0
 323 529 307 561 283 585 c 0
 256 612 219 623 181 623 c 0
 160 623 138 617 123 601 c 0
 110 588 96 573 96 554 c 0
 96 540 102 529 109 517 c 0
 119 500 131 484 144 468 c 1
 158 453 170 436 180 418 c 1
 186 405 192 392 192 378 c 0
 192 351 177 328 159 309 c 0
 134 281 103 261 70 245 c 1
 48 261 l 1
 67 270 85 282 99 298 c 0
 109 310 118 324 118 341 c 0
 118 358 96 385 80 404 c 0
 66 422 52 441 41 461 c 0
 34 474 27 486 27 500 c 0
 27 545 55 582 86 612 c 1
 131 658 191 686 256 686 c 0
 330 686 397 640 421 569 c 1
 435 587 450 605 469 617 c 0
 504 641 543 660 586 660 c 0
 609 660 633 655 650 639 c 1
 667 621 678 600 686 577 c 1
 708 603 734 625 762 644 c 0
 797 669 835 692 879 692 c 0
 897 692 915 684 927 671 c 0
 938 658 947 633 954 612 c 0
 959 597 964 580 975 569 c 0
 983 562 994 560 1004 560 c 0
 1020 560 1035 564 1049 569 c 1
 1049 554 l 1
 1008 533 970 506 938 474 c 1
 925 448 918 420 914 392 c 1
 907 354 906 315 906 277 c 0
 906 230 906 170 916 138 c 0
 923 117 936 98 948 80 c 0
 952 75 958 73 964 74 c 0
 986 81 1007 90 1028 101 c 1
 1028 80 l 1
 884 -27 l 1
 826 80 l 1
 826 271 l 2
 826 314 833 357 842 399 c 1
 864 433 891 463 922 490 c 1
 915 491 907 499 900 506 c 0
 895 511 885 541 879 559 c 0
 872 580 862 610 852 617 c 1
 843 625 832 628 820 628 c 0
 795 628 770 618 751 601 c 0
 729 582 711 558 698 532 c 1
 703 500 709 467 709 436 c 0
 709 330 686 225 645 128 c 1
 522 -22 l 1
 501 -4 472 21 453 21 c 0
 444 21 435 16 428 11 c 1
 415 4 405 -6 394 -16 c 1
 384 5 l 1
 410 40 448 90 469 101 c 0
 481 107 494 104 506 101 c 0
 515 99 542 80 559 69 c 1
 584 88 595 119 602 149 c 0
 618 213 618 294 618 367 c 0
 618 410 617 452 610 494 c 0
 606 521 601 547 586 569 c 0
 571 592 543 601 517 601 c 0
 496 601 478 589 464 575 c 0
 449 561 440 544 431 526 c 1
 436 500 437 473 437 447 c 0
 437 334 421 220 362 122 c 1
EndSplineSet
EndChar

StartChar: u1D511
Encoding: 120081 120081 163
Width: 832
Flags: W
HStem: -22 64<196.5 275> 490 64<703.5 785.5> 628 58<179.5 268>
VStem: 27 69<488 558.5> 112 80 373 75<246 372.5> 626 72
LayerCount: 2
Fore
SplineSet
820 564 m 1
 820 548 l 1
 792 527 762 507 735 484 c 0
 725 476 716 465 714 452 c 0
 702 395 698 336 698 277 c 0
 698 235 701 193 712 152 c 0
 719 124 730 95 751 74 c 0
 755 70 761 69 767 69 c 0
 789 69 809 82 826 96 c 1
 826 74 l 1
 823 72 737 10 693 -22 c 1
 671 14 649 49 629 85 c 0
 624 93 629 102 629 112 c 0
 626 165 623 241 623 271 c 0
 623 311 623 367 629 388 c 0
 631 396 635 403 639 410 c 1
 660 438 684 464 709 490 c 1
 698 490 682 490 676 495 c 1
 668 504 657 540 650 564 c 0
 645 582 636 599 623 612 c 0
 613 622 600 628 586 628 c 0
 555 628 528 612 506 591 c 1
 475 559 455 519 437 479 c 1
 444 437 448 394 448 351 c 0
 448 273 441 192 405 122 c 0
 400 113 393 99 389 96 c 0
 345 58 299 21 251 -11 c 0
 240 -18 227 -22 214 -22 c 0
 179 -22 148 -1 128 26 c 1
 192 106 l 1
 196 88 206 72 219 58 c 0
 230 47 246 42 261 42 c 0
 289 42 311 61 331 80 c 0
 349 98 356 123 362 148 c 0
 371 187 373 226 373 266 c 0
 373 331 367 396 349 459 c 0
 336 505 317 551 283 585 c 0
 258 610 227 628 192 628 c 0
 167 628 141 620 123 601 c 1
 108 587 96 569 96 548 c 0
 96 536 101 524 107 513 c 0
 116 497 127 482 139 468 c 0
 161 442 192 406 192 383 c 0
 192 357 179 332 160 314 c 1
 138 291 101 269 70 250 c 1
 54 266 l 1
 69 275 84 285 96 298 c 0
 106 308 112 321 112 335 c 0
 112 358 88 387 70 410 c 0
 58 424 47 440 38 457 c 0
 32 469 27 481 27 495 c 0
 27 517 35 537 45 556 c 0
 59 581 76 603 96 623 c 0
 136 662 189 686 245 686 c 0
 291 686 336 671 368 639 c 0
 396 611 415 575 426 538 c 1
 445 563 481 613 482 614 c 0
 516 657 567 686 623 686 c 0
 640 686 656 685 672 681 c 0
 684 678 695 674 703 665 c 0
 716 652 723 631 730 612 c 0
 735 597 743 572 746 569 c 0
 755 561 765 554 778 554 c 0
 793 554 807 557 820 564 c 1
EndSplineSet
EndChar

StartChar: u1D512
Encoding: 120082 120082 164
Width: 828
Flags: W
HStem: -27 64 596 68 709 20<336 352 352 352>
VStem: 80 85<404 492.5> 187 74<182 275.5> 655 91<299 436>
LayerCount: 2
Fore
SplineSet
432 596 m 1
 346 593 l 2
 327 593 307 596 290 606 c 0
 278 613 267 624 267 639 c 0
 267 679 312 698 336 729 c 1
 352 729 l 1
 345 718 337 703 346 692 c 0
 354 683 367 679 378 676 c 0
 397 671 463 666 506 662 c 0
 541 659 575 653 608 642 c 0
 633 633 658 620 676 601 c 0
 729 548 746 473 746 399 c 0
 746 340 740 281 722 225 c 0
 709 183 689 141 655 112 c 1
 611 72 564 36 511 9 c 0
 473 -11 432 -27 389 -27 c 0
 334 -27 280 -15 229 5 c 0
 212 12 194 20 176 26 c 0
 159 32 141 37 123 37 c 0
 84 37 49 16 27 -16 c 1
 11 0 l 1
 39 37 69 73 102 106 c 1
 146 121 187 157 187 207 c 0
 187 222 182 236 176 250 c 0
 167 269 156 286 144 303 c 0
 127 328 99 366 92 377 c 0
 86 387 80 398 80 410 c 0
 80 445 95 477 116 505 c 0
 142 540 176 568 214 591 c 1
 235 580 l 1
 216 566 198 550 184 530 c 0
 174 517 165 501 165 484 c 0
 165 467 171 451 178 435 c 0
 187 411 200 389 214 367 c 0
 234 333 261 290 261 261 c 0
 261 235 250 212 236 191 c 0
 217 161 192 135 165 112 c 1
 177 112 188 108 199 104 c 0
 231 94 262 81 293 69 c 0
 344 50 398 37 453 37 c 0
 527 37 595 81 625 149 c 0
 651 206 655 268 655 330 c 0
 655 374 651 418 639 461 c 1
 629 493 615 524 591 548 c 0
 574 566 551 576 527 584 c 0
 496 593 464 596 432 596 c 1
EndSplineSet
EndChar

StartChar: u1D513
Encoding: 120083 120083 165
Width: 827
Flags: W
HStem: -219 21<325 325> -11 75<554 625> 80 74<237.5 289.5> 633 59<169 260.5>
VStem: 27 64<488.5 559.5> 113 74 331 77 602 74<331.5 404> 698 53<134 231.5>
LayerCount: 2
Fore
SplineSet
799 538 m 1
 804 522 l 1
 773 506 744 488 719 463 c 0
 708 451 697 439 688 426 c 0
 682 418 676 409 676 399 c 0
 676 370 696 340 714 314 c 1
 734 283 751 250 751 213 c 0
 751 144 718 81 666 37 c 0
 635 12 600 -11 559 -11 c 0
 549 -11 538 -8 528 -5 c 0
 488 8 450 24 410 37 c 1
 410 -25 413 -87 421 -149 c 1
 415 -154 357 -196 325 -219 c 1
 304 -208 l 1
 309 -196 316 -152 320 -123 c 0
 329 -61 331 0 331 63 c 1
 298 73 268 80 251 80 c 0
 224 80 200 66 181 48 c 1
 162 28 145 6 128 -16 c 1
 118 5 l 1
 137 43 157 81 187 112 c 0
 212 137 246 154 283 154 c 0
 296 154 313 151 331 146 c 1
 331 410 l 2
 331 446 327 483 317 518 c 0
 309 545 297 571 277 591 c 0
 252 616 218 633 181 633 c 0
 157 633 134 624 118 607 c 0
 102 591 91 571 91 548 c 0
 91 527 115 496 134 474 c 1
 155 447 187 407 187 388 c 0
 187 361 173 335 155 314 c 0
 132 287 102 266 70 250 c 1
 48 261 l 1
 66 272 82 286 95 302 c 0
 104 313 112 326 112 341 c 0
 112 357 87 388 70 410 c 0
 58 425 47 440 38 458 c 0
 32 469 27 482 27 495 c 0
 27 545 56 588 91 623 c 0
 131 663 183 692 240 692 c 0
 281 692 323 684 352 655 c 0
 381 626 397 588 405 548 c 1
 423 571 442 593 464 612 c 0
 514 655 572 692 639 692 c 0
 659 692 679 685 693 671 c 0
 710 653 715 612 719 580 c 0
 721 567 723 550 730 543 c 0
 748 524 776 530 799 538 c 1
410 484 m 1
 410 122 l 1
 411 122 l 1
 460 106 548 77 556 74 c 0
 575 69 593 64 613 64 c 0
 637 64 660 73 676 90 c 1
 691 104 698 124 698 144 c 0
 698 160 692 175 686 190 c 1
 676 211 664 231 650 250 c 0
 629 280 602 317 602 346 c 0
 602 366 613 384 624 400 c 0
 642 424 664 444 687 463 c 1
 674 466 661 479 650 490 c 0
 637 502 635 531 634 554 c 0
 633 576 631 605 618 617 c 1
 606 630 587 633 570 633 c 0
 546 633 525 621 506 607 c 0
 464 575 434 531 410 484 c 1
EndSplineSet
EndChar

StartChar: u1D514
Encoding: 120084 120084 166
Width: 828
Flags: W
HStem: -69 21 -27 64 593 67 709 20<336 352 352 352>
VStem: 80 85<404 492.5> 183 78 655 91<347.5 352>
LayerCount: 2
Fore
SplineSet
432 596 m 1
 346 593 l 2
 327 593 307 596 290 606 c 0
 278 613 267 624 267 639 c 0
 267 647 272 655 277 662 c 0
 295 685 317 706 336 729 c 1
 352 729 l 1
 345 718 337 703 346 692 c 0
 354 683 367 679 378 676 c 0
 397 671 463 666 506 662 c 0
 541 659 575 653 608 642 c 0
 633 633 658 620 676 601 c 0
 729 548 746 473 746 399 c 0
 746 296 712 197 655 112 c 1
 638 97 621 82 603 68 c 1
 621 48 638 29 660 14 c 0
 675 4 691 -6 709 -6 c 0
 736 -6 761 6 783 21 c 1
 783 -6 l 1
 746 -30 705 -47 666 -69 c 1
 633 -59 601 -46 570 -29 c 0
 550 -18 530 -6 513 10 c 1
 511 9 l 2
 473 -11 432 -27 389 -27 c 0
 334 -27 280 -15 229 5 c 0
 212 12 194 20 176 26 c 0
 159 32 141 37 123 37 c 0
 84 37 49 16 27 -16 c 1
 11 0 l 1
 39 37 69 73 102 106 c 1
 146 121 187 157 187 207 c 0
 187 222 182 236 176 250 c 0
 167 269 156 286 144 303 c 0
 127 328 99 366 92 377 c 0
 86 387 80 398 80 410 c 0
 80 445 95 477 116 505 c 0
 142 540 176 568 214 591 c 1
 235 580 l 1
 216 566 198 550 184 530 c 0
 174 517 165 501 165 484 c 0
 165 467 171 451 178 435 c 0
 187 411 200 389 214 367 c 0
 234 333 261 290 261 261 c 0
 261 235 250 212 236 191 c 0
 217 161 192 135 165 112 c 1
 177 112 188 108 199 104 c 0
 231 94 262 81 293 69 c 0
 344 50 398 37 453 37 c 0
 527 37 595 81 625 149 c 0
 651 206 655 268 655 330 c 0
 655 374 651 418 639 461 c 1
 629 493 615 524 591 548 c 0
 574 566 551 576 527 584 c 0
 496 593 464 596 432 596 c 1
EndSplineSet
EndChar

StartChar: u1D515
Encoding: 120085 120085 167
Width: 828
Flags: W
HStem: -27 21<693 693> 26 80<102.5 166> 341 47 628 58<174.5 274>
VStem: 27 64<478.5 559> 112 75<322.5 384.5> 352 82 629 82
LayerCount: 2
Fore
SplineSet
693 -27 m 1
 629 90 l 1
 632 154 635 223 623 282 c 0
 621 295 611 305 602 314 c 0
 581 335 551 341 522 341 c 0
 495 341 460 331 428 324 c 1
 425 302 421 279 416 257 c 0
 404 206 386 156 357 112 c 1
 301 67 247 19 192 -27 c 1
 170 -5 139 26 118 26 c 0
 87 26 61 8 43 -16 c 1
 27 0 l 1
 49 28 72 56 100 78 c 0
 118 92 137 106 160 106 c 0
 172 106 182 98 191 91 c 0
 207 79 221 63 235 48 c 1
 271 69 301 100 320 138 c 0
 334 166 339 197 344 228 c 0
 350 274 352 320 352 367 c 0
 352 410 347 453 335 494 c 0
 326 526 311 556 288 580 c 0
 261 607 226 628 187 628 c 0
 162 628 137 621 119 604 c 1
 104 588 91 570 91 548 c 0
 91 535 97 523 103 511 c 0
 113 494 126 478 139 463 c 0
 152 448 165 432 174 415 c 0
 181 403 187 391 187 378 c 0
 187 353 173 330 157 311 c 0
 134 284 105 263 75 245 c 1
 54 261 l 1
 84 278 112 304 112 341 c 0
 112 353 86 388 70 410 c 1
 51 434 27 467 27 490 c 0
 27 538 54 580 88 614 c 0
 131 658 189 686 251 686 c 0
 297 686 341 666 373 633 c 0
 396 610 412 583 422 553 c 1
 438 573 456 594 474 612 c 0
 516 654 569 686 629 686 c 0
 651 686 673 677 687 660 c 0
 702 642 706 615 709 591 c 0
 711 574 711 558 714 541 c 0
 715 536 716 531 719 527 c 0
 726 518 737 515 747 514 c 0
 763 512 778 513 794 516 c 1
 804 500 l 1
 775 489 746 478 719 463 c 0
 680 441 642 416 607 388 c 1
 641 388 672 373 698 351 c 1
 701 285 705 181 714 154 c 0
 721 132 729 111 741 91 c 0
 748 81 755 69 767 69 c 0
 772 69 806 82 826 90 c 1
 826 74 l 1
 693 -27 l 1
432 351 m 1
 464 364 494 382 528 388 c 1
 577 413 675 462 676 463 c 1
 663 464 649 469 639 479 c 0
 632 486 627 524 623 548 c 1
 621 567 616 585 607 601 c 0
 599 617 583 628 565 628 c 0
 540 628 518 614 501 596 c 0
 476 571 454 528 435 490 c 1
 436 478 437 465 437 452 c 0
 437 419 435 385 432 351 c 1
EndSplineSet
EndChar

StartChar: u1D516
Encoding: 120086 120086 168
Width: 828
Flags: W
HStem: -27 53<413.5 427.5> 341 69<538 632.5> 511 80 628 64
VStem: 65 74<329 357.5> 229 75<377 434.5> 676 75<186 293.5>
LayerCount: 2
Fore
SplineSet
339 508 m 1
 352 495 l 1
 339 491 329 483 320 474 c 0
 308 461 304 443 304 426 c 0
 304 410 309 394 320 383 c 0
 332 371 350 367 368 367 c 0
 390 367 446 380 485 388 c 1
 527 398 580 410 613 410 c 0
 652 410 691 395 719 367 c 0
 743 343 751 310 751 277 c 0
 751 203 723 132 671 80 c 0
 593 2 482 -27 373 -27 c 0
 297 -27 218 -7 163 48 c 0
 95 116 65 212 65 309 c 0
 65 406 102 500 171 569 c 0
 238 637 328 673 421 692 c 1
 474 664 544 627 581 611 c 0
 605 601 629 591 655 591 c 0
 677 591 698 597 714 612 c 0
 729 627 737 647 743 667 c 1
 756 655 l 1
 748 623 732 593 709 569 c 0
 681 541 644 525 607 511 c 1
 576 514 521 546 480 569 c 1
 452 586 423 601 393 613 c 0
 375 621 356 628 336 628 c 0
 286 628 243 599 208 564 c 0
 159 515 139 446 139 378 c 0
 139 280 170 182 240 112 c 0
 296 55 374 26 453 26 c 0
 517 26 583 39 629 85 c 0
 661 118 676 163 676 209 c 0
 676 246 666 283 639 309 c 0
 617 331 586 341 554 341 c 0
 522 341 479 332 442 325 c 0
 404 317 363 309 325 309 c 0
 300 309 274 312 256 330 c 0
 240 346 229 366 229 388 c 0
 229 417 242 443 261 463 c 1
 283 484 310 500 339 508 c 1
EndSplineSet
EndChar

StartChar: u1D517
Encoding: 120087 120087 169
Width: 669
Flags: W
HStem: -27 21 48 71 623 63<249.5 251>
VStem: 32 43<496.5 501.5> 261 79 384 69<198 265>
LayerCount: 2
Fore
SplineSet
607 133 m 1
 618 117 l 1
 590 85 561 55 529 28 c 0
 504 6 477 -13 448 -27 c 1
 404 -21 364 0 325 21 c 0
 297 36 267 48 235 48 c 0
 216 48 198 41 181 33 c 0
 156 21 134 6 112 -11 c 1
 102 5 l 1
 140 45 181 82 224 117 c 1
 253 119 282 119 309 112 c 1
 330 124 349 140 364 159 c 0
 375 173 384 189 384 207 c 0
 384 221 378 233 371 244 c 0
 361 262 349 278 336 293 c 0
 306 327 267 372 261 404 c 1
 269 438 284 468 302 497 c 1
 326 533 353 566 384 596 c 1
 332 614 278 623 224 623 c 0
 179 623 134 612 102 580 c 0
 85 563 75 540 75 516 c 0
 75 477 103 445 139 431 c 1
 75 367 l 1
 43 392 32 434 32 474 c 0
 32 529 63 578 102 617 c 0
 149 665 216 686 283 686 c 0
 340 686 397 677 453 665 c 1
 492 658 533 649 570 649 c 0
 612 649 649 672 676 703 c 1
 676 681 l 1
 607 591 l 1
 586 578 562 576 538 575 c 0
 500 574 463 579 426 585 c 1
 401 568 378 549 360 524 c 0
 347 506 336 486 336 463 c 0
 336 450 341 438 347 427 c 0
 355 411 366 397 378 383 c 0
 399 360 418 335 434 309 c 1
 443 292 453 275 453 255 c 0
 453 230 438 209 424 189 c 0
 400 156 371 128 341 101 c 1
 384 81 435 58 474 58 c 0
 496 58 517 67 536 78 c 0
 562 92 586 112 607 133 c 1
EndSplineSet
EndChar

StartChar: u1D518
Encoding: 120088 120088 170
Width: 645
Flags: W
HStem: -27 75<260.5 330.5> 677 20<219 219>
VStem: 59 85<488.5 571> 160 69<231.5 304.5> 458 75<250 261 261 308>
LayerCount: 2
Fore
SplineSet
458 112 m 1
 341 -6 l 1
 324 -19 304 -27 283 -27 c 0
 238 -27 196 -11 155 5 c 0
 117 20 75 37 38 37 c 0
 29 37 21 31 15 26 c 0
 3 17 -7 6 -16 -6 c 1
 -26 11 l 1
 54 101 l 1
 78 103 103 129 123 149 c 0
 150 175 160 213 160 250 c 0
 160 269 154 287 148 304 c 0
 138 330 126 354 112 378 c 0
 89 418 59 471 59 506 c 0
 59 526 69 545 80 562 c 0
 96 588 117 611 139 633 c 0
 163 657 189 680 219 697 c 1
 229 681 l 1
 214 670 200 657 187 644 c 0
 162 620 144 588 144 554 c 0
 144 522 164 481 181 447 c 0
 195 419 208 390 217 361 c 0
 224 338 229 316 229 293 c 0
 229 267 225 241 214 218 c 1
 118 106 l 1
 147 106 182 92 214 80 c 1
 247 66 294 48 315 48 c 0
 346 48 372 68 394 90 c 0
 417 113 445 141 453 165 c 0
 458 181 458 221 458 250 c 0
 458 366 456 481 448 596 c 1
 575 686 l 1
 591 676 l 1
 573 658 557 637 549 612 c 0
 533 564 533 513 533 463 c 2
 533 261 l 2
 533 239 534 218 538 197 c 0
 546 159 555 120 581 90 c 0
 589 81 601 78 613 80 c 0
 632 82 649 91 666 101 c 1
 666 80 l 1
 522 -27 l 1
 458 112 l 1
EndSplineSet
EndChar

StartChar: u1D519
Encoding: 120089 120089 171
Width: 831
Flags: W
HStem: -27 59<505.5 572> 90 64<208 224> 628 58<174 278.5>
VStem: 27 69<488 567.5> 118 74<333.5 389.5> 352 85<390 484> 654 97
LayerCount: 2
Fore
SplineSet
378 224 m 1
 293 149 l 1
 306 149 319 143 331 138 c 0
 345 131 387 106 416 90 c 0
 444 74 473 59 503 46 c 0
 521 39 540 32 559 32 c 0
 585 32 610 40 629 58 c 1
 643 73 648 93 652 112 c 0
 659 144 661 175 661 207 c 0
 661 231 658 264 655 293 c 1
 653 326 650 360 650 394 c 0
 650 417 654 441 661 463 c 1
 735 548 l 1
 706 548 680 564 655 580 c 0
 628 598 599 617 565 617 c 0
 554 617 544 613 535 608 c 0
 523 600 511 590 501 580 c 0
 473 553 453 520 437 484 c 1
 437 394 419 304 378 224 c 1
91 26 m 1
 80 42 l 1
 118 85 160 124 208 154 c 1
 254 154 295 180 320 218 c 0
 334 240 340 265 344 291 c 0
 350 330 352 370 352 410 c 0
 352 444 348 478 338 510 c 0
 330 536 318 561 299 580 c 0
 269 610 229 628 187 628 c 0
 161 628 136 620 118 601 c 1
 106 590 96 576 96 559 c 0
 96 544 103 530 110 517 c 0
 121 497 135 480 149 463 c 0
 161 449 173 435 181 419 c 0
 187 408 192 396 192 383 c 0
 192 357 176 336 159 317 c 0
 134 290 103 268 70 250 c 1
 54 266 l 1
 71 276 87 287 100 302 c 0
 110 313 118 326 118 341 c 0
 118 362 97 385 80 404 c 0
 66 421 52 438 41 457 c 0
 34 469 27 481 27 495 c 0
 27 517 35 537 45 556 c 0
 59 581 76 603 96 623 c 0
 138 665 196 686 256 686 c 0
 301 686 346 676 378 644 c 0
 404 618 420 585 429 550 c 1
 443 565 465 586 480 601 c 0
 503 625 529 647 558 664 c 0
 578 676 600 686 623 686 c 0
 659 686 691 670 719 649 c 0
 737 636 756 625 777 620 c 0
 793 616 811 615 826 623 c 1
 826 607 l 1
 810 596 796 583 783 569 c 0
 747 534 725 487 725 436 c 0
 725 402 730 369 735 335 c 1
 742 296 751 239 751 218 c 0
 751 187 744 156 730 128 c 0
 719 106 707 84 687 69 c 2
 570 -16 l 2
 556 -27 535 -27 517 -27 c 0
 494 -27 472 -21 451 -13 c 0
 422 -3 395 11 368 26 c 0
 337 44 306 61 274 74 c 0
 254 82 234 90 214 90 c 0
 165 90 122 63 91 26 c 1
EndSplineSet
EndChar

StartChar: u1D51A
Encoding: 120090 120090 172
Width: 1046
Flags: W
HStem: -28 71 628 58<183.5 285.5>
VStem: 32 70<487.5 558> 118 74<333 390> 346 80<386 516> 607 69 886 83
LayerCount: 2
Fore
SplineSet
352 191 m 1
 240 106 l 1
 285 71 337 42 394 42 c 0
 453 42 508 70 549 112 c 1
 574 136 584 171 592 205 c 0
 604 256 607 309 607 362 c 0
 607 414 600 466 578 514 c 0
 562 551 538 585 501 601 c 1
 473 576 447 548 426 516 c 1
 426 453 421 390 407 328 c 0
 396 280 380 233 352 191 c 1
75 250 m 1
 54 266 l 1
 71 275 88 284 102 298 c 0
 113 309 118 325 118 341 c 0
 118 363 101 382 86 399 c 0
 71 416 57 434 46 454 c 0
 39 466 32 480 32 495 c 0
 32 543 63 584 96 617 c 0
 141 662 203 686 267 686 c 0
 304 686 341 676 368 649 c 0
 392 625 410 596 421 564 c 1
 463 610 510 649 559 686 c 1
 598 646 651 590 666 559 c 1
 698 593 732 626 770 653 c 0
 793 670 818 686 847 686 c 0
 864 686 880 681 895 674 c 1
 918 665 939 652 959 639 c 0
 987 620 1023 614 1055 628 c 1
 1049 607 l 1
 1017 583 987 557 969 522 c 1
 960 502 956 480 955 459 c 0
 953 428 955 397 959 367 c 0
 965 316 969 264 969 213 c 0
 969 188 967 163 960 139 c 0
 954 121 946 103 932 90 c 0
 890 50 843 15 794 -16 c 1
 744 -31 692 -26 645 -6 c 0
 597 15 544 37 496 37 c 1
 455 18 415 -2 378 -27 c 1
 328 -31 278 -16 235 11 c 0
 208 27 173 48 149 48 c 0
 133 48 118 40 105 31 c 0
 84 18 66 1 48 -16 c 1
 32 5 l 1
 69 48 110 87 155 122 c 1
 203 121 249 141 283 175 c 0
 308 200 321 233 330 267 c 0
 343 313 346 362 346 410 c 0
 346 444 343 479 334 513 c 0
 327 537 317 562 299 580 c 0
 271 607 236 628 197 628 c 0
 170 628 142 621 123 601 c 0
 109 587 102 568 102 548 c 0
 102 535 107 523 113 511 c 0
 121 495 132 481 144 468 c 0
 157 454 170 439 180 421 c 0
 186 410 192 397 192 383 c 0
 192 354 175 329 155 309 c 0
 131 285 106 262 75 250 c 1
895 485 m 2
 954 548 l 1
 936 548 903 570 879 585 c 0
 853 602 825 617 794 617 c 0
 772 617 754 604 738 591 c 0
 713 569 694 543 676 516 c 1
 684 409 681 300 650 197 c 1
 627 174 599 134 575 101 c 1
 618 101 687 68 741 42 c 0
 757 35 775 32 794 32 c 0
 826 32 852 53 868 80 c 0
 882 103 884 132 885 159 c 0
 887 207 884 255 879 303 c 0
 876 337 873 371 874 405 c 0
 875 426 876 448 884 468 c 0
 887 474 891 480 895 485 c 2
EndSplineSet
EndChar

StartChar: u1D51B
Encoding: 120091 120091 173
Width: 719
Flags: W
HStem: -24 72 333 34 601 86
VStem: 336 69<319 335 367 385>
LayerCount: 2
Fore
SplineSet
78 527 m 1
 226 686 l 1
 270 684 315 670 346 639 c 0
 359 626 368 609 375 593 c 0
 386 568 393 542 400 516 c 1
 415 547 434 577 458 601 c 0
 496 639 539 669 588 689 c 1
 600 666 610 642 622 620 c 0
 625 613 629 607 634 601 c 1
 643 593 654 588 666 588 c 0
 677 588 695 597 709 604 c 1
 709 585 l 1
 607 527 l 1
 587 536 570 549 554 564 c 0
 539 579 518 600 513 614 c 1
 498 604 485 591 474 577 c 0
 457 554 443 528 432 500 c 0
 415 458 405 413 405 367 c 1
 464 367 522 367 581 367 c 1
 544 325 l 1
 498 331 451 334 405 335 c 1
 405 294 407 251 416 218 c 1
 427 171 445 125 480 90 c 0
 504 66 536 53 570 53 c 0
 609 53 644 74 676 96 c 1
 676 74 l 1
 565 -16 l 1
 549 -21 528 -27 517 -27 c 0
 483 -27 450 -13 426 11 c 0
 388 49 368 101 357 154 c 1
 315 112 l 2
 282 79 247 47 208 21 c 0
 190 9 172 -2 152 -11 c 0
 140 -16 126 -22 112 -22 c 0
 76 -22 46 2 27 32 c 1
 86 101 l 1
 101 70 130 48 165 48 c 0
 203 48 235 70 261 96 c 0
 302 137 319 194 331 250 c 0
 335 270 336 303 336 335 c 1
 277 335 219 333 160 325 c 1
 197 367 l 1
 336 367 l 1
 336 403 336 438 331 474 c 0
 326 508 318 544 293 569 c 0
 276 587 254 601 229 601 c 0
 197 601 167 587 144 564 c 0
 127 547 107 527 96 511 c 1
 78 527 l 1
EndSplineSet
EndChar

StartChar: u1D51C
Encoding: 120092 120092 174
Width: 834
Flags: W
HStem: -219 48<381.5 387> -22 80<358 417> 628 58<183.5 280>
VStem: 27 75<489 563> 123 69<339 390> 352 80<376.5 484> 661 80<306.5 350>
LayerCount: 2
Fore
SplineSet
362 207 m 1
 251 112 l 1
 275 107 298 96 320 85 c 0
 345 72 373 58 400 58 c 0
 434 58 463 81 485 106 c 1
 494 90 l 1
 471 60 448 31 421 5 c 1
 407 -7 392 -22 373 -22 c 0
 343 -22 304 -4 272 11 c 0
 234 28 179 53 155 53 c 0
 109 53 71 22 48 -16 c 1
 38 5 l 1
 67 49 104 87 144 122 c 1
 195 122 246 139 283 175 c 0
 308 200 323 233 334 267 c 0
 347 310 352 354 352 399 c 0
 352 436 348 473 336 509 c 1
 328 537 314 564 293 585 c 0
 268 611 234 628 197 628 c 0
 170 628 142 621 123 601 c 1
 110 589 102 572 102 554 c 0
 102 523 119 496 139 474 c 1
 153 457 167 440 178 421 c 0
 185 409 192 397 192 383 c 0
 192 358 177 337 161 318 c 1
 136 291 106 269 75 250 c 1
 59 266 l 1
 76 279 93 293 106 310 c 0
 114 320 123 332 123 346 c 0
 123 360 94 393 75 415 c 0
 62 430 50 445 39 462 c 0
 33 472 27 483 27 495 c 0
 27 516 36 536 46 554 c 0
 61 579 81 602 102 623 c 0
 144 665 202 686 261 686 c 0
 299 686 340 682 368 655 c 0
 399 624 418 585 426 542 c 1
 453 569 482 594 512 617 c 1
 545 644 580 668 618 686 c 1
 647 650 686 622 725 596 c 1
 741 516 741 426 741 341 c 0
 741 272 736 204 724 137 c 0
 715 84 701 32 676 -16 c 1
 632 -83 570 -136 501 -176 c 0
 458 -200 412 -219 362 -219 c 0
 333 -219 304 -213 278 -200 c 0
 257 -189 238 -172 229 -149 c 1
 304 -69 l 1
 311 -123 353 -171 410 -171 c 0
 466 -171 515 -140 554 -101 c 0
 579 -77 597 -47 613 -16 c 0
 633 25 642 70 648 115 c 0
 658 181 661 247 661 314 c 0
 661 386 657 458 634 527 c 1
 608 556 580 586 544 601 c 1
 523 589 501 575 485 559 c 0
 463 537 445 512 432 484 c 1
 432 387 417 289 362 207 c 1
EndSplineSet
EndChar

StartChar: u1D51D
Encoding: 120093 120093 175
Width: 602
Flags: W
HStem: -139 32<243 253> -16 53 319 56 597 74 709 20<160 176 176 176>
VStem: 112 85<-128 -32> 442 91<153 170.5>
LayerCount: 2
Fore
SplineSet
181 309 m 1
 224 372 l 1
 268 375 305 400 336 431 c 0
 366 461 384 501 384 543 c 0
 384 557 378 570 368 580 c 0
 352 595 331 601 309 601 c 0
 286 601 263 598 240 596 c 0
 213 594 164 591 160 591 c 0
 139 591 117 592 102 607 c 0
 95 614 91 623 91 633 c 1
 160 729 l 1
 176 729 l 1
 168 716 164 698 176 686 c 0
 192 671 225 671 251 671 c 0
 259 671 290 672 309 673 c 0
 325 673 341 676 357 676 c 0
 375 676 393 675 410 671 c 0
 422 668 434 663 442 655 c 0
 458 639 469 619 469 596 c 0
 469 546 446 499 410 463 c 0
 376 429 340 397 301 373 c 1
 302 372 l 1
 318 375 342 378 357 378 c 0
 418 378 482 361 517 309 c 1
 528 272 533 235 533 197 c 0
 533 109 502 25 453 -48 c 1
 384 -105 298 -139 208 -139 c 0
 176 -139 144 -136 112 -128 c 1
 112 -103 112 -67 111 -54 c 0
 110 -44 109 -34 102 -27 c 0
 95 -20 85 -16 75 -16 c 0
 55 -16 37 -30 22 -43 c 1
 11 -27 l 1
 34 -8 59 8 85 21 c 1
 106 30 127 37 149 37 c 0
 165 37 184 37 192 21 c 0
 197 11 197 -21 197 -43 c 0
 197 -60 197 -82 208 -93 c 0
 219 -104 235 -107 251 -107 c 0
 297 -107 341 -86 373 -54 c 0
 398 -29 414 2 424 35 c 0
 437 75 442 117 442 159 c 0
 442 182 440 205 434 227 c 0
 429 243 422 259 410 271 c 0
 377 305 330 319 283 319 c 0
 251 319 220 312 192 298 c 1
 181 309 l 1
EndSplineSet
EndChar

StartChar: u1D51E
Encoding: 120094 120094 176
Width: 500
Flags: W
HStem: -36 92<154 215> 392 79
VStem: 62 81 329 75
LayerCount: 2
Fore
SplineSet
329 91 m 1
 154 -36 l 1
 124 -4 95 30 67 65 c 1
 62 165 63 267 85 365 c 1
 254 471 l 1
 282 452 314 438 347 431 c 1
 414 465 l 1
 422 459 l 1
 412 392 404 324 404 256 c 0
 404 210 407 165 408 119 c 1
 444 74 l 1
 492 98 l 1
 497 83 l 1
 374 -27 l 1
 331 46 l 1
 331 61 329 76 329 91 c 1
329 122 m 1
 328 365 l 1
 281 365 233 379 186 392 c 1
 162 367 156 330 151 295 c 0
 143 238 144 179 148 121 c 1
 161 104 187 77 208 56 c 0
 209 55 212 56 215 56 c 0
 218 56 221 57 224 59 c 0
 259 80 294 100 329 122 c 1
EndSplineSet
EndChar

StartChar: u1D51F
Encoding: 120095 120095 177
Width: 513
Flags: W
HStem: -31 73 386 84 673 13
VStem: 89 87 364 76
LayerCount: 2
Fore
SplineSet
135 599 m 1
 255 686 l 1
 272 673 l 2
 271 673 252 656 242 647 c 0
 198 609 181 551 178 494 c 0
 176 451 176 408 178 365 c 1
 184 363 l 1
 229 401 276 440 324 470 c 1
 362 448 401 427 441 409 c 1
 446 305 445 200 424 97 c 1
 351 50 276 5 196 -31 c 1
 159 2 110 46 86 71 c 1
 100 144 100 228 100 307 c 0
 100 428 99 548 93 668 c 1
 110 672 l 1
 127 595 l 1
 135 599 l 1
178 333 m 1
 178 263 178 124 178 123 c 0
 210 90 258 42 285 42 c 0
 301 42 314 53 325 64 c 0
 341 81 348 103 353 125 c 0
 361 159 363 193 363 227 c 0
 363 268 362 308 358 349 c 1
 338 360 302 374 274 386 c 1
 241 370 207 354 178 333 c 1
EndSplineSet
EndChar

StartChar: u1D520
Encoding: 120096 120096 178
Width: 389
Flags: W
HStem: -29 87 390 76<178 249>
VStem: 71 86
LayerCount: 2
Fore
SplineSet
359 92 m 1
 187 -29 l 1
 147 5 111 44 77 84 c 1
 73 138 71 192 72 246 c 0
 73 285 76 325 84 363 c 1
 249 466 l 1
 288 463 324 444 357 422 c 1
 305 343 l 1
 302 342 297 340 296 340 c 0
 263 369 222 390 178 390 c 1
 162 362 159 330 157 299 c 1
 152 248 154 196 157 145 c 1
 183 116 215 86 246 58 c 1
 278 68 317 90 351 109 c 1
 359 92 l 1
EndSplineSet
EndChar

StartChar: u1D521
Encoding: 120097 120097 179
Width: 498
Flags: W
HStem: -34 84 546 64
VStem: 76 76 347 80
LayerCount: 2
Fore
SplineSet
394 104 m 1
 214 -34 l 1
 164 0 115 35 76 81 c 1
 71 158 73 235 79 312 c 0
 80 321 73 329 79 335 c 0
 121 375 167 418 211 447 c 1
 230 443 l 1
 214 428 203 408 188 392 c 0
 182 385 172 362 165 346 c 0
 145 299 153 206 159 135 c 1
 172 119 188 106 204 94 c 0
 227 78 251 64 276 51 c 0
 280 49 284 47 289 49 c 0
 293 50 297 54 299 58 c 0
 327 102 341 154 346 205 c 0
 353 270 348 335 337 399 c 1
 298 440 255 478 206 508 c 0
 173 529 136 546 96 546 c 0
 88 546 75 546 72 545 c 2
 26 527 l 1
 13 543 l 1
 56 567 101 589 146 610 c 1
 250 581 342 522 427 455 c 1
 430 384 430 314 423 244 c 0
 419 196 412 148 394 104 c 1
EndSplineSet
EndChar

StartChar: u1D522
Encoding: 120098 120098 180
Width: 400
Flags: W
HStem: -31 92 399 68
VStem: 65 85 282 83
LayerCount: 2
Fore
SplineSet
84 366 m 1
 246 467 l 1
 279 425 320 389 364 358 c 1
 295 292 209 212 151 166 c 1
 151 157 152 147 152 138 c 1
 183 107 216 79 256 61 c 1
 260 62 265 61 270 63 c 2
 353 103 l 1
 358 87 l 1
 304 45 248 5 189 -31 c 1
 149 6 109 43 75 85 c 1
 65 179 69 273 84 366 c 1
149 211 m 1
 197 240 244 272 282 313 c 1
 244 337 208 365 176 396 c 0
 174 399 170 395 168 392 c 0
 163 387 161 377 158 369 c 0
 149 334 149 264 149 211 c 1
EndSplineSet
EndChar

StartChar: u1D523
Encoding: 120099 120099 181
Width: 326
Flags: W
HStem: -222 21<111 111> 351 35<65 129 65 129> 585 63<231.5 270> 661 20
VStem: 129 74<22.5 41 41 351 293 351>
LayerCount: 2
Fore
SplineSet
203 351 m 1
 203 41 l 2
 203 4 200 -34 189 -69 c 1
 163 -120 111 -219 111 -220 c 2
 111 -222 l 1
 87 -219 l 1
 99 -174 124 -85 124 -84 c 0
 127 -55 129 -26 129 3 c 0
 129 119 129 235 129 351 c 1
 30 351 l 1
 65 386 l 1
 91 386 128 386 129 386 c 1
 119 428 107 470 98 512 c 0
 95 526 92 541 92 555 c 1
 121 601 156 642 193 681 c 1
 214 666 237 648 263 648 c 0
 277 648 290 654 302 662 c 1
 309 653 l 1
 248 585 l 1
 215 585 183 590 151 597 c 1
 151 564 160 532 173 502 c 0
 188 467 203 430 203 392 c 1
 204 392 277 388 324 386 c 1
 295 351 l 1
 265 351 234 351 203 351 c 1
EndSplineSet
EndChar

StartChar: u1D524
Encoding: 120100 120100 182
Width: 503
Flags: W
HStem: -209 74<240 305> 389 81
VStem: 76 78 342 79
LayerCount: 2
Fore
SplineSet
16 -131 m 1
 146 -20 l 1
 78 65 l 1
 71 166 74 268 89 368 c 1
 142 405 196 438 251 470 c 1
 285 447 325 434 365 425 c 1
 437 465 l 1
 443 459 l 1
 429 430 427 397 425 365 c 0
 421 310 421 222 421 150 c 0
 421 136 423 122 426 109 c 0
 435 66 446 25 455 -17 c 1
 404 -81 351 -144 292 -201 c 1
 280 -204 264 -209 256 -209 c 0
 224 -209 193 -200 164 -188 c 0
 127 -172 93 -150 62 -125 c 1
 27 -144 l 1
 16 -131 l 1
341 93 m 1
 274 46 210 -4 148 -57 c 1
 171 -80 196 -100 224 -115 c 0
 246 -127 270 -135 295 -135 c 0
 315 -135 335 -128 349 -114 c 0
 364 -98 365 -76 365 -55 c 0
 365 -33 350 44 341 93 c 1
230 52 m 1
 340 123 l 1
 340 199 342 276 349 351 c 1
 291 359 234 370 178 389 c 1
 157 350 155 304 155 260 c 0
 155 215 156 169 160 124 c 1
 181 98 205 75 230 52 c 1
EndSplineSet
EndChar

StartChar: u1D525
Encoding: 120101 120101 183
Width: 521
Flags: W
HStem: -206 21<251 251> -26 21<131 131> 390 88 669 20<237.5 238>
VStem: 79 85 352 83
LayerCount: 2
Fore
SplineSet
226 -184 m 1
 292 -129 l 2
 303 -121 311 -110 318 -98 c 0
 335 -64 341 -26 346 11 c 0
 354 71 356 132 356 193 c 0
 356 221 350 300 346 354 c 1
 320 373 291 390 258 390 c 0
 241 390 195 360 164 341 c 1
 164 267 164 194 164 121 c 1
 173 105 196 73 213 49 c 1
 131 -26 l 1
 113 5 87 50 76 65 c 1
 88 268 93 472 81 675 c 1
 85 675 92 677 93 677 c 1
 93 676 109 627 117 601 c 1
 157 630 237 689 238 689 c 2
 255 678 l 1
 204 633 164 572 164 503 c 2
 164 371 l 1
 197 397 262 443 312 478 c 1
 345 448 386 430 428 417 c 1
 432 360 435 303 435 246 c 0
 435 192 433 137 428 84 c 0
 424 45 419 6 408 -31 c 1
 362 -94 307 -150 251 -206 c 1
 226 -184 l 1
EndSplineSet
EndChar

StartChar: u1D526
Encoding: 120102 120102 184
Width: 279
Flags: W
HStem: -21 101 391 84 556 119
VStem: 91 76
LayerCount: 2
Fore
SplineSet
27 369 m 1
 14 382 l 1
 48 410 85 443 119 475 c 1
 138 455 157 436 179 420 c 1
 172 360 167 300 167 239 c 0
 167 200 168 160 178 122 c 0
 183 104 195 88 208 75 c 1
 212 75 214 79 217 81 c 0
 232 88 260 102 261 102 c 2
 268 83 l 1
 229 46 187 11 145 -21 c 1
 91 55 l 1
 104 159 100 263 90 367 c 1
 83 375 72 388 69 391 c 1
 58 387 41 377 27 369 c 1
187 616 m 1
 130 556 l 1
 109 575 90 596 72 617 c 1
 92 637 114 654 132 675 c 1
 150 654 172 628 187 616 c 1
EndSplineSet
EndChar

StartChar: u1D527
Encoding: 120103 120103 185
Width: 280
Flags: W
HStem: -208 21<19 19> 387 88 555 118<125 132>
VStem: 119 79
LayerCount: 2
Fore
SplineSet
168 -44 m 2
 19 -208 l 1
 -9 -184 l 1
 20 -162 49 -139 74 -113 c 0
 87 -100 95 -83 100 -66 c 0
 118 -12 118 113 118 203 c 0
 118 253 118 322 108 352 c 0
 103 367 92 379 79 388 c 0
 78 389 76 391 74 390 c 2
 39 367 l 1
 25 380 l 1
 131 475 l 1
 150 455 173 439 196 422 c 1
 197 290 198 158 190 26 c 0
 189 1 185 -25 168 -44 c 2
183 615 m 1
 125 555 l 1
 107 570 88 595 71 616 c 1
 132 673 l 1
 148 652 164 633 183 615 c 1
EndSplineSet
EndChar

StartChar: u1D528
Encoding: 120104 120104 186
Width: 389
Flags: W
HStem: -26 86<195 255> 309 34<51 94 51 94 24 94 178 178 178 185.5 255 319> 518 67 669 20<246 246>
VStem: 94 84<279 309 128 343> 288 72<434 491.5>
LayerCount: 2
Fore
SplineSet
352 108 m 1
 363 95 l 1
 320 58 252 13 195 -26 c 1
 88 69 l 1
 93 88 94 108 95 127 c 0
 96 188 94 249 94 309 c 1
 24 309 l 1
 51 343 l 1
 94 343 l 1
 91 452 86 670 86 671 c 2
 100 673 l 1
 108 649 124 601 124 600 c 1
 163 633 202 664 246 689 c 1
 268 680 l 1
 242 656 206 624 195 603 c 1
 176 571 171 534 168 498 c 1
 210 530 256 555 300 585 c 1
 317 569 332 551 344 531 c 0
 353 516 360 500 360 483 c 0
 360 465 354 447 341 434 c 2
 255 343 l 1
 346 343 l 1
 319 309 l 1
 178 309 l 1
 178 128 l 1
 202 104 227 80 255 60 c 1
 352 108 l 1
168 343 m 1
 203 343 237 356 260 383 c 0
 275 401 288 422 288 446 c 0
 288 459 282 470 276 481 c 1
 266 495 254 507 241 518 c 1
 221 508 202 495 190 476 c 0
 181 460 177 442 174 424 c 0
 169 397 168 370 168 343 c 1
EndSplineSet
EndChar

StartChar: u1D529
Encoding: 120105 120105 187
Width: 279
Flags: W
HStem: -20 95<148 222> 666 20<265 265>
VStem: 99 81
LayerCount: 2
Fore
SplineSet
265 686 m 1
 277 674 l 1
 255 655 233 636 216 613 c 0
 185 569 172 515 172 461 c 0
 170 346 181 231 180 117 c 1
 189 103 206 88 222 75 c 1
 268 100 l 1
 273 84 l 1
 148 -20 l 1
 97 56 l 1
 109 259 110 462 99 665 c 1
 112 672 l 1
 137 596 l 1
 179 628 221 658 265 686 c 1
EndSplineSet
EndChar

StartChar: u1D52A
Encoding: 120106 120106 188
Width: 766
Flags: W
HStem: -23 18 388 86
VStem: 88 80<313.5 347> 344 70 580 79
LayerCount: 2
Fore
SplineSet
168 376 m 1
 295 475 l 1
 333 452 373 432 415 418 c 1
 415 379 l 1
 459 409 503 440 544 474 c 1
 583 453 629 428 665 418 c 1
 657 321 657 223 661 126 c 1
 672 110 684 93 698 79 c 1
 715 87 735 95 748 104 c 1
 755 87 l 1
 631 -19 l 1
 621 0 595 34 576 60 c 1
 595 153 597 249 581 342 c 0
 580 348 578 354 572 357 c 0
 544 374 513 382 481 390 c 1
 458 378 436 365 415 351 c 1
 415 135 l 2
 415 127 415 118 419 113 c 0
 419 112 450 69 465 47 c 1
 379 -26 l 1
 366 0 349 24 331 46 c 1
 341 87 344 130 344 172 c 0
 345 231 341 289 334 347 c 1
 309 369 273 379 239 388 c 1
 168 347 l 1
 168 152 l 2
 168 136 168 112 173 106 c 0
 173 105 202 67 217 48 c 1
 134 -22 l 1
 89 56 l 1
 103 159 88 262 88 365 c 1
 62 391 l 1
 19 367 l 1
 7 379 l 1
 118 472 l 1
 135 455 168 421 168 420 c 0
 168 419 168 392 168 376 c 1
EndSplineSet
EndChar

StartChar: u1D52B
Encoding: 120107 120107 189
Width: 526
Flags: W
HStem: -23 21<132 132> 384 86
VStem: 83 93 339 94
LayerCount: 2
Fore
SplineSet
176 367 m 1
 320 475 l 1
 355 451 393 432 433 417 c 1
 426 344 427 224 429 127 c 1
 437 114 445 100 455 87 c 0
 458 83 463 82 468 82 c 0
 469 82 475 85 478 87 c 2
 512 107 l 1
 514 88 l 1
 394 -19 l 1
 339 65 l 1
 352 140 347 260 342 358 c 1
 313 373 280 381 247 384 c 1
 176 341 l 1
 176 134 l 2
 176 124 176 110 179 106 c 2
 219 52 l 1
 132 -23 l 1
 118 2 102 25 83 46 c 1
 98 131 94 258 90 365 c 1
 66 388 l 1
 31 368 l 1
 18 380 l 1
 52 410 121 470 122 470 c 0
 134 457 157 439 176 425 c 0
 176 424 176 388 176 367 c 1
EndSplineSet
EndChar

StartChar: u1D52C
Encoding: 120108 120108 190
Width: 488
Flags: W
HStem: -28 71 398 83
VStem: 65 74 338 79
LayerCount: 2
Fore
SplineSet
165 -28 m 1
 130 2 94 34 66 68 c 1
 65 167 71 266 84 364 c 1
 145 399 203 439 260 481 c 1
 305 451 354 426 408 415 c 1
 417 307 415 198 391 92 c 1
 319 46 244 4 165 -28 c 1
268 44 m 0
 273 43 283 55 290 63 c 0
 316 91 323 131 329 169 c 0
 338 231 337 294 334 356 c 1
 289 359 232 380 183 398 c 1
 159 366 149 326 145 287 c 0
 139 232 144 177 153 123 c 1
 170 102 189 83 211 68 c 0
 229 56 247 47 268 44 c 0
EndSplineSet
EndChar

StartChar: u1D52D
Encoding: 120109 120109 191
Width: 500
Flags: W
HStem: -212 21<93 93> 37 68<165 165> 388 90 518 20<125 125>
VStem: 87 79<19.5 339 105 339 105 352 310.5 339 105 352> 351 81
LayerCount: 2
Fore
SplineSet
169 -170 m 1
 93 -212 l 1
 78 -202 l 1
 82 -119 87 -8 87 47 c 1
 64 47 41 40 23 24 c 1
 12 38 l 1
 37 61 73 95 87 105 c 1
 87 187 87 269 87 352 c 1
 74 370 47 407 47 408 c 0
 44 412 42 417 42 422 c 0
 42 430 45 437 49 444 c 0
 70 478 96 510 125 538 c 1
 139 529 l 1
 129 517 121 503 121 487 c 0
 121 474 126 461 133 449 c 0
 142 433 154 419 167 406 c 0
 167 405 166 384 165 372 c 1
 214 405 260 441 307 478 c 1
 342 450 383 430 425 414 c 1
 429 348 432 282 428 216 c 0
 426 173 422 129 407 89 c 1
 273 -18 l 1
 241 8 205 30 165 37 c 1
 165 -32 166 -101 169 -170 c 1
166 339 m 1
 166 105 l 1
 212 106 270 78 319 54 c 1
 338 90 344 131 347 172 c 0
 351 232 348 293 343 353 c 1
 318 366 285 378 255 388 c 1
 223 378 193 360 166 339 c 1
EndSplineSet
EndChar

StartChar: u1D52E
Encoding: 120110 120110 192
Width: 489
Flags: W
HStem: -219 21<331 331> -29 87<146 210> 398 79
VStem: 59 79 319 92
LayerCount: 2
Fore
SplineSet
406 -179 m 1
 331 -219 l 1
 312 -202 l 1
 319 -103 322 -4 322 95 c 1
 267 49 207 9 146 -29 c 1
 62 65 l 1
 57 167 59 270 82 369 c 1
 139 400 197 432 247 473 c 1
 276 455 307 439 340 432 c 1
 410 480 l 1
 418 473 l 1
 403 388 401 252 399 141 c 0
 398 34 396 -73 406 -179 c 1
210 58 m 1
 319 124 l 1
 317 205 319 286 324 367 c 1
 273 370 223 383 174 398 c 1
 160 373 153 344 148 316 c 0
 141 278 138 239 138 200 c 0
 138 181 138 147 139 144 c 1
 139 137 140 130 145 125 c 0
 167 103 187 79 210 58 c 1
EndSplineSet
EndChar

StartChar: u1D52F
Encoding: 120111 120111 193
Width: 389
Flags: W
HStem: -21 81<200 255> 381 93
VStem: 97 85
LayerCount: 2
Fore
SplineSet
182 382 m 1
 291 469 l 1
 301 451 313 433 327 417 c 0
 335 408 345 398 357 398 c 0
 368 398 377 405 386 408 c 1
 388 394 l 1
 370 377 352 362 335 345 c 0
 326 337 314 335 302 335 c 0
 290 335 279 341 269 346 c 1
 253 356 238 367 224 380 c 1
 182 340 l 1
 182 277 182 214 182 152 c 0
 182 136 192 123 201 111 c 0
 217 92 235 75 255 60 c 1
 344 102 l 1
 346 83 l 1
 200 -21 l 1
 163 8 130 41 97 75 c 1
 102 116 106 157 106 198 c 0
 106 232 104 281 102 322 c 0
 101 334 100 353 97 356 c 0
 95 358 96 363 94 365 c 0
 85 373 75 380 65 387 c 1
 27 371 l 1
 15 381 l 1
 48 413 80 446 116 474 c 1
 137 453 159 433 182 414 c 0
 182 413 182 393 182 382 c 1
EndSplineSet
EndChar

StartChar: u1D530
Encoding: 120112 120112 194
Width: 442
Flags: W
HStem: -30 65 47 64<55 126> 234 66<243 315> 404 75
VStem: 68 75 296 76
LayerCount: 2
Fore
SplineSet
192 244 m 2
 315 300 l 1
 337 293 354 278 371 262 c 1
 376 191 377 119 358 50 c 1
 304 26 249 1 198 -30 c 1
 176 -9 152 11 125 27 c 0
 108 37 90 47 70 47 c 0
 40 47 14 29 -9 10 c 1
 -18 23 l 1
 -3 39 24 67 46 88 c 0
 64 105 89 111 113 111 c 0
 139 111 163 103 185 89 c 0
 212 71 265 35 266 35 c 0
 269 33 273 32 276 33 c 0
 281 35 283 43 285 48 c 0
 294 78 296 109 296 140 c 0
 296 165 296 199 284 212 c 0
 274 222 262 234 250 234 c 0
 236 234 222 231 209 224 c 0
 175 205 108 168 107 168 c 0
 92 187 80 208 68 230 c 1
 69 279 68 328 70 377 c 1
 222 479 l 1
 248 461 278 450 300 428 c 0
 308 420 319 419 329 419 c 0
 352 419 381 442 403 461 c 1
 407 441 l 1
 315 363 l 1
 260 366 207 382 156 404 c 1
 143 384 143 359 143 336 c 0
 143 311 145 286 155 263 c 0
 159 254 164 242 175 242 c 0
 181 242 187 242 192 244 c 2
EndSplineSet
EndChar

StartChar: u1D531
Encoding: 120113 120113 195
Width: 333
Flags: W
HStem: -21 90<212 282.5> 353 36<62 114 196 272> 621 20<228 228>
VStem: 114 82<353 421.5>
LayerCount: 2
Fore
SplineSet
228 641 m 1
 242 627 l 1
 215 601 l 2
 210 596 209 589 208 582 c 0
 197 518 196 454 196 389 c 1
 302 389 l 1
 272 353 l 1
 195 353 l 1
 195 276 195 170 197 123 c 1
 217 105 240 84 259 73 c 0
 266 69 274 67 282 69 c 0
 283 69 324 89 346 100 c 1
 349 78 l 1
 212 -21 l 1
 112 62 l 2
 112 63 113 256 114 353 c 1
 26 353 l 1
 62 389 l 1
 116 389 l 1
 116 446 119 502 116 558 c 1
 228 641 l 1
EndSplineSet
EndChar

StartChar: u1D532
Encoding: 120114 120114 196
Width: 517
Flags: W
HStem: -23 81<181 244> 396 78<61 119>
VStem: 100 72 336 76
LayerCount: 2
Fore
SplineSet
421 468 m 1
 428 462 l 1
 418 383 412 304 412 225 c 0
 412 193 412 160 419 131 c 0
 422 117 429 103 438 91 c 0
 444 83 455 81 464 85 c 0
 479 90 493 96 508 103 c 1
 514 88 l 1
 472 54 431 19 392 -18 c 1
 384 -16 l 1
 371 17 355 49 334 78 c 1
 285 53 237 25 198 -14 c 0
 194 -18 189 -22 184 -23 c 1
 178 -23 174 -20 170 -17 c 0
 135 11 98 38 55 48 c 1
 75 70 82 99 88 127 c 0
 97 172 100 218 100 264 c 0
 100 292 97 319 90 346 c 1
 84 364 76 383 61 396 c 1
 23 376 l 1
 8 386 l 1
 119 474 l 1
 135 455 151 436 171 421 c 1
 172 369 172 316 170 264 c 0
 168 210 161 156 146 104 c 1
 244 58 l 1
 335 108 l 1
 342 213 340 319 336 424 c 1
 421 468 l 1
EndSplineSet
EndChar

StartChar: u1D533
Encoding: 120115 120115 197
Width: 511
Flags: W
HStem: -28 77 396 81 510 20<121 121>
VStem: 92 79 358 77
LayerCount: 2
Fore
SplineSet
407 86 m 1
 192 -28 l 1
 161 5 128 35 92 64 c 1
 100 161 96 258 93 355 c 1
 78 375 55 407 55 416 c 0
 55 437 69 459 82 478 c 0
 84 481 108 513 121 530 c 1
 138 528 l 1
 130 515 123 502 123 487 c 0
 123 473 128 460 135 449 c 0
 144 433 156 419 169 406 c 1
 171 371 l 1
 318 477 l 1
 354 453 392 432 433 416 c 1
 436 348 437 280 431 212 c 0
 428 169 424 126 407 86 c 1
175 344 m 1
 173 281 171 194 172 155 c 1
 174 130 188 108 208 93 c 0
 209 93 233 74 245 64 c 1
 257 56 270 49 285 49 c 0
 298 49 309 58 318 68 c 0
 329 79 336 93 342 108 c 0
 349 129 353 151 355 173 c 0
 363 234 359 296 351 358 c 1
 328 379 297 390 266 396 c 1
 233 383 203 365 175 344 c 1
EndSplineSet
EndChar

StartChar: u1D534
Encoding: 120116 120116 198
Width: 773
Flags: W
HStem: -28 72<465 552> 386 87 513 20<124 124>
VStem: 88 77<181 190 146 230> 332 86 606 85
LayerCount: 2
Fore
SplineSet
418 368 m 1
 560 471 l 1
 601 447 643 425 686 405 c 1
 691 293 689 179 652 72 c 1
 465 -28 l 1
 421 -1 376 24 331 46 c 1
 339 144 343 243 334 341 c 1
 311 357 278 378 264 385 c 0
 257 388 250 389 243 389 c 0
 238 389 232 387 228 384 c 0
 207 372 186 361 166 348 c 1
 165 314 165 222 165 158 c 0
 165 134 171 109 185 88 c 1
 193 74 203 59 212 48 c 1
 137 -27 l 1
 120 2 102 30 78 52 c 1
 86 103 88 155 88 207 c 0
 88 253 88 299 85 345 c 0
 84 353 82 361 77 367 c 0
 68 379 60 391 52 403 c 0
 48 410 45 418 45 427 c 0
 45 432 49 438 52 444 c 0
 73 476 97 506 124 533 c 1
 138 529 l 1
 129 515 122 500 122 483 c 0
 122 473 133 452 141 438 c 0
 146 430 159 418 168 408 c 1
 169 376 l 1
 212 406 254 437 291 473 c 1
 332 447 375 425 419 405 c 1
 418 368 l 1
504 385 m 1
 418 342 l 1
 416 277 414 213 419 148 c 0
 420 125 430 103 448 89 c 0
 477 65 510 44 548 44 c 0
 556 44 565 53 572 60 c 0
 589 77 594 103 598 127 c 0
 605 172 606 218 606 264 c 0
 606 290 602 320 598 348 c 1
 569 366 537 376 504 385 c 1
EndSplineSet
EndChar

StartChar: u1D535
Encoding: 120117 120117 199
Width: 388
Flags: W
HStem: -188 21<123 123> -25 84<210 271> 384 89
VStem: 14 51 115 80
LayerCount: 2
Fore
SplineSet
192 376 m 1
 301 465 l 1
 318 437 336 410 363 391 c 1
 303 339 l 1
 271 350 259 401 236 380 c 0
 222 367 202 349 195 341 c 1
 191 323 189 306 189 289 c 0
 187 234 191 174 195 117 c 1
 214 97 235 79 258 63 c 0
 262 60 267 59 271 59 c 0
 276 60 280 62 285 64 c 2
 356 101 l 1
 359 80 l 1
 210 -25 l 1
 185 3 156 27 126 49 c 1
 109 33 93 16 81 -5 c 0
 72 -20 65 -36 65 -54 c 0
 65 -74 75 -93 89 -107 c 0
 111 -129 147 -136 179 -143 c 1
 180 -152 l 1
 123 -188 l 1
 90 -180 56 -169 31 -144 c 0
 18 -132 10 -115 10 -98 c 0
 10 -73 23 -51 36 -30 c 0
 57 4 82 35 109 65 c 1
 115 107 115 150 115 192 c 0
 115 246 112 300 108 353 c 1
 99 363 87 376 78 381 c 0
 75 383 70 386 68 386 c 0
 65 386 60 384 56 382 c 0
 47 377 28 368 27 368 c 2
 14 377 l 1
 47 411 82 442 118 473 c 1
 143 451 181 416 194 407 c 1
 192 376 l 1
EndSplineSet
EndChar

StartChar: u1D536
Encoding: 120118 120118 200
Width: 498
Flags: W
HStem: -219 21<222 222> -26 21<131 131> 391 82 508 20<113 113>
VStem: 89 74<222 269> 350 81<175 217>
LayerCount: 2
Fore
SplineSet
163 365 m 1
 311 473 l 1
 348 451 385 429 426 414 c 1
 428 347 431 271 431 215 c 0
 431 135 429 54 407 -23 c 0
 403 -37 394 -50 384 -61 c 0
 383 -61 276 -166 222 -219 c 1
 184 -202 l 1
 218 -185 251 -166 278 -140 c 0
 300 -118 314 -89 324 -60 c 0
 335 -28 340 6 343 39 c 0
 348 89 350 139 350 189 c 0
 350 245 345 301 339 356 c 1
 315 371 289 383 262 391 c 1
 227 376 194 358 163 335 c 1
 163 111 l 1
 165 108 198 67 216 45 c 1
 131 -26 l 1
 114 3 95 31 74 58 c 1
 89 117 89 189 89 255 c 0
 89 283 88 312 86 340 c 0
 86 341 83 348 82 351 c 0
 69 370 56 389 45 410 c 1
 62 452 87 491 113 528 c 1
 129 525 l 1
 122 511 116 497 116 481 c 0
 116 459 143 427 163 403 c 1
 163 365 l 1
EndSplineSet
EndChar

StartChar: u1D537
Encoding: 120119 120119 201
Width: 390
Flags: W
HStem: -215 61<130.5 188> 388 83
VStem: -7 79 240 74<36.5 38.5>
LayerCount: 2
Fore
SplineSet
290 -99 m 1
 153 -215 l 1
 108 -215 65 -200 29 -174 c 0
 11 -160 -3 -140 -7 -116 c 1
 17 -73 46 -33 77 5 c 0
 118 55 162 102 207 147 c 1
 172 163 136 177 97 181 c 1
 97 184 97 191 97 192 c 1
 98 192 145 236 170 259 c 0
 186 274 204 292 204 315 c 0
 204 338 191 357 175 372 c 0
 165 382 152 388 139 388 c 0
 130 388 121 386 114 382 c 0
 90 368 68 352 47 335 c 1
 36 347 l 1
 81 392 129 434 182 471 c 1
 206 459 231 446 250 427 c 0
 260 418 269 407 275 396 c 0
 280 388 284 379 284 370 c 0
 284 357 278 344 269 334 c 2
 194 245 l 1
 231 232 267 218 300 198 c 1
 311 155 314 109 314 64 c 0
 314 9 304 -46 290 -99 c 1
225 130 m 1
 184 95 144 59 112 16 c 0
 92 -11 72 -40 72 -73 c 0
 72 -90 82 -104 94 -115 c 1
 117 -139 149 -154 183 -154 c 0
 193 -154 203 -148 210 -140 c 1
 225 -126 228 -105 232 -85 c 0
 239 -50 240 -15 240 20 c 0
 240 57 236 94 225 130 c 1
EndSplineSet
EndChar

